<svg width="16" height="16" viewBox="0 0 16 16" fill="none" xmlns="http://www.w3.org/2000/svg">
<path d="M6.5 9.00001H9.50001C9.63262 9.00001 9.75979 8.94733 9.85356 8.85356C9.94733 8.75979 10 8.63261 10 8.5C10 8.36739 9.94733 8.24022 9.85356 8.14645C9.75979 8.05268 9.63262 8 9.50001 8H6.5C6.36739 8 6.24022 8.05268 6.14645 8.14645C6.05268 8.24022 6 8.36739 6 8.5C6 8.63261 6.05268 8.75979 6.14645 8.85356C6.24022 8.94733 6.36739 9.00001 6.5 9.00001Z" fill="#8E8E8E"/>
<path d="M11.5 2H4.5C3.8372 2.00079 3.20178 2.26444 2.73311 2.73311C2.26444 3.20178 2.00079 3.8372 2 4.5L2 5C2.00015 5.21087 2.04475 5.41934 2.1309 5.61181C2.21706 5.80428 2.34283 5.97642 2.5 6.117V11.5C2.50079 12.1628 2.76444 12.7982 3.23311 13.2669C3.70178 13.7356 4.3372 13.9992 5 14H11C11.6628 13.9992 12.2982 13.7356 12.7669 13.2669C13.2356 12.7982 13.4992 12.1628 13.5 11.5V6.117C13.6572 5.97642 13.7829 5.80428 13.8691 5.61181C13.9552 5.41934 13.9999 5.21087 14 5V4.5C13.9992 3.8372 13.7356 3.20178 13.2669 2.73311C12.7982 2.26444 12.1628 2.00079 11.5 2V2ZM3 4.5C3 4.10218 3.15804 3.72064 3.43934 3.43934C3.72064 3.15804 4.10218 3 4.5 3H11.5C11.8978 3 12.2794 3.15804 12.5607 3.43934C12.842 3.72064 13 4.10218 13 4.5V5C13 5.13261 12.9473 5.25979 12.8536 5.35355C12.7598 5.44732 12.6326 5.5 12.5 5.5H3.5C3.36739 5.5 3.24021 5.44732 3.14645 5.35355C3.05268 5.25979 3 5.13261 3 5V4.5ZM12.5 11.5C12.5 11.8978 12.342 12.2794 12.0607 12.5607C11.7794 12.842 11.3978 13 11 13H5C4.60218 13 4.22064 12.842 3.93934 12.5607C3.65804 12.2794 3.5 11.8978 3.5 11.5V6.5H12.5V11.5Z" fill="#8E8E8E"/>
</svg>
