<svg width="18" height="18" viewBox="0 0 18 18" fill="none" xmlns="http://www.w3.org/2000/svg">
<path d="M12.9375 5.25H9.5625C9.04883 5.25188 8.54554 5.39477 8.10752 5.66308C7.66949 5.93139 7.31355 6.31483 7.0785 6.77156C6.74122 6.51551 6.32971 6.3763 5.90625 6.375C5.38411 6.375 4.88335 6.58242 4.51413 6.95164C4.14492 7.32085 3.9375 7.82161 3.9375 8.34375C3.93915 8.63626 4.00663 8.92464 4.13494 9.1875H3.375V3.5625C3.375 3.41332 3.31574 3.27024 3.21025 3.16475C3.10476 3.05926 2.96168 3 2.8125 3C2.66332 3 2.52024 3.05926 2.41475 3.16475C2.30926 3.27024 2.25 3.41332 2.25 3.5625V13.6875C2.25 13.8367 2.30926 13.9798 2.41475 14.0853C2.52024 14.1907 2.66332 14.25 2.8125 14.25C2.96168 14.25 3.10476 14.1907 3.21025 14.0853C3.31574 13.9798 3.375 13.8367 3.375 13.6875V12.5625H14.625V13.6875C14.625 13.8367 14.6843 13.9798 14.7898 14.0853C14.8952 14.1907 15.0383 14.25 15.1875 14.25C15.3367 14.25 15.4798 14.1907 15.5852 14.0853C15.6907 13.9798 15.75 13.8367 15.75 13.6875V8.0625C15.7491 7.31686 15.4525 6.602 14.9253 6.07475C14.398 5.5475 13.6831 5.25089 12.9375 5.25V5.25ZM7.875 8.0625C7.875 7.61495 8.05279 7.18573 8.36926 6.86926C8.68572 6.55279 9.11495 6.375 9.5625 6.375H12.9375C13.3851 6.375 13.8143 6.55279 14.1307 6.86926C14.4472 7.18573 14.625 7.61495 14.625 8.0625V9.1875H7.875V8.0625ZM5.0625 8.34375C5.0625 8.17687 5.11199 8.01374 5.2047 7.87499C5.29741 7.73624 5.42919 7.62809 5.58336 7.56423C5.73754 7.50037 5.90719 7.48366 6.07086 7.51621C6.23453 7.54877 6.38487 7.62913 6.50287 7.74713C6.62087 7.86513 6.70123 8.01547 6.73379 8.17915C6.76634 8.34282 6.74963 8.51247 6.68577 8.66664C6.62191 8.82082 6.51377 8.95259 6.37501 9.04531C6.23626 9.13802 6.07313 9.1875 5.90625 9.1875C5.68247 9.1875 5.46786 9.09861 5.30963 8.94037C5.15139 8.78214 5.0625 8.56753 5.0625 8.34375ZM3.375 11.4375V10.3125H14.625V11.4375H3.375Z" fill="#8E8E8E"/>
</svg>
