<svg width="18" height="18" viewBox="0 0 18 18" fill="none" xmlns="http://www.w3.org/2000/svg">
<path d="M13.5 2.25H4.5C3.90326 2.25 3.33097 2.48705 2.90901 2.90901C2.48705 3.33097 2.25 3.90326 2.25 4.5L2.25 11.25C2.25 11.8467 2.48705 12.419 2.90901 12.841C3.33097 13.2629 3.90326 13.5 4.5 13.5H6.13125L8.63494 15.6167C8.73651 15.7026 8.86525 15.7498 8.99831 15.7498C9.13137 15.7498 9.26012 15.7026 9.36169 15.6167L11.8688 13.5H13.5C14.0967 13.5 14.669 13.2629 15.091 12.841C15.5129 12.419 15.75 11.8467 15.75 11.25V4.5C15.75 3.90326 15.5129 3.33097 15.091 2.90901C14.669 2.48705 14.0967 2.25 13.5 2.25V2.25ZM14.625 11.25C14.625 11.5484 14.5065 11.8345 14.2955 12.0455C14.0845 12.2565 13.7984 12.375 13.5 12.375H11.8688C11.6029 12.3751 11.3456 12.4693 11.1426 12.6411L9 14.4506L6.85856 12.6411C6.65525 12.4691 6.39754 12.3748 6.13125 12.375H4.5C4.20163 12.375 3.91548 12.2565 3.7045 12.0455C3.49353 11.8345 3.375 11.5484 3.375 11.25V4.5C3.375 4.20163 3.49353 3.91548 3.7045 3.7045C3.91548 3.49353 4.20163 3.375 4.5 3.375H13.5C13.7984 3.375 14.0845 3.49353 14.2955 3.7045C14.5065 3.91548 14.625 4.20163 14.625 4.5V11.25Z" fill="#000000"/>
<path d="M6.1875 6.1875H9C9.14918 6.1875 9.29226 6.12824 9.39775 6.02275C9.50324 5.91726 9.5625 5.77419 9.5625 5.625C9.5625 5.47582 9.50324 5.33274 9.39775 5.22725C9.29226 5.12176 9.14918 5.0625 9 5.0625H6.1875C6.03832 5.0625 5.89524 5.12176 5.78975 5.22725C5.68426 5.33274 5.625 5.47582 5.625 5.625C5.625 5.77419 5.68426 5.91726 5.78975 6.02275C5.89524 6.12824 6.03832 6.1875 6.1875 6.1875Z" fill="#000000"/>
<path d="M11.8125 7.3125H6.1875C6.03832 7.3125 5.89524 7.37176 5.78975 7.47725C5.68426 7.58274 5.625 7.72582 5.625 7.875C5.625 8.02418 5.68426 8.16726 5.78975 8.27275C5.89524 8.37823 6.03832 8.4375 6.1875 8.4375H11.8125C11.9617 8.4375 12.1048 8.37823 12.2102 8.27275C12.3157 8.16726 12.375 8.02418 12.375 7.875C12.375 7.72582 12.3157 7.58274 12.2102 7.47725C12.1048 7.37176 11.9617 7.3125 11.8125 7.3125Z" fill="#000000"/>
<path d="M11.8125 9.5625H6.1875C6.03832 9.5625 5.89524 9.62176 5.78975 9.72725C5.68426 9.83274 5.625 9.97582 5.625 10.125C5.625 10.2742 5.68426 10.4173 5.78975 10.5228C5.89524 10.6282 6.03832 10.6875 6.1875 10.6875H11.8125C11.9617 10.6875 12.1048 10.6282 12.2102 10.5228C12.3157 10.4173 12.375 10.2742 12.375 10.125C12.375 9.97582 12.3157 9.83274 12.2102 9.72725C12.1048 9.62176 11.9617 9.5625 11.8125 9.5625Z" fill="#000000"/>
</svg>
