<svg width="20" height="20" viewBox="0 0 20 20" fill="none" xmlns="http://www.w3.org/2000/svg">
<path d="M10 2.5C8.51664 2.5 7.0666 2.93987 5.83323 3.76398C4.59986 4.58809 3.63856 5.75943 3.07091 7.12987C2.50325 8.50032 2.35472 10.0083 2.64411 11.4632C2.9335 12.918 3.64781 14.2544 4.6967 15.3033C5.7456 16.3522 7.08197 17.0665 8.53683 17.3559C9.99168 17.6453 11.4997 17.4968 12.8701 16.9291C14.2406 16.3614 15.4119 15.4001 16.236 14.1668C17.0601 12.9334 17.5 11.4834 17.5 10C17.4979 8.01154 16.707 6.10513 15.3009 4.69907C13.8949 3.29302 11.9885 2.50215 10 2.5V2.5ZM10 16.25C8.76387 16.25 7.5555 15.8834 6.52769 15.1967C5.49988 14.5099 4.6988 13.5338 4.22576 12.3918C3.75271 11.2497 3.62894 9.99307 3.8701 8.78068C4.11125 7.5683 4.70651 6.45466 5.58059 5.58058C6.45466 4.7065 7.56831 4.11125 8.78069 3.87009C9.99307 3.62893 11.2497 3.7527 12.3918 4.22575C13.5338 4.6988 14.5099 5.49988 15.1967 6.52769C15.8834 7.55549 16.25 8.76387 16.25 10C16.2482 11.657 15.5891 13.2457 14.4174 14.4174C13.2457 15.5891 11.657 16.2482 10 16.25Z" fill="#8E8E8E"/>
<path d="M9.99904 6.25C9.83328 6.25 9.67431 6.31585 9.5571 6.43306C9.43989 6.55027 9.37404 6.70924 9.37404 6.875V9.57812L7.26718 10.8981C7.12628 10.9861 7.02612 11.1265 6.98873 11.2884C6.95134 11.4503 6.97978 11.6203 7.0678 11.7612C7.15582 11.9021 7.2962 12.0023 7.45807 12.0397C7.61994 12.0771 7.79003 12.0486 7.93092 11.9606L10.3309 10.4606C10.4216 10.4038 10.4962 10.3247 10.5475 10.2308C10.5988 10.1369 10.6252 10.0314 10.624 9.92437V6.875C10.624 6.70924 10.5582 6.55027 10.441 6.43306C10.3238 6.31585 10.1648 6.25 9.99904 6.25Z" fill="#8E8E8E"/>
</svg>
