<svg width="50" height="50" viewBox="0 0 50 50" fill="none" xmlns="http://www.w3.org/2000/svg">
<path d="M39.08 24.6418V22.414C39.08 18.6798 37.5966 15.0984 34.9561 12.4579C32.3156 9.81741 28.7343 8.33398 25 8.33398C21.2657 8.33398 17.6844 9.81741 15.0439 12.4579C12.4034 15.0984 10.92 18.6798 10.92 22.414V24.6418C9.27911 25.3643 7.93625 26.6286 7.1162 28.2229C6.29615 29.8173 6.04869 31.6449 6.41523 33.4C6.78177 35.155 7.74008 36.7308 9.12972 37.8637C10.5194 38.9965 12.256 39.6176 14.0489 39.6229C14.8787 39.6229 15.6745 39.2933 16.2613 38.7065C16.8481 38.1197 17.1778 37.3239 17.1778 36.4941V27.1074C17.1778 26.2775 16.8481 25.4817 16.2613 24.8949C15.6745 24.3081 14.8787 23.9785 14.0489 23.9785V22.414C14.0489 19.5096 15.2026 16.7241 17.2564 14.6704C19.3101 12.6167 22.0956 11.4629 25 11.4629C27.9044 11.4629 30.6899 12.6167 32.7436 14.6704C34.7974 16.7241 35.9511 19.5096 35.9511 22.414V23.9785C35.1213 23.9785 34.3255 24.3081 33.7387 24.8949C33.1519 25.4817 32.8222 26.2775 32.8222 27.1074V36.4941H28.1289C27.714 36.4941 27.3161 36.6589 27.0227 36.9523C26.7293 37.2457 26.5644 37.6436 26.5644 38.0585C26.5644 38.4734 26.7293 38.8713 27.0227 39.1647C27.3161 39.4581 27.714 39.6229 28.1289 39.6229H35.9511C37.744 39.6176 39.4806 38.9965 40.8703 37.8637C42.2599 36.7308 43.2182 35.155 43.5848 33.4C43.9513 31.6449 43.7038 29.8173 42.8838 28.2229C42.0637 26.6286 40.7209 25.3643 39.08 24.6418V24.6418ZM14.0489 36.4941C12.8041 36.4941 11.6103 35.9996 10.7302 35.1194C9.85 34.2392 9.35552 33.0455 9.35552 31.8007C9.35552 30.556 9.85 29.3622 10.7302 28.482C11.6103 27.6018 12.8041 27.1074 14.0489 27.1074V36.4941ZM35.9511 36.4941V27.1074C37.1959 27.1074 38.3897 27.6018 39.2698 28.482C40.15 29.3622 40.6445 30.556 40.6445 31.8007C40.6445 33.0455 40.15 34.2392 39.2698 35.1194C38.3897 35.9996 37.1959 36.4941 35.9511 36.4941Z" fill="#363636"/>
</svg>
