<svg width="20" height="20" viewBox="0 0 20 20" fill="none" xmlns="http://www.w3.org/2000/svg">
<path d="M5.75905 7.5H14.241C14.3911 7.50003 14.5378 7.54458 14.6627 7.628C14.7875 7.71143 14.8848 7.82999 14.9422 7.96869C14.9997 8.1074 15.0147 8.26003 14.9854 8.40728C14.9561 8.55453 14.8839 8.68979 14.7777 8.79597L10.5368 13.0369C10.3944 13.1792 10.2013 13.2592 10 13.2592C9.79868 13.2592 9.60561 13.1792 9.46324 13.0369L5.22229 8.79597C5.11614 8.68979 5.04386 8.55453 5.01458 8.40728C4.9853 8.26003 5.00033 8.1074 5.05778 7.96869C5.11523 7.82999 5.21252 7.71143 5.33734 7.628C5.46216 7.54458 5.60891 7.50003 5.75905 7.5Z" fill="#8E8E8E"/>
</svg>
