<svg width="50" height="50" viewBox="0 0 50 50" fill="none" xmlns="http://www.w3.org/2000/svg">
<path d="M39.0625 18.75H32.8125V10.9375C32.8125 9.6943 32.3186 8.50201 31.4396 7.62294C30.5605 6.74386 29.3682 6.25 28.125 6.25H21.875C20.6318 6.25 19.4395 6.74386 18.5604 7.62294C17.6814 8.50201 17.1875 9.6943 17.1875 10.9375V18.75H10.9375C9.6943 18.75 8.50201 19.2439 7.62294 20.1229C6.74386 21.002 6.25 22.1943 6.25 23.4375L6.25 40.625H9.375V43.75H12.5V40.625H37.5V43.75H40.625V40.625H43.75V23.4375C43.75 22.1943 43.2561 21.002 42.3771 20.1229C41.498 19.2439 40.3057 18.75 39.0625 18.75ZM20.3125 10.9375C20.3125 10.5231 20.4771 10.1257 20.7701 9.83265C21.0632 9.53962 21.4606 9.375 21.875 9.375H28.125C28.5394 9.375 28.9368 9.53962 29.2299 9.83265C29.5229 10.1257 29.6875 10.5231 29.6875 10.9375V18.75H20.3125V10.9375ZM40.625 37.5H9.375V23.4375C9.375 23.0231 9.53962 22.6257 9.83265 22.3326C10.1257 22.0396 10.5231 21.875 10.9375 21.875H39.0625C39.4769 21.875 39.8743 22.0396 40.1674 22.3326C40.4604 22.6257 40.625 23.0231 40.625 23.4375V37.5ZM17.1875 25H32.8125V28.125H17.1875V25Z" fill="#363636"/>
</svg>
