<svg width="24" height="24" viewBox="0 0 24 24" fill="none" xmlns="http://www.w3.org/2000/svg">
<mask id="path-1-inside-1_3862_15167" fill="white">
<path d="M11.607 14.25C11.4081 14.25 11.2173 14.329 11.0767 14.4697C10.936 14.6103 10.857 14.8011 10.857 15V17.25C10.857 17.8467 10.6199 18.419 10.198 18.841C9.77603 19.2629 9.20374 19.5 8.607 19.5H6.75C6.15326 19.5 5.58097 19.2629 5.15901 18.841C4.73705 18.419 4.5 17.8467 4.5 17.25V6.75C4.5 6.15326 4.73705 5.58097 5.15901 5.15901C5.58097 4.73705 6.15326 4.5 6.75 4.5H8.607C9.20374 4.5 9.77603 4.73705 10.198 5.15901C10.6199 5.58097 10.857 6.15326 10.857 6.75V9C10.857 9.19891 10.936 9.38968 11.0767 9.53033C11.2173 9.67098 11.4081 9.75 11.607 9.75C11.8059 9.75 11.9967 9.67098 12.1373 9.53033C12.278 9.38968 12.357 9.19891 12.357 9V6.75C12.3558 5.7558 11.9603 4.80267 11.2573 4.09966C10.5543 3.39666 9.6012 3.00119 8.607 3H6.75C5.7558 3.00119 4.80267 3.39666 4.09967 4.09966C3.39666 4.80267 3.00119 5.7558 3 6.75L3 17.25C3.00119 18.2442 3.39666 19.1973 4.09967 19.9003C4.80267 20.6033 5.7558 20.9988 6.75 21H8.607C9.6012 20.9988 10.5543 20.6033 11.2573 19.9003C11.9603 19.1973 12.3558 18.2442 12.357 17.25V15C12.357 14.8011 12.278 14.6103 12.1373 14.4697C11.9967 14.329 11.8059 14.25 11.607 14.25Z"/>
</mask>
<path d="M11.607 14.25C11.4081 14.25 11.2173 14.329 11.0767 14.4697C10.936 14.6103 10.857 14.8011 10.857 15V17.25C10.857 17.8467 10.6199 18.419 10.198 18.841C9.77603 19.2629 9.20374 19.5 8.607 19.5H6.75C6.15326 19.5 5.58097 19.2629 5.15901 18.841C4.73705 18.419 4.5 17.8467 4.5 17.25V6.75C4.5 6.15326 4.73705 5.58097 5.15901 5.15901C5.58097 4.73705 6.15326 4.5 6.75 4.5H8.607C9.20374 4.5 9.77603 4.73705 10.198 5.15901C10.6199 5.58097 10.857 6.15326 10.857 6.75V9C10.857 9.19891 10.936 9.38968 11.0767 9.53033C11.2173 9.67098 11.4081 9.75 11.607 9.75C11.8059 9.75 11.9967 9.67098 12.1373 9.53033C12.278 9.38968 12.357 9.19891 12.357 9V6.75C12.3558 5.7558 11.9603 4.80267 11.2573 4.09966C10.5543 3.39666 9.6012 3.00119 8.607 3H6.75C5.7558 3.00119 4.80267 3.39666 4.09967 4.09966C3.39666 4.80267 3.00119 5.7558 3 6.75L3 17.25C3.00119 18.2442 3.39666 19.1973 4.09967 19.9003C4.80267 20.6033 5.7558 20.9988 6.75 21H8.607C9.6012 20.9988 10.5543 20.6033 11.2573 19.9003C11.9603 19.1973 12.3558 18.2442 12.357 17.25V15C12.357 14.8011 12.278 14.6103 12.1373 14.4697C11.9967 14.329 11.8059 14.25 11.607 14.25Z" fill="#494949"/>
<path d="M11.607 14.25V-7.08333V14.25ZM11.0767 14.4697L26.1616 29.5546L11.0767 14.4697ZM10.857 17.25H32.1903H10.857ZM8.607 19.5V40.8333V19.5ZM6.75 19.5V40.8333V19.5ZM4.5 17.25H-16.8333H4.5ZM4.5 6.75H-16.8333H4.5ZM6.75 4.5V-16.8333V4.5ZM10.857 6.75H32.1903H10.857ZM11.0767 9.53033L26.1616 -5.55462L11.0767 9.53033ZM12.357 6.75H33.6903V6.73722L33.6903 6.72445L12.357 6.75ZM8.607 3L8.63255 -18.3333L8.61978 -18.3333H8.607V3ZM6.75 3V-18.3333H6.73722L6.72445 -18.3333L6.75 3ZM3 6.75L-18.3333 6.72445L-18.3333 6.73722V6.75H3ZM3 17.25H-18.3333V17.2628L-18.3333 17.2756L3 17.25ZM6.75 21L6.72445 42.3333L6.73722 42.3333H6.75V21ZM8.607 21V42.3333H8.61978L8.63255 42.3333L8.607 21ZM12.357 17.25L33.6903 17.2756L33.6903 17.2628V17.25H12.357ZM11.607 -7.08333C5.75012 -7.08333 0.133144 -4.75669 -4.00827 -0.615276L26.1616 29.5546C22.3015 33.4147 17.0661 35.5833 11.607 35.5833V-7.08333ZM-4.00827 -0.615276C-8.14969 3.52614 -10.4763 9.14312 -10.4763 15H32.1903C32.1903 20.4591 30.0217 25.6945 26.1616 29.5546L-4.00827 -0.615276ZM-10.4763 15V17.25H32.1903V15H-10.4763ZM-10.4763 17.25C-10.4763 12.1888 -8.46578 7.33487 -4.88695 3.75604L25.2829 33.9259C29.7057 29.5032 32.1903 23.5047 32.1903 17.25H-10.4763ZM-4.88695 3.75604C-1.30813 0.177219 3.5458 -1.83333 8.607 -1.83333V40.8333C14.8617 40.8333 20.8602 38.3487 25.2829 33.9259L-4.88695 3.75604ZM8.607 -1.83333H6.75V40.8333H8.607V-1.83333ZM6.75 -1.83333C11.8112 -1.83333 16.6651 0.177221 20.244 3.75604L-9.92593 33.9259C-5.5032 38.3487 0.495318 40.8333 6.75 40.8333V-1.83333ZM20.244 3.75604C23.8228 7.33486 25.8333 12.1888 25.8333 17.25H-16.8333C-16.8333 23.5047 -14.3487 29.5032 -9.92593 33.9259L20.244 3.75604ZM25.8333 17.25V6.75H-16.8333V17.25H25.8333ZM25.8333 6.75C25.8333 11.8112 23.8228 16.6651 20.244 20.244L-9.92593 -9.92594C-14.3487 -5.5032 -16.8333 0.495308 -16.8333 6.75H25.8333ZM20.244 20.244C16.6651 23.8228 11.8112 25.8333 6.75 25.8333V-16.8333C0.495309 -16.8333 -5.5032 -14.3487 -9.92593 -9.92594L20.244 20.244ZM6.75 25.8333H8.607V-16.8333H6.75V25.8333ZM8.607 25.8333C3.54579 25.8333 -1.30813 23.8228 -4.88695 20.244L25.2829 -9.92594C20.8602 -14.3487 14.8617 -16.8333 8.607 -16.8333V25.8333ZM-4.88695 20.244C-8.46578 16.6651 -10.4763 11.8112 -10.4763 6.75H32.1903C32.1903 0.495317 29.7057 -5.5032 25.2829 -9.92594L-4.88695 20.244ZM-10.4763 6.75V9H32.1903V6.75H-10.4763ZM-10.4763 9C-10.4763 14.8569 -8.14969 20.4739 -4.00827 24.6153L26.1616 -5.55462C30.0217 -1.6945 32.1903 3.54094 32.1903 9H-10.4763ZM-4.00827 24.6153C0.133144 28.7567 5.75012 31.0833 11.607 31.0833V-11.5833C17.0661 -11.5833 22.3015 -9.41473 26.1616 -5.55462L-4.00827 24.6153ZM11.607 31.0833C17.4639 31.0833 23.0809 28.7567 27.2223 24.6153L-2.94761 -5.55462C0.912499 -9.41473 6.14795 -11.5833 11.607 -11.5833V31.0833ZM27.2223 24.6153C31.3637 20.4739 33.6903 14.8569 33.6903 9H-8.97633C-8.97633 3.54094 -6.80773 -1.6945 -2.94761 -5.55462L27.2223 24.6153ZM33.6903 9V6.75H-8.97633V9H33.6903ZM33.6903 6.72445C33.6824 0.0811553 31.0398 -6.28776 26.3423 -10.9853L-3.82761 19.1846C-7.11912 15.8931 -8.97074 11.4305 -8.97632 6.77555L33.6903 6.72445ZM26.3423 -10.9853C21.6448 -15.6828 15.2758 -18.3254 8.63255 -18.3333L8.58145 24.3333C3.92655 24.3277 -0.536098 22.4761 -3.82761 19.1846L26.3423 -10.9853ZM8.607 -18.3333H6.75V24.3333H8.607V-18.3333ZM6.72445 -18.3333C0.0811565 -18.3254 -6.28776 -15.6828 -10.9853 -10.9853L19.1846 19.1846C15.8931 22.4761 11.4305 24.3277 6.77555 24.3333L6.72445 -18.3333ZM-10.9853 -10.9853C-15.6828 -6.28776 -18.3254 0.0811553 -18.3333 6.72445L24.3333 6.77555C24.3277 11.4305 22.4761 15.8931 19.1846 19.1846L-10.9853 -10.9853ZM-18.3333 6.75V17.25H24.3333V6.75H-18.3333ZM-18.3333 17.2756C-18.3254 23.9188 -15.6828 30.2878 -10.9853 34.9853L19.1846 4.81539C22.4761 8.1069 24.3277 12.5696 24.3333 17.2244L-18.3333 17.2756ZM-10.9853 34.9853C-6.28775 39.6828 0.081167 42.3254 6.72445 42.3333L6.77555 -0.333319C11.4304 -0.327743 15.8931 1.52387 19.1846 4.81539L-10.9853 34.9853ZM6.75 42.3333H8.607V-0.333334H6.75V42.3333ZM8.63255 42.3333C15.2758 42.3254 21.6448 39.6828 26.3423 34.9853L-3.82761 4.81539C-0.53609 1.52387 3.92656 -0.327743 8.58145 -0.333319L8.63255 42.3333ZM26.3423 34.9853C31.0398 30.2878 33.6824 23.9188 33.6903 17.2756L-8.97632 17.2244C-8.97074 12.5696 -7.11912 8.1069 -3.82761 4.81539L26.3423 34.9853ZM33.6903 17.25V15H-8.97633V17.25H33.6903ZM33.6903 15C33.6903 9.14312 31.3637 3.52614 27.2223 -0.615276L-2.94761 29.5546C-6.80773 25.6945 -8.97633 20.4591 -8.97633 15H33.6903ZM27.2223 -0.615276C23.0809 -4.75669 17.4639 -7.08333 11.607 -7.08333V35.5833C6.14795 35.5833 0.912499 33.4147 -2.94761 29.5546L27.2223 -0.615276Z" fill="#494949" mask="url(#path-1-inside-1_3862_15167)"/>
<mask id="path-3-inside-2_3862_15167" fill="white">
<path d="M20.1503 10.4087L16.7108 6.9692C16.6416 6.89757 16.5588 6.84043 16.4673 6.80112C16.3758 6.76182 16.2774 6.74113 16.1778 6.74026C16.0782 6.7394 15.9795 6.75837 15.8873 6.79608C15.7951 6.83379 15.7114 6.88948 15.641 6.9599C15.5705 7.03032 15.5148 7.11406 15.4771 7.20624C15.4394 7.29841 15.4205 7.39717 15.4213 7.49675C15.4222 7.59634 15.4429 7.69475 15.4822 7.78625C15.5215 7.87776 15.5786 7.96052 15.6503 8.0297L18.8468 11.227L7.5 11.2495C7.30109 11.2495 7.11032 11.3285 6.96967 11.4691C6.82902 11.6098 6.75 11.8005 6.75 11.9995C6.75 12.1984 6.82902 12.3891 6.96967 12.5298C7.11032 12.6704 7.30109 12.7495 7.5 12.7495L18.891 12.7262L15.6488 15.9692C15.5771 16.0384 15.52 16.1211 15.4807 16.2127C15.4414 16.3042 15.4207 16.4026 15.4198 16.5022C15.419 16.6017 15.4379 16.7005 15.4756 16.7927C15.5133 16.8848 15.569 16.9686 15.6395 17.039C15.7099 17.1094 15.7936 17.1651 15.8858 17.2028C15.978 17.2405 16.0767 17.2595 16.1763 17.2586C16.2759 17.2578 16.3743 17.2371 16.4658 17.1978C16.5573 17.1585 16.6401 17.1013 16.7093 17.0297L20.1488 13.5902C20.5708 13.1685 20.808 12.5964 20.8083 11.9998C20.8086 11.4031 20.5719 10.8308 20.1503 10.4087Z"/>
</mask>
<path d="M20.1503 10.4087L16.7108 6.9692C16.6416 6.89757 16.5588 6.84043 16.4673 6.80112C16.3758 6.76182 16.2774 6.74113 16.1778 6.74026C16.0782 6.7394 15.9795 6.75837 15.8873 6.79608C15.7951 6.83379 15.7114 6.88948 15.641 6.9599C15.5705 7.03032 15.5148 7.11406 15.4771 7.20624C15.4394 7.29841 15.4205 7.39717 15.4213 7.49675C15.4222 7.59634 15.4429 7.69475 15.4822 7.78625C15.5215 7.87776 15.5786 7.96052 15.6503 8.0297L18.8468 11.227L7.5 11.2495C7.30109 11.2495 7.11032 11.3285 6.96967 11.4691C6.82902 11.6098 6.75 11.8005 6.75 11.9995C6.75 12.1984 6.82902 12.3891 6.96967 12.5298C7.11032 12.6704 7.30109 12.7495 7.5 12.7495L18.891 12.7262L15.6488 15.9692C15.5771 16.0384 15.52 16.1211 15.4807 16.2127C15.4414 16.3042 15.4207 16.4026 15.4198 16.5022C15.419 16.6017 15.4379 16.7005 15.4756 16.7927C15.5133 16.8848 15.569 16.9686 15.6395 17.039C15.7099 17.1094 15.7936 17.1651 15.8858 17.2028C15.978 17.2405 16.0767 17.2595 16.1763 17.2586C16.2759 17.2578 16.3743 17.2371 16.4658 17.1978C16.5573 17.1585 16.6401 17.1013 16.7093 17.0297L20.1488 13.5902C20.5708 13.1685 20.808 12.5964 20.8083 11.9998C20.8086 11.4031 20.5719 10.8308 20.1503 10.4087Z" fill="#494949"/>
<path d="M20.1503 10.4087L35.2446 -4.66685L35.2352 -4.67624L20.1503 10.4087ZM16.7108 6.9692L1.36594 21.7897L1.49472 21.9231L1.62581 22.0541L16.7108 6.9692ZM15.6503 8.0297L30.737 -7.05347L30.605 -7.18546L30.4708 -7.31511L15.6503 8.0297ZM18.8468 11.227L18.8891 32.5602L70.2396 32.4584L33.9335 -3.85622L18.8468 11.227ZM7.5 11.2495V32.5828H7.52115L7.5423 32.5827L7.5 11.2495ZM7.5 12.7495V34.0828H7.52177L7.54354 34.0827L7.5 12.7495ZM18.891 12.7262L33.9777 27.8094L70.4911 -8.7125L18.8475 -8.60709L18.891 12.7262ZM15.6488 15.9692L30.4693 31.314L30.6035 31.1844L30.7354 31.0524L15.6488 15.9692ZM16.7093 17.0297L1.62431 1.94476L1.49322 2.07585L1.36444 2.20919L16.7093 17.0297ZM20.1488 13.5902L5.06865 -1.49958L5.06381 -1.49474L20.1488 13.5902ZM35.2352 -4.67624L31.7957 -8.11574L1.62581 22.0541L5.06531 25.4936L35.2352 -4.67624ZM32.0556 -7.85132C30.0184 -9.96053 27.5816 -11.6429 24.8874 -12.8002L8.0472 26.4025C5.53598 25.3237 3.26471 23.7557 1.36594 21.7897L32.0556 -7.85132ZM24.8874 -12.8002C22.1932 -13.9576 19.2954 -14.5668 16.3632 -14.5923L15.9924 28.0728C13.2593 28.049 10.5584 27.4812 8.0472 26.4025L24.8874 -12.8002ZM16.3632 -14.5923C13.431 -14.6177 10.5231 -14.059 7.80908 -12.9486L23.9655 26.5408C21.4358 27.5758 18.7254 28.0965 15.9924 28.0728L16.3632 -14.5923ZM7.80908 -12.9486C5.09516 -11.8383 2.6295 -10.1985 0.556011 -8.12504L30.7259 22.0448C28.7933 23.9775 26.4951 25.5059 23.9655 26.5408L7.80908 -12.9486ZM0.556011 -8.12504C-1.51752 -6.05151 -3.15724 -3.58584 -4.26758 -0.871967L35.2219 15.2844C34.1869 17.814 32.6586 20.1122 30.7259 22.0448L0.556011 -8.12504ZM-4.26758 -0.871967C-5.37796 1.84202 -5.93669 4.74994 -5.91121 7.68213L36.7538 7.31138C36.7776 10.0444 36.2568 12.7548 35.2219 15.2844L-4.26758 -0.871967ZM-5.91121 7.68213C-5.88573 10.6142 -5.27657 13.512 -4.11917 16.2064L35.0835 -0.633855C36.1623 1.87748 36.7301 4.57843 36.7538 7.31138L-5.91121 7.68213ZM-4.11917 16.2064C-2.96178 18.9007 -1.27941 21.3374 0.829734 23.3745L30.4708 -7.31511C32.4366 -5.41641 34.0048 -3.14516 35.0835 -0.633855L-4.11917 16.2064ZM0.563536 23.1129L3.76004 26.3101L33.9335 -3.85622L30.737 -7.05347L0.563536 23.1129ZM18.8045 -10.1063L7.4577 -10.0838L7.5423 32.5827L18.8891 32.5602L18.8045 -10.1063ZM7.5 -10.0839C1.64312 -10.0839 -3.97386 -7.75724 -8.11528 -3.61582L22.0546 26.5541C18.1945 30.4142 12.9591 32.5828 7.5 32.5828V-10.0839ZM-8.11528 -3.61582C-12.2567 0.525598 -14.5833 6.14258 -14.5833 11.9995H28.0833C28.0833 17.4585 25.9147 22.694 22.0546 26.5541L-8.11528 -3.61582ZM-14.5833 11.9995C-14.5833 17.8563 -12.2567 23.4733 -8.11528 27.6147L22.0546 -2.55516C25.9147 1.30495 28.0833 6.5404 28.0833 11.9995H-14.5833ZM-8.11528 27.6147C-3.97386 31.7561 1.64312 34.0828 7.5 34.0828V-8.58388C12.9591 -8.58388 18.1945 -6.41527 22.0546 -2.55516L-8.11528 27.6147ZM7.54354 34.0827L18.9345 34.0595L18.8475 -8.60709L7.45646 -8.58384L7.54354 34.0827ZM3.80431 -2.357L0.562064 0.886005L30.7354 31.0524L33.9777 27.8094L3.80431 -2.357ZM0.828233 0.624391C-1.28095 2.66151 -2.96331 5.09829 -4.12067 7.79254L35.082 24.6328C34.0033 27.144 32.4352 29.4153 30.4693 31.314L0.828233 0.624391ZM-4.12067 7.79254C-5.27808 10.4869 -5.88723 13.3847 -5.91271 16.3168L36.7523 16.6875C36.7286 19.4205 36.1608 22.1214 35.082 24.6328L-4.12067 7.79254ZM-5.91271 16.3168C-5.93819 19.249 -5.37945 22.1569 -4.26908 24.8709L35.2204 8.71447C36.2553 11.2441 36.7761 13.9545 36.7523 16.6875L-5.91271 16.3168ZM-4.26908 24.8709C-3.15869 27.5849 -1.51892 30.0505 0.554512 32.1239L30.7244 1.95406C32.657 3.88665 34.1854 6.18481 35.2204 8.71447L-4.26908 24.8709ZM0.554512 32.1239C2.62786 34.1973 5.09347 35.8371 7.80758 36.9475L23.964 -2.54189C26.4938 -1.50688 28.7919 0.0215502 30.7244 1.95406L0.554512 32.1239ZM7.80758 36.9475C10.5216 38.0579 13.4295 38.6167 16.3617 38.5912L15.9909 -4.07388C18.7239 -4.09763 21.4343 -3.57685 23.964 -2.54189L7.80758 36.9475ZM16.3617 38.5912C19.294 38.5657 22.1918 37.9565 24.8859 36.7991L8.0457 -2.40357C10.5568 -3.48228 13.2578 -4.05013 15.9909 -4.07388L16.3617 38.5912ZM24.8859 36.7991C27.5801 35.6418 30.0169 33.9594 32.0541 31.8502L1.36444 2.20919C3.26322 0.243233 5.53449 -1.32483 8.0457 -2.40357L24.8859 36.7991ZM31.7942 32.1147L35.2337 28.6751L5.06381 -1.49474L1.62431 1.94476L31.7942 32.1147ZM35.2289 28.68C39.6521 24.2595 42.1387 18.2633 42.1416 12.0098L-0.525056 11.9897C-0.52267 6.92948 1.48939 2.07739 5.06865 -1.49957L35.2289 28.68ZM42.1416 12.0098C42.1446 5.75637 39.6637 -0.242236 35.2446 -4.66685L5.05592 25.4843C1.48004 21.9039 -0.527442 17.0499 -0.525056 11.9897L42.1416 12.0098Z" fill="#494949" mask="url(#path-3-inside-2_3862_15167)"/>
</svg>
