<svg width="16" height="16" viewBox="0 0 16 16" fill="none" xmlns="http://www.w3.org/2000/svg">
<path d="M12.9321 2.8069L10.7564 2.07849C10.4669 1.98019 10.1541 1.97407 9.86102 2.06099L6.26847 3.04687L4.07724 2.11748C3.84938 2.02243 3.60158 1.9851 3.35583 2.0088C3.11008 2.0325 2.87398 2.1165 2.66849 2.25335C2.463 2.3902 2.29446 2.57566 2.17785 2.79327C2.06123 3.01089 2.00014 3.25392 2 3.50081V12.8767L5.9905 14.017L10.0005 13.0171L14 13.991V4.24222C13.9998 3.92001 13.8958 3.60643 13.7035 3.34791C13.5112 3.0894 13.2407 2.8997 12.9321 2.8069V2.8069ZM9.49906 3.19285V12.1092L6.49944 12.8592V3.98675L9.49906 3.19285ZM2.99988 3.50081C3.00005 3.41849 3.02054 3.33748 3.05955 3.26498C3.09856 3.19248 3.15486 3.13074 3.22347 3.08523C3.29207 3.03973 3.37085 3.01187 3.45281 3.00413C3.53477 2.99639 3.61738 3.00901 3.69329 3.04087L5.49956 3.79128V12.8367L2.99988 12.1227V3.50081ZM12.9986 12.7147L10.4989 12.1057V3.04687L12.6362 3.76178C12.7406 3.79164 12.8324 3.85467 12.8978 3.94135C12.9632 4.02803 12.9986 4.13364 12.9986 4.24222V12.7147Z" fill="#FF5B00"/>
</svg>
