<svg width="20" height="20" viewBox="0 0 20 20" fill="none" xmlns="http://www.w3.org/2000/svg">
<path d="M3.75 10.834C4.44035 10.834 5 10.2743 5 9.58399C5 8.89363 4.44035 8.33398 3.75 8.33398C3.05964 8.33398 2.5 8.89363 2.5 9.58399C2.5 10.2743 3.05964 10.834 3.75 10.834Z" fill="#8E8E8E"/>
<path d="M10 10.834C10.6904 10.834 11.25 10.2743 11.25 9.58399C11.25 8.89363 10.6904 8.33398 10 8.33398C9.30964 8.33398 8.75 8.89363 8.75 9.58399C8.75 10.2743 9.30964 10.834 10 10.834Z" fill="#8E8E8E"/>
<path d="M16.25 10.834C16.9404 10.834 17.5 10.2743 17.5 9.58399C17.5 8.89363 16.9404 8.33398 16.25 8.33398C15.5596 8.33398 15 8.89363 15 9.58399C15 10.2743 15.5596 10.834 16.25 10.834Z" fill="#8E8E8E"/>
</svg>
