<svg width="24" height="24" viewBox="0 0 24 24" fill="none" xmlns="http://www.w3.org/2000/svg">
<path d="M12.5 6C13.3284 6 14 5.32842 14 4.5C14 3.67157 13.3284 3 12.5 3C11.6716 3 11 3.67157 11 4.5C11 5.32842 11.6716 6 12.5 6Z" fill="#363636"/>
<path d="M12.5 13.5C13.3284 13.5 14 12.8284 14 12C14 11.1716 13.3284 10.5 12.5 10.5C11.6716 10.5 11 11.1716 11 12C11 12.8284 11.6716 13.5 12.5 13.5Z" fill="#363636"/>
<path d="M12.5 21C13.3284 21 14 20.3284 14 19.5C14 18.6716 13.3284 18 12.5 18C11.6716 18 11 18.6716 11 19.5C11 20.3284 11.6716 21 12.5 21Z" fill="#363636"/>
</svg>
