<svg width="50" height="50" viewBox="0 0 50 50" fill="none" xmlns="http://www.w3.org/2000/svg">
<path d="M17.1875 15.1035H42.1875C42.6019 15.1035 42.9993 14.9389 43.2924 14.6459C43.5854 14.3528 43.75 13.9554 43.75 13.541C43.75 13.1266 43.5854 12.7292 43.2924 12.4362C42.9993 12.1431 42.6019 11.9785 42.1875 11.9785H17.1875C16.7731 11.9785 16.3757 12.1431 16.0826 12.4362C15.7896 12.7292 15.625 13.1266 15.625 13.541C15.625 13.9554 15.7896 14.3528 16.0826 14.6459C16.3757 14.9389 16.7731 15.1035 17.1875 15.1035Z" fill="#D3D3D3"/>
<path d="M42.1875 22.916H17.1875C16.7731 22.916 16.3757 23.0806 16.0826 23.3737C15.7896 23.6667 15.625 24.0641 15.625 24.4785C15.625 24.8929 15.7896 25.2903 16.0826 25.5834C16.3757 25.8764 16.7731 26.041 17.1875 26.041H42.1875C42.6019 26.041 42.9993 25.8764 43.2924 25.5834C43.5854 25.2903 43.75 24.8929 43.75 24.4785C43.75 24.0641 43.5854 23.6667 43.2924 23.3737C42.9993 23.0806 42.6019 22.916 42.1875 22.916Z" fill="#D3D3D3"/>
<path d="M42.1875 33.8535H17.1875C16.7731 33.8535 16.3757 34.0181 16.0826 34.3112C15.7896 34.6042 15.625 35.0016 15.625 35.416C15.625 35.8304 15.7896 36.2279 16.0826 36.5209C16.3757 36.8139 16.7731 36.9785 17.1875 36.9785H42.1875C42.6019 36.9785 42.9993 36.8139 43.2924 36.5209C43.5854 36.2279 43.75 35.8304 43.75 35.416C43.75 35.0016 43.5854 34.6042 43.2924 34.3112C42.9993 34.0181 42.6019 33.8535 42.1875 33.8535Z" fill="#D3D3D3"/>
<path d="M9.375 16.666C11.1009 16.666 12.5 15.2669 12.5 13.541C12.5 11.8151 11.1009 10.416 9.375 10.416C7.64911 10.416 6.25 11.8151 6.25 13.541C6.25 15.2669 7.64911 16.666 9.375 16.666Z" fill="#D3D3D3"/>
<path d="M9.375 27.6035C11.1009 27.6035 12.5 26.2044 12.5 24.4785C12.5 22.7526 11.1009 21.3535 9.375 21.3535C7.64911 21.3535 6.25 22.7526 6.25 24.4785C6.25 26.2044 7.64911 27.6035 9.375 27.6035Z" fill="#D3D3D3"/>
<path d="M9.375 38.541C11.1009 38.541 12.5 37.1419 12.5 35.416C12.5 33.6901 11.1009 32.291 9.375 32.291C7.64911 32.291 6.25 33.6901 6.25 35.416C6.25 37.1419 7.64911 38.541 9.375 38.541Z" fill="#D3D3D3"/>
</svg>
