<svg width="50" height="50" viewBox="0 0 50 50" fill="none" xmlns="http://www.w3.org/2000/svg">
<path d="M31.7695 28.125C31.7695 28.5394 31.6049 28.9368 31.3119 29.2299C31.0189 29.5229 30.6214 29.6875 30.207 29.6875H17.707C17.2926 29.6875 16.8952 29.5229 16.6022 29.2299C16.3091 28.9368 16.1445 28.5394 16.1445 28.125C16.1445 27.7106 16.3091 27.3132 16.6022 27.0202C16.8952 26.7271 17.2926 26.5625 17.707 26.5625H30.207C30.6214 26.5625 31.0189 26.7271 31.3119 27.0202C31.6049 27.3132 31.7695 27.7106 31.7695 28.125ZM25.5195 32.8125H17.707C17.2926 32.8125 16.8952 32.9771 16.6022 33.2702C16.3091 33.5632 16.1445 33.9606 16.1445 34.375C16.1445 34.7894 16.3091 35.1868 16.6022 35.4799C16.8952 35.7729 17.2926 35.9375 17.707 35.9375H25.5195C25.9339 35.9375 26.3314 35.7729 26.6244 35.4799C26.9174 35.1868 27.082 34.7894 27.082 34.375C27.082 33.9606 26.9174 33.5632 26.6244 33.2702C26.3314 32.9771 25.9339 32.8125 25.5195 32.8125ZM39.582 22.6328V35.9375C39.5795 38.0087 38.7556 39.9944 37.2911 41.459C35.8265 42.9236 33.8408 43.7475 31.7695 43.75H16.1445C14.0733 43.7475 12.0876 42.9236 10.623 41.459C9.15841 39.9944 8.33451 38.0087 8.33203 35.9375V14.0625C8.33451 11.9913 9.15841 10.0056 10.623 8.541C12.0876 7.07641 14.0733 6.25252 16.1445 6.25004H23.1992C24.6361 6.24634 26.0595 6.52752 27.3871 7.07732C28.7146 7.62711 29.92 8.43462 30.9336 9.45316L36.3773 14.9C37.3965 15.9129 38.2045 17.1179 38.7546 18.4453C39.3047 19.7727 39.5859 21.196 39.582 22.6328ZM28.7242 11.6625C28.2325 11.1862 27.6804 10.7765 27.082 10.4438V17.1875C27.082 17.6019 27.2466 17.9994 27.5397 18.2924C27.8327 18.5854 28.2301 18.75 28.6445 18.75H35.3883C35.0554 18.1519 34.6451 17.6003 34.168 17.1094L28.7242 11.6625ZM36.457 22.6328C36.457 22.375 36.407 22.1281 36.3836 21.875H28.6445C27.4013 21.875 26.209 21.3812 25.33 20.5021C24.4509 19.623 23.957 18.4307 23.957 17.1875V9.44847C23.7039 9.42503 23.4555 9.37503 23.1992 9.37503H16.1445C14.9013 9.37503 13.709 9.86889 12.83 10.748C11.9509 11.627 11.457 12.8193 11.457 14.0625V35.9375C11.457 37.1807 11.9509 38.373 12.83 39.2521C13.709 40.1311 14.9013 40.625 16.1445 40.625H31.7695C33.0127 40.625 34.205 40.1311 35.0841 39.2521C35.9632 38.373 36.457 37.1807 36.457 35.9375V22.6328Z" fill="#D3D3D3"/>
</svg>
