<svg width="12" height="7" viewBox="0 0 12 7" fill="none" xmlns="http://www.w3.org/2000/svg">
<path d="M6.04577 6.33591C6.19439 6.32517 6.33529 6.26421 6.44569 6.16284L11.7789 1.3005V1.30059C11.9105 1.18075 11.9897 1.01295 11.9991 0.834134C12.0085 0.655221 11.9473 0.479805 11.829 0.346573C11.7107 0.213355 11.5451 0.133178 11.3685 0.123757C11.1919 0.114241 11.0188 0.176235 10.8873 0.295979L6 4.75313L1.11272 0.295979C0.981214 0.176235 0.808036 0.11424 0.631516 0.123757C0.454901 0.133178 0.289261 0.213353 0.170954 0.346573C0.0527468 0.479791 -0.00845242 0.655221 0.000943184 0.834134C0.0103359 1.01295 0.0894852 1.18074 0.220992 1.30059L5.55421 6.16293V6.16284C5.68823 6.28569 5.86559 6.34806 6.04592 6.33591H6.04577Z" fill="#ABABAB"/>
</svg>
