<svg width="18" height="18" viewBox="0 0 18 18" fill="none" xmlns="http://www.w3.org/2000/svg">
<path d="M7.1685 5.67185C7.11177 5.63192 7.04631 5.60637 6.97768 5.59737C6.90906 5.58838 6.83929 5.59619 6.7743 5.62016L4.61413 6.41744C4.53143 6.44796 4.46003 6.50332 4.40957 6.57603C4.35912 6.64874 4.33206 6.73531 4.33203 6.82402V9.48527C4.33202 9.55517 4.34881 9.62404 4.38096 9.68599C4.41311 9.74794 4.45966 9.80114 4.51665 9.84103C4.58878 9.89149 4.67453 9.9185 4.76235 9.91842C4.81343 9.91839 4.86411 9.9092 4.912 9.89127L7.07217 9.08273C7.1544 9.05192 7.22531 8.99651 7.27537 8.92394C7.32544 8.85137 7.35227 8.7651 7.35226 8.67673V6.02732C7.35232 5.95754 7.33564 5.88878 7.30365 5.82689C7.27165 5.765 7.22529 5.71181 7.1685 5.67185V5.67185ZM6.4922 8.37526L5.19209 8.86212V7.12665L6.4922 6.64701V8.37526Z" fill="#8E8E8E"/>
<path d="M15.6743 13.0616L15.6775 13.0573C15.686 13.0448 15.6937 13.0318 15.7007 13.0183C15.7024 13.0154 15.7038 13.0126 15.7053 13.0097C15.7122 12.9961 15.7185 12.9821 15.7239 12.9678C15.724 12.9666 15.724 12.9655 15.7239 12.9643C15.7291 12.9508 15.7334 12.9369 15.7368 12.9228C15.7368 12.9199 15.7385 12.9173 15.7391 12.9144C15.7425 12.8997 15.7454 12.8855 15.7474 12.8693V12.8607C15.7488 12.8464 15.7496 12.8323 15.75 12.8182C15.75 12.8168 15.75 12.815 15.75 12.8136V5.0291C15.75 4.94034 15.723 4.85371 15.6725 4.78094C15.6221 4.70816 15.5506 4.65276 15.4679 4.62223L9.14908 2.29046C9.14277 2.28815 9.13618 2.2867 9.12987 2.28468C9.12357 2.28266 9.11181 2.27862 9.10263 2.27631L9.07942 2.27198C9.07024 2.27024 9.06135 2.26822 9.05075 2.26736C9.04285 2.26635 9.03491 2.26577 9.02695 2.26562C9.01778 2.26563 9.0086 2.26562 8.99828 2.26562C8.98796 2.26562 8.98222 2.26562 8.9742 2.26562C8.96617 2.26562 8.95614 2.26563 8.94725 2.26765C8.93836 2.26967 8.93091 2.27024 8.92259 2.27169C8.91428 2.27313 8.90539 2.27458 8.89679 2.27689C8.88819 2.2792 8.8796 2.28179 8.87128 2.28439C8.86297 2.28699 8.85752 2.28815 8.85063 2.29075L2.53181 4.62252C2.44912 4.6531 2.37775 4.70852 2.32735 4.78129C2.27695 4.85406 2.24995 4.94066 2.25 5.02939V12.8185C2.25 12.8328 2.25086 12.8469 2.25258 12.861C2.25258 12.8638 2.25258 12.8667 2.25258 12.8696C2.25437 12.8848 2.25705 12.8998 2.26061 12.9147L2.26291 12.923C2.26647 12.9371 2.27077 12.951 2.27581 12.9646C2.27581 12.9646 2.27581 12.9669 2.27581 12.9681C2.28126 12.9824 2.28747 12.9964 2.29444 13.01C2.29444 13.0128 2.29731 13.0157 2.29903 13.0186C2.30611 13.032 2.31386 13.045 2.32225 13.0576L2.3254 13.0619C2.33343 13.0735 2.34204 13.0847 2.3512 13.0954C2.35292 13.0975 2.35465 13.0998 2.35665 13.1018C2.36668 13.1131 2.3773 13.1239 2.38847 13.1341L2.39506 13.1402C2.40682 13.1503 2.41886 13.1601 2.43176 13.1691C2.44894 13.181 2.46696 13.1918 2.48566 13.2011H2.48852H2.48996C2.49942 13.2057 2.50917 13.2101 2.51863 13.2141L8.83745 15.729C8.88784 15.7485 8.94142 15.7583 8.99541 15.7578C9.0494 15.7583 9.10299 15.7485 9.15338 15.729L15.4722 13.2141C15.4817 13.2104 15.4908 13.206 15.5009 13.2017H15.5029H15.5046C15.5238 13.1922 15.5423 13.1813 15.5599 13.1691V13.1691C15.5728 13.1598 15.5849 13.15 15.5966 13.1402L15.6032 13.1341C15.6144 13.1239 15.625 13.1131 15.635 13.1018C15.637 13.0998 15.6388 13.0975 15.6405 13.0954C15.6524 13.0848 15.6637 13.0736 15.6743 13.0616V13.0616ZM12.8287 11.4177L12.7934 11.4044L11.0509 10.7518V6.45588L12.8284 7.12379L12.8287 11.4177ZM14.8928 12.1904L13.6887 11.7397V6.82174C13.6888 6.73344 13.662 6.64723 13.6121 6.57466C13.5621 6.5021 13.4913 6.44665 13.4092 6.41574L10.7717 5.4247C10.7066 5.40028 10.6367 5.3921 10.5678 5.40085C10.4989 5.4096 10.4331 5.43502 10.3761 5.47495C10.3191 5.51484 10.2725 5.56803 10.2404 5.62998C10.2082 5.69194 10.1915 5.7608 10.1915 5.83071V10.4299L9.43404 10.1463V3.31701L14.8928 5.33172V12.1904ZM3.11551 5.33172L8.57399 3.31701V10.1463L3.11551 12.1904V5.33172ZM9.00401 14.8627L3.88583 12.826L9.00344 10.9095L10.471 11.4581L11.7513 11.9375L14.1211 12.8252L9.00401 14.8627Z" fill="#8E8E8E"/>
</svg>
