<svg width="24" height="24" viewBox="0 0 24 24" fill="none" xmlns="http://www.w3.org/2000/svg">
<path d="M4.02152 12.4605L6.77987 14.475L5.73232 17.7192C5.56303 18.2223 5.56088 18.7667 5.7262 19.2712C5.89152 19.7757 6.21545 20.2132 6.6497 20.5186C7.07651 20.8338 7.59373 21.0026 8.12429 21C8.65486 20.9973 9.17036 20.8233 9.594 20.5039L12.2911 18.5188L14.989 20.5016C15.4151 20.8149 15.9295 20.9851 16.4584 20.9877C16.9873 20.9903 17.5033 20.8251 17.9324 20.5159C18.3615 20.2067 18.6814 19.7694 18.8463 19.2669C19.0112 18.7643 19.0125 18.2225 18.85 17.7192L17.8024 14.475L20.5608 12.4605C20.9862 12.1494 21.3025 11.7118 21.4645 11.2103C21.6264 10.7087 21.6257 10.1687 21.4624 9.6676C21.2991 9.16645 20.9817 8.72972 20.5553 8.41977C20.129 8.10983 19.6157 7.94254 19.0886 7.94179H15.7003L14.6721 4.73715C14.5105 4.23271 14.1927 3.79266 13.7648 3.48045C13.3369 3.16824 12.8209 3 12.2911 3C11.7614 3 11.2454 3.16824 10.8175 3.48045C10.3895 3.79266 10.0718 4.23271 9.91012 4.73715L8.88194 7.94179H5.49677C4.9697 7.94254 4.45634 8.10983 4.03003 8.41977C3.60372 8.72972 3.28625 9.16645 3.12298 9.6676C2.95971 10.1687 2.95899 10.7087 3.12092 11.2103C3.28284 11.7118 3.59914 12.1494 4.02462 12.4605H4.02152Z" fill="#FFCB00"/>
</svg>
