<svg width="20" height="20" viewBox="0 0 20 20" fill="none" xmlns="http://www.w3.org/2000/svg">
<path d="M7.1875 10.625C6.63124 10.625 6.08747 10.4601 5.62496 10.151C5.16245 9.84197 4.80196 9.40271 4.58909 8.8888C4.37622 8.37488 4.32052 7.80938 4.42904 7.26381C4.53756 6.71824 4.80543 6.2171 5.19876 5.82376C5.5921 5.43043 6.09324 5.16256 6.63881 5.05404C7.18438 4.94552 7.74988 5.00122 8.2638 5.21409C8.77771 5.42696 9.21697 5.78745 9.52601 6.24996C9.83505 6.71247 10 7.25624 10 7.8125C9.99917 8.55817 9.70259 9.27306 9.17532 9.80032C8.64806 10.3276 7.93317 10.6242 7.1875 10.625ZM7.1875 6.25C6.87847 6.25 6.57637 6.34164 6.31942 6.51333C6.06247 6.68502 5.8622 6.92905 5.74394 7.21456C5.62568 7.50007 5.59473 7.81423 5.65502 8.11733C5.71531 8.42042 5.86413 8.69884 6.08265 8.91736C6.30116 9.13587 6.57958 9.28469 6.88267 9.34498C7.18577 9.40527 7.49993 9.37432 7.78544 9.25606C8.07095 9.1378 8.31498 8.93753 8.48667 8.68058C8.65836 8.42363 8.75 8.12153 8.75 7.8125C8.75 7.3981 8.58538 7.00067 8.29235 6.70765C7.99933 6.41462 7.6019 6.25 7.1875 6.25ZM11.875 16.875V16.5625C11.875 15.3193 11.3811 14.127 10.5021 13.2479C9.62299 12.3689 8.4307 11.875 7.1875 11.875C5.9443 11.875 4.75201 12.3689 3.87294 13.2479C2.99386 14.127 2.5 15.3193 2.5 16.5625L2.5 16.875C2.5 17.0408 2.56585 17.1997 2.68306 17.3169C2.80027 17.4342 2.95924 17.5 3.125 17.5C3.29076 17.5 3.44973 17.4342 3.56694 17.3169C3.68415 17.1997 3.75 17.0408 3.75 16.875V16.5625C3.75 15.6508 4.11216 14.7765 4.75682 14.1318C5.40148 13.4872 6.27582 13.125 7.1875 13.125C8.09918 13.125 8.97352 13.4872 9.61818 14.1318C10.2628 14.7765 10.625 15.6508 10.625 16.5625V16.875C10.625 17.0408 10.6908 17.1997 10.8081 17.3169C10.9253 17.4342 11.0842 17.5 11.25 17.5C11.4158 17.5 11.5747 17.4342 11.6919 17.3169C11.8092 17.1997 11.875 17.0408 11.875 16.875ZM17.5 13.75C17.5 12.9054 17.2555 12.0789 16.7961 11.3702C16.3366 10.6615 15.6819 10.101 14.9109 9.75623C14.1399 9.41147 13.2856 9.29724 12.4511 9.42734C11.6166 9.55743 10.8376 9.92629 10.2081 10.4894C10.1461 10.5439 10.0955 10.6101 10.0592 10.6843C10.023 10.7585 10.0017 10.8391 9.9968 10.9215C9.99186 11.0039 10.0033 11.0865 10.0305 11.1645C10.0576 11.2424 10.1 11.3142 10.155 11.3758C10.2101 11.4373 10.2768 11.4873 10.3513 11.5228C10.4258 11.5584 10.5066 11.5789 10.5891 11.5831C10.6716 11.5872 10.754 11.575 10.8317 11.5472C10.9095 11.5193 10.9809 11.4763 11.0419 11.4206C11.4915 11.0185 12.048 10.7551 12.644 10.6623C13.24 10.5694 13.8502 10.6511 14.4009 10.8974C14.9515 11.1437 15.4192 11.5441 15.7473 12.0503C16.0754 12.5564 16.25 13.1468 16.25 13.75C16.25 13.9158 16.3158 14.0747 16.4331 14.1919C16.5503 14.3092 16.7092 14.375 16.875 14.375C17.0408 14.375 17.1997 14.3092 17.3169 14.1919C17.4342 14.0747 17.5 13.9158 17.5 13.75ZM13.4375 8.125C12.8812 8.125 12.3375 7.96005 11.875 7.65101C11.4124 7.34197 11.052 6.90272 10.8391 6.3888C10.6262 5.87488 10.5705 5.30938 10.679 4.76381C10.7876 4.21824 11.0554 3.7171 11.4488 3.32376C11.8421 2.93043 12.3432 2.66256 12.8888 2.55404C13.4344 2.44552 13.9999 2.50122 14.5138 2.71409C15.0277 2.92696 15.467 3.28745 15.776 3.74996C16.085 4.21247 16.25 4.75624 16.25 5.3125C16.2492 6.05817 15.9526 6.77306 15.4253 7.30032C14.8981 7.82759 14.1832 8.12417 13.4375 8.125ZM13.4375 3.75C13.1285 3.75 12.8264 3.84164 12.5694 4.01333C12.3125 4.18502 12.1122 4.42905 11.9939 4.71456C11.8757 5.00007 11.8447 5.31423 11.905 5.61733C11.9653 5.92042 12.1141 6.19884 12.3326 6.41736C12.5512 6.63587 12.8296 6.78469 13.1327 6.84498C13.4358 6.90527 13.7499 6.87432 14.0354 6.75606C14.321 6.6378 14.565 6.43753 14.7367 6.18058C14.9084 5.92363 15 5.62153 15 5.3125C15 4.8981 14.8354 4.50067 14.5424 4.20765C14.2493 3.91462 13.8519 3.75 13.4375 3.75Z" fill="#8E8E8E"/>
</svg>
