<svg width="18" height="18" viewBox="0 0 18 18" fill="none" xmlns="http://www.w3.org/2000/svg">
<path d="M7.3125 10.125H10.6875C10.8367 10.125 10.9798 10.0657 11.0853 9.96025C11.1907 9.85476 11.25 9.71169 11.25 9.5625C11.25 9.41332 11.1907 9.27024 11.0853 9.16475C10.9798 9.05926 10.8367 9 10.6875 9H7.3125C7.16332 9 7.02024 9.05926 6.91475 9.16475C6.80926 9.27024 6.75 9.41332 6.75 9.5625C6.75 9.71169 6.80926 9.85476 6.91475 9.96025C7.02024 10.0657 7.16332 10.125 7.3125 10.125Z" fill="#494949"/>
<path d="M12.9375 2.25H5.0625C4.31685 2.25089 3.602 2.5475 3.07475 3.07475C2.5475 3.602 2.25089 4.31685 2.25 5.0625L2.25 5.625C2.25016 5.86223 2.30034 6.09676 2.39727 6.31329C2.49419 6.52981 2.63568 6.72347 2.8125 6.88163V12.9375C2.81339 13.6831 3.11 14.398 3.63725 14.9253C4.1645 15.4525 4.87935 15.7491 5.625 15.75H12.375C13.1206 15.7491 13.8355 15.4525 14.3628 14.9253C14.89 14.398 15.1866 13.6831 15.1875 12.9375V6.88163C15.3643 6.72347 15.5058 6.52981 15.6027 6.31329C15.6997 6.09676 15.7498 5.86223 15.75 5.625V5.0625C15.7491 4.31685 15.4525 3.602 14.9253 3.07475C14.398 2.5475 13.6831 2.25089 12.9375 2.25V2.25ZM3.375 5.0625C3.375 4.61495 3.55279 4.18572 3.86926 3.86926C4.18572 3.55279 4.61495 3.375 5.0625 3.375H12.9375C13.3851 3.375 13.8143 3.55279 14.1307 3.86926C14.4472 4.18572 14.625 4.61495 14.625 5.0625V5.625C14.625 5.77418 14.5657 5.91726 14.4602 6.02275C14.3548 6.12824 14.2117 6.1875 14.0625 6.1875H3.9375C3.78832 6.1875 3.64524 6.12824 3.53975 6.02275C3.43426 5.91726 3.375 5.77418 3.375 5.625V5.0625ZM14.0625 12.9375C14.0625 13.3851 13.8847 13.8143 13.5682 14.1307C13.2518 14.4472 12.8226 14.625 12.375 14.625H5.625C5.17745 14.625 4.74822 14.4472 4.43176 14.1307C4.11529 13.8143 3.9375 13.3851 3.9375 12.9375V7.3125H14.0625V12.9375Z" fill="#494949"/>
</svg>
