<svg width="18" height="18" viewBox="0 0 18 18" fill="none" xmlns="http://www.w3.org/2000/svg">
<path d="M6.98057 5.67185C6.92534 5.63192 6.8616 5.60637 6.79478 5.59737C6.72796 5.58838 6.66003 5.59619 6.59675 5.62016L4.49342 6.41744C4.4129 6.44796 4.34338 6.50332 4.29425 6.57603C4.24513 6.64874 4.21878 6.73531 4.21875 6.82402V9.48527C4.21874 9.55517 4.23508 9.62404 4.26639 9.68599C4.29769 9.74794 4.34302 9.80114 4.39852 9.84103C4.46875 9.89149 4.55223 9.9185 4.63774 9.91842C4.68748 9.91839 4.73683 9.9092 4.78345 9.89127L6.88678 9.08273C6.96684 9.05192 7.03589 8.99651 7.08463 8.92394C7.13338 8.85137 7.1595 8.7651 7.1595 8.67673V6.02732C7.15956 5.95754 7.14332 5.88878 7.11217 5.82689C7.08101 5.765 7.03587 5.71181 6.98057 5.67185V5.67185ZM6.32207 8.37526L5.05617 8.86212V7.12665L6.32207 6.64701V8.37526Z" fill="#494949"/>
<path d="M15.2624 13.0616L15.2655 13.0573C15.2738 13.0448 15.2813 13.0318 15.2881 13.0183C15.2898 13.0154 15.2912 13.0126 15.2926 13.0097C15.2994 12.9961 15.3054 12.9821 15.3107 12.9678C15.3109 12.9666 15.3109 12.9655 15.3107 12.9643C15.3158 12.9508 15.32 12.9369 15.3233 12.9228C15.3233 12.9199 15.325 12.9173 15.3255 12.9144C15.3289 12.8997 15.3317 12.8855 15.3336 12.8693V12.8607C15.3349 12.8464 15.3358 12.8323 15.3361 12.8182C15.3361 12.8168 15.3361 12.815 15.3361 12.8136V5.0291C15.3362 4.94034 15.3098 4.85371 15.2607 4.78094C15.2116 4.70816 15.142 4.65276 15.0615 4.62223L8.90893 2.29046C8.90279 2.28815 8.89637 2.2867 8.89023 2.28468C8.88409 2.28266 8.87264 2.27862 8.86371 2.27631L8.8411 2.27198C8.83217 2.27024 8.82351 2.26822 8.81319 2.26736C8.8055 2.26635 8.79776 2.26577 8.79002 2.26562C8.78108 2.26563 8.77215 2.26562 8.7621 2.26562C8.75205 2.26562 8.74647 2.26562 8.73865 2.26562C8.73084 2.26562 8.72107 2.26563 8.71241 2.26765C8.70376 2.26967 8.6965 2.27024 8.6884 2.27169C8.68031 2.27313 8.67166 2.27458 8.66328 2.27689C8.65491 2.2792 8.64654 2.28179 8.63844 2.28439C8.63035 2.28699 8.62504 2.28815 8.61834 2.29075L2.4658 4.62252C2.38529 4.6531 2.31579 4.70852 2.26672 4.78129C2.21764 4.85406 2.19135 4.94066 2.19141 5.02939V12.8185C2.19141 12.8328 2.19225 12.8469 2.19392 12.861C2.19392 12.8638 2.19392 12.8667 2.19392 12.8696C2.19566 12.8848 2.19827 12.8998 2.20174 12.9147L2.20397 12.923C2.20744 12.9371 2.21163 12.951 2.21653 12.9646C2.21653 12.9646 2.21653 12.9669 2.21653 12.9681C2.22184 12.9824 2.22789 12.9964 2.23467 13.01C2.23467 13.0128 2.23747 13.0157 2.23915 13.0186C2.24604 13.032 2.25358 13.045 2.26175 13.0576L2.26482 13.0619C2.27264 13.0735 2.28102 13.0847 2.28994 13.0954C2.29162 13.0975 2.2933 13.0998 2.29525 13.1018C2.30501 13.1131 2.31535 13.1239 2.32623 13.1341L2.33265 13.1402C2.3441 13.1503 2.35582 13.1601 2.36838 13.1691C2.38511 13.181 2.40265 13.1918 2.42087 13.2011H2.42365H2.42505C2.43426 13.2057 2.44375 13.2101 2.45296 13.2141L8.6055 15.729C8.65456 15.7485 8.70674 15.7583 8.75931 15.7578C8.81187 15.7583 8.86405 15.7485 8.91311 15.729L15.0657 13.2141C15.0749 13.2104 15.0838 13.206 15.0936 13.2017H15.0955H15.0972C15.1159 13.1922 15.1339 13.1813 15.1511 13.1691V13.1691C15.1636 13.1598 15.1754 13.15 15.1868 13.1402L15.1932 13.1341C15.2041 13.1239 15.2144 13.1131 15.2242 13.1018C15.2262 13.0998 15.2278 13.0975 15.2295 13.0954C15.2411 13.0848 15.2521 13.0736 15.2624 13.0616V13.0616ZM12.4917 11.4177L12.4574 11.4044L10.7607 10.7518V6.45588L12.4914 7.12379L12.4917 11.4177ZM14.5015 12.1904L13.3291 11.7397V6.82174C13.3292 6.73344 13.3031 6.64723 13.2545 6.57466C13.2058 6.5021 13.1369 6.44665 13.057 6.41574L10.4889 5.4247C10.4255 5.40028 10.3574 5.3921 10.2903 5.40085C10.2232 5.4096 10.1592 5.43502 10.1037 5.47495C10.0482 5.51484 10.0028 5.56803 9.97152 5.62998C9.94022 5.69194 9.92387 5.7608 9.92388 5.83071V10.4299L9.18639 10.1463V3.31701L14.5015 5.33172V12.1904ZM3.03414 5.33172L8.34897 3.31701V10.1463L3.03414 12.1904V5.33172ZM8.76768 14.8627L3.78418 12.826L8.76712 10.9095L10.196 11.4581L11.4427 11.9375L13.7501 12.8252L8.76768 14.8627Z" fill="#494949"/>
</svg>
