<svg width="18" height="18" viewBox="0 0 18 18" fill="none" xmlns="http://www.w3.org/2000/svg">
<path d="M8.65606 5.625C8.21109 5.625 7.77611 5.75695 7.40613 6.00416C7.03616 6.25137 6.74779 6.60274 6.57751 7.01384C6.40722 7.42494 6.36267 7.8773 6.44948 8.31372C6.53629 8.75014 6.75056 9.15102 7.06521 9.46566C7.37985 9.7803 7.78073 9.99458 8.21715 10.0814C8.65357 10.1682 9.10593 10.1236 9.51703 9.95336C9.92813 9.78307 10.2795 9.49471 10.5267 9.12473C10.7739 8.75475 10.9059 8.31978 10.9059 7.87481C10.9059 7.27812 10.6688 6.70587 10.2469 6.28395C9.825 5.86203 9.25275 5.625 8.65606 5.625ZM8.65606 8.99971C8.43358 8.99971 8.21609 8.93374 8.0311 8.81013C7.84611 8.68652 7.70193 8.51084 7.61679 8.30529C7.53164 8.09974 7.50937 7.87356 7.55277 7.65535C7.59618 7.43714 7.70331 7.2367 7.86063 7.07938C8.01796 6.92206 8.21839 6.81492 8.4366 6.77152C8.65481 6.72811 8.881 6.75039 9.08655 6.83553C9.2921 6.92067 9.46778 7.06485 9.59139 7.24984C9.71499 7.43483 9.78097 7.65232 9.78097 7.87481C9.78097 8.17315 9.66245 8.45927 9.45149 8.67023C9.24053 8.88119 8.95441 8.99971 8.65606 8.99971Z" fill="#494949"/>
<path d="M8.65545 15.75C8.18184 15.7524 7.71453 15.6413 7.29267 15.426C6.87081 15.2107 6.50666 14.8975 6.23072 14.5126C4.08722 11.5558 3 9.33295 3 7.90545C3 6.40553 3.59584 4.96705 4.65644 3.90644C5.71705 2.84584 7.15553 2.25 8.65545 2.25C10.1554 2.25 11.5939 2.84584 12.6545 3.90644C13.7151 4.96705 14.3109 6.40553 14.3109 7.90545C14.3109 9.33295 13.2237 11.5558 11.0802 14.5126C10.8042 14.8975 10.4401 15.2107 10.0182 15.426C9.59637 15.6413 9.12907 15.7524 8.65545 15.75ZM8.65545 3.47783C7.48129 3.47917 6.3556 3.9462 5.52534 4.77646C4.69508 5.60672 4.22805 6.73241 4.22671 7.90657C4.22671 9.0371 5.29143 11.1277 7.22401 13.7932C7.38808 14.0192 7.60331 14.2031 7.85211 14.3299C8.10091 14.4567 8.3762 14.5229 8.65545 14.5229C8.93471 14.5229 9.21 14.4567 9.4588 14.3299C9.70759 14.2031 9.92283 14.0192 10.0869 13.7932C12.0195 11.1277 13.0842 9.0371 13.0842 7.90657C13.0829 6.73241 12.6158 5.60672 11.7856 4.77646C10.9553 3.9462 9.82962 3.47917 8.65545 3.47783Z" fill="#363636"/>
</svg>
