<svg width="18" height="18" viewBox="0 0 18 18" fill="none" xmlns="http://www.w3.org/2000/svg">
<path d="M6.46875 9.5625C5.96812 9.5625 5.47872 9.41405 5.06246 9.13591C4.6462 8.85777 4.32176 8.46244 4.13018 7.99992C3.9386 7.53739 3.88847 7.02844 3.98614 6.53743C4.08381 6.04641 4.32488 5.59539 4.67889 5.24139C5.03289 4.88739 5.48391 4.64631 5.97493 4.54864C6.46594 4.45097 6.97489 4.5011 7.43742 4.69268C7.89994 4.88427 8.29527 5.2087 8.57341 5.62496C8.85154 6.04123 9 6.53062 9 7.03125C8.99925 7.70235 8.73233 8.34575 8.25779 8.82029C7.78325 9.29483 7.13985 9.56176 6.46875 9.5625ZM6.46875 5.625C6.19062 5.625 5.91874 5.70748 5.68748 5.862C5.45622 6.01652 5.27598 6.23614 5.16954 6.4931C5.06311 6.75006 5.03526 7.03281 5.08952 7.3056C5.14378 7.57838 5.27771 7.82895 5.47438 8.02562C5.67105 8.22229 5.92162 8.35622 6.1944 8.41048C6.46719 8.46474 6.74994 8.43689 7.0069 8.33046C7.26386 8.22402 7.48348 8.04378 7.638 7.81252C7.79252 7.58126 7.875 7.30938 7.875 7.03125C7.875 6.65829 7.72684 6.3006 7.46312 6.03688C7.1994 5.77316 6.84171 5.625 6.46875 5.625ZM10.6875 15.1875V14.9062C10.6875 13.7874 10.243 12.7143 9.45186 11.9231C8.66069 11.132 7.58763 10.6875 6.46875 10.6875C5.34987 10.6875 4.27681 11.132 3.48564 11.9231C2.69447 12.7143 2.25 13.7874 2.25 14.9062L2.25 15.1875C2.25 15.3367 2.30926 15.4798 2.41475 15.5852C2.52024 15.6907 2.66332 15.75 2.8125 15.75C2.96168 15.75 3.10476 15.6907 3.21025 15.5852C3.31574 15.4798 3.375 15.3367 3.375 15.1875V14.9062C3.375 14.0857 3.70095 13.2988 4.28114 12.7186C4.86133 12.1384 5.64824 11.8125 6.46875 11.8125C7.28926 11.8125 8.07617 12.1384 8.65636 12.7186C9.23655 13.2988 9.5625 14.0857 9.5625 14.9062V15.1875C9.5625 15.3367 9.62176 15.4798 9.72725 15.5852C9.83274 15.6907 9.97581 15.75 10.125 15.75C10.2742 15.75 10.4173 15.6907 10.5227 15.5852C10.6282 15.4798 10.6875 15.3367 10.6875 15.1875ZM15.75 12.375C15.75 11.6149 15.5299 10.871 15.1165 10.2332C14.703 9.59539 14.1137 9.09089 13.4198 8.78061C12.7259 8.47032 11.957 8.36752 11.206 8.4846C10.4549 8.60169 9.75384 8.93366 9.18731 9.44044C9.13149 9.48949 9.08595 9.54911 9.0533 9.61586C9.02066 9.68262 9.00156 9.75518 8.99712 9.82935C8.99268 9.90352 9.00297 9.97784 9.02742 10.048C9.05186 10.1182 9.08997 10.1828 9.13953 10.2382C9.1891 10.2935 9.24914 10.3385 9.31619 10.3706C9.38325 10.4026 9.45598 10.421 9.53019 10.4248C9.6044 10.4285 9.67863 10.4175 9.74857 10.3924C9.81851 10.3673 9.88279 10.3286 9.93769 10.2786C10.3424 9.91666 10.8432 9.67962 11.3796 9.59606C11.916 9.5125 12.4652 9.58598 12.9608 9.80764C13.4564 10.0293 13.8772 10.3897 14.1725 10.8452C14.4678 11.3008 14.625 11.8321 14.625 12.375C14.625 12.5242 14.6843 12.6673 14.7898 12.7727C14.8952 12.8782 15.0383 12.9375 15.1875 12.9375C15.3367 12.9375 15.4798 12.8782 15.5852 12.7727C15.6907 12.6673 15.75 12.5242 15.75 12.375ZM12.0937 7.3125C11.5931 7.3125 11.1037 7.16405 10.6875 6.88591C10.2712 6.60777 9.94676 6.21244 9.75518 5.74992C9.56359 5.28739 9.51347 4.77844 9.61114 4.28743C9.70881 3.79641 9.94988 3.34539 10.3039 2.99139C10.6579 2.63739 11.1089 2.39631 11.5999 2.29864C12.0909 2.20097 12.5999 2.2511 13.0624 2.44268C13.5249 2.63427 13.9203 2.9587 14.1984 3.37496C14.4765 3.79123 14.625 4.28062 14.625 4.78125C14.6243 5.45235 14.3573 6.09575 13.8828 6.57029C13.4083 7.04483 12.7648 7.31176 12.0937 7.3125ZM12.0937 3.375C11.8156 3.375 11.5437 3.45748 11.3125 3.612C11.0812 3.76652 10.901 3.98614 10.7945 4.2431C10.6881 4.50006 10.6603 4.78281 10.7145 5.0556C10.7688 5.32838 10.9027 5.57895 11.0994 5.77562C11.296 5.97229 11.5466 6.10622 11.8194 6.16048C12.0922 6.21474 12.3749 6.18689 12.6319 6.08046C12.8889 5.97402 13.1085 5.79378 13.263 5.56252C13.4175 5.33126 13.5 5.05938 13.5 4.78125C13.5 4.40829 13.3518 4.05061 13.0881 3.78688C12.8244 3.52316 12.4667 3.375 12.0937 3.375Z" fill="#494949"/>
</svg>
