<svg width="20" height="20" viewBox="0 0 20 20" fill="none" xmlns="http://www.w3.org/2000/svg">
<path d="M17.4857 9.53734C17.3954 8.07631 16.8795 6.67365 16.0017 5.50226C15.1239 4.33088 13.9224 3.44199 12.5455 2.94518C11.1686 2.44836 9.67634 2.36534 8.2528 2.70635C6.82926 3.04736 5.53663 3.7975 4.53427 4.86427C3.5319 5.93105 2.86362 7.26783 2.61181 8.70983C2.36 10.1518 2.53567 11.636 3.11716 12.9793C3.69865 14.3227 4.66055 15.4665 5.88426 16.2698C7.10798 17.0731 8.54001 17.5007 10.0038 17.5H14.3638C15.1916 17.4992 15.9851 17.17 16.5704 16.5847C17.1557 15.9994 17.4849 15.2058 17.4857 14.3781V9.53734ZM16.237 14.3781C16.237 14.8749 16.0396 15.3513 15.6883 15.7026C15.3371 16.0539 14.8606 16.2512 14.3638 16.2512H10.0038C9.12279 16.2508 8.25173 16.0648 7.44744 15.7051C6.64316 15.3455 5.9237 14.8203 5.33599 14.164C4.74544 13.5079 4.30198 12.7332 4.03535 11.8917C3.76872 11.0503 3.68508 10.1615 3.79004 9.28509C3.95577 7.90269 4.57687 6.61475 5.55543 5.62433C6.53398 4.6339 7.81433 3.99732 9.19464 3.81494C9.46389 3.78119 9.73497 3.76409 10.0063 3.76374C11.4614 3.75977 12.8715 4.26817 13.9892 5.1998C14.642 5.74235 15.1778 6.41181 15.5642 7.1676C15.9506 7.92339 16.1795 8.74978 16.237 9.59665V14.3781Z" fill="white"/>
<path d="M7.49547 8.13351H9.99298C10.1586 8.13351 10.3174 8.06773 10.4345 7.95064C10.5516 7.83355 10.6174 7.67473 10.6174 7.50914C10.6174 7.34355 10.5516 7.18473 10.4345 7.06764C10.3174 6.95055 10.1586 6.88477 9.99298 6.88477H7.49547C7.32988 6.88477 7.17106 6.95055 7.05397 7.06764C6.93688 7.18473 6.87109 7.34355 6.87109 7.50914C6.87109 7.67473 6.93688 7.83355 7.05397 7.95064C7.17106 8.06773 7.32988 8.13351 7.49547 8.13351Z" fill="white"/>
<path d="M12.4905 9.38281H7.49547C7.32987 9.38281 7.17106 9.44859 7.05397 9.56569C6.93688 9.68278 6.87109 9.84159 6.87109 10.0072C6.87109 10.1728 6.93688 10.3316 7.05397 10.4487C7.17106 10.5658 7.32987 10.6316 7.49547 10.6316H12.4905C12.6561 10.6316 12.8149 10.5658 12.932 10.4487C13.0491 10.3316 13.1148 10.1728 13.1148 10.0072C13.1148 9.84159 13.0491 9.68278 12.932 9.56569C12.8149 9.44859 12.6561 9.38281 12.4905 9.38281Z" fill="white"/>
<path d="M12.4905 11.8809H7.49547C7.32987 11.8809 7.17106 11.9466 7.05397 12.0637C6.93688 12.1808 6.87109 12.3396 6.87109 12.5052C6.87109 12.6708 6.93688 12.8296 7.05397 12.9467C7.17106 13.0638 7.32987 13.1296 7.49547 13.1296H12.4905C12.6561 13.1296 12.8149 13.0638 12.932 12.9467C13.0491 12.8296 13.1148 12.6708 13.1148 12.5052C13.1148 12.3396 13.0491 12.1808 12.932 12.0637C12.8149 11.9466 12.6561 11.8809 12.4905 11.8809Z" fill="white"/>
</svg>
