<svg width="20" height="20" viewBox="0 0 20 20" fill="none" xmlns="http://www.w3.org/2000/svg">
<path d="M10.8207 2.5132C11.0874 2.5133 11.3502 2.57688 11.5874 2.69866C11.8246 2.82045 12.0294 2.99694 12.1849 3.21357C12.3404 3.43019 12.4421 3.68071 12.4816 3.94441C12.5211 4.20812 12.4972 4.47744 12.412 4.73011L11.1995 8.13829L13.6527 8.13829L14.3277 7.10952C14.4981 6.84918 14.7307 6.63544 15.0045 6.48768C15.2783 6.33991 15.5847 6.26277 15.8958 6.26326C16.1528 6.26331 16.406 6.32536 16.6339 6.44415C16.8618 6.56295 17.0577 6.73498 17.205 6.94564C17.3522 7.1563 17.4464 7.39937 17.4796 7.65422C17.5129 7.90907 17.4841 8.16817 17.3958 8.40954L16.814 10.0133L17.4021 11.6133C17.4906 11.8543 17.5197 12.113 17.4869 12.3676C17.4542 12.6222 17.3606 12.8652 17.214 13.0759C17.0398 13.2984 16.8146 13.4756 16.5573 13.5925C16.3001 13.7094 16.0184 13.7625 15.7362 13.7474C15.4541 13.7322 15.1797 13.6493 14.9365 13.5055C14.6932 13.3617 14.4882 13.1614 14.3389 12.9215L13.6545 11.8883L11.1995 11.8883L12.4095 15.2865C12.4961 15.5405 12.521 15.8114 12.4819 16.0768C12.4429 16.3422 12.3412 16.5946 12.1851 16.8128C11.9993 17.0489 11.7573 17.2347 11.4813 17.3534C11.2053 17.4721 10.904 17.5199 10.6048 17.4925C10.3056 17.465 10.018 17.3632 9.76817 17.1962C9.51836 17.0293 9.31427 16.8025 9.17446 16.5365L6.51379 11.8884L4.44313 11.8884C3.9911 11.894 3.55146 11.7407 3.20106 11.455C2.85066 11.1694 2.61179 10.7697 2.52622 10.3258C2.48076 10.0569 2.49453 9.78121 2.56657 9.51811C2.63862 9.25502 2.7672 9.01081 2.94335 8.80253C3.11949 8.59424 3.33897 8.4269 3.58645 8.31218C3.83394 8.19745 4.10347 8.13811 4.37626 8.13829L6.51379 8.13829L9.18071 3.47946C9.34238 3.1862 9.5799 2.94178 9.86843 2.77179C10.1569 2.60179 10.4859 2.51248 10.8207 2.5132ZM13.9902 9.38831L10.3139 9.38831C10.2141 9.38745 10.1159 9.36286 10.0276 9.31656C9.93916 9.27027 9.86306 9.2036 9.80553 9.12208C9.748 9.04055 9.71071 8.9465 9.69672 8.84771C9.68273 8.74892 9.69246 8.64821 9.72509 8.55392L11.2314 4.32073C11.2515 4.25723 11.2563 4.18988 11.2455 4.12417C11.2346 4.05845 11.2084 3.99624 11.1689 3.9426C11.1058 3.88014 11.0289 3.83348 10.9444 3.80644C10.8599 3.77939 10.7701 3.77273 10.6826 3.78699C10.595 3.80125 10.512 3.83604 10.4404 3.8885C10.3688 3.94096 10.3107 4.00962 10.2707 4.08885L7.41881 9.0758C7.36385 9.171 7.28475 9.25002 7.1895 9.30488C7.09425 9.35975 6.98622 9.38853 6.8763 9.38831L4.37626 9.38831C4.28489 9.38827 4.19463 9.40826 4.11183 9.44687C4.02903 9.48549 3.9557 9.54178 3.89701 9.6118C3.83832 9.68181 3.79569 9.76384 3.77212 9.85211C3.74856 9.94038 3.74463 10.0327 3.76062 10.1227C3.79764 10.2741 3.88576 10.408 4.0101 10.502C4.13445 10.5959 4.2874 10.6441 4.44313 10.6383L6.8763 10.6383C6.98622 10.6381 7.09425 10.6669 7.1895 10.7218C7.28475 10.7766 7.36385 10.8556 7.41881 10.9508L10.2657 15.9265C10.3037 16.0084 10.3609 16.0798 10.4325 16.1347C10.5041 16.1896 10.5879 16.2264 10.6767 16.2419C10.7656 16.2573 10.8569 16.2511 10.9428 16.2236C11.0287 16.1961 11.1067 16.1482 11.1701 16.084C11.2101 16.0287 11.2362 15.9646 11.2464 15.897C11.2565 15.8295 11.2503 15.7605 11.2282 15.6959L9.72822 11.4727C9.69566 11.3787 9.6859 11.2782 9.69972 11.1797C9.71354 11.0811 9.75056 10.9873 9.80774 10.9058C9.86491 10.8244 9.9406 10.7576 10.0286 10.7111C10.1166 10.6646 10.2143 10.6397 10.3139 10.6383L13.9902 10.6383C14.0934 10.6383 14.1951 10.6639 14.286 10.7127C14.377 10.7616 14.4544 10.8322 14.5114 10.9183L15.3821 12.2309C15.5246 12.494 16.0283 12.629 16.1883 12.3621C16.221 12.3165 16.2418 12.2635 16.2489 12.2079C16.256 12.1522 16.2492 12.0957 16.229 12.0434L15.5589 10.2271C15.5078 10.0879 15.5078 9.93502 15.5589 9.79582L16.2252 7.97704C16.2438 7.92471 16.2495 7.86869 16.242 7.81367C16.2345 7.75866 16.2139 7.70625 16.1819 7.66083C16.15 7.61542 16.1076 7.57832 16.0584 7.55265C16.0091 7.52697 15.9545 7.51347 15.8989 7.51328C15.7951 7.51322 15.693 7.53902 15.6016 7.58834C15.5103 7.63767 15.4327 7.70896 15.3758 7.79578L14.5158 9.1083C14.4584 9.19502 14.3803 9.26605 14.2885 9.31494C14.1967 9.36383 14.0942 9.38905 13.9902 9.38831Z" fill="white"/>
</svg>
