<svg width="18" height="18" viewBox="0 0 18 18" fill="none" xmlns="http://www.w3.org/2000/svg">
<path d="M8.26134 15.7381C8.02135 15.738 7.78484 15.6808 7.57135 15.5712C7.35786 15.4616 7.17352 15.3028 7.03358 15.1078C6.89364 14.9128 6.80212 14.6874 6.76657 14.45C6.73103 14.2127 6.7525 13.9703 6.82919 13.7429L7.92046 10.6755H5.71261L5.1051 11.6014C4.95175 11.8357 4.74238 12.0281 4.49594 12.1611C4.24951 12.2941 3.97379 12.3635 3.69376 12.3631C3.46245 12.363 3.23457 12.3072 3.02945 12.2003C2.82434 12.0933 2.64805 11.9385 2.51554 11.7489C2.38304 11.5593 2.29823 11.3406 2.26832 11.1112C2.23841 10.8818 2.26428 10.6486 2.34374 10.4314L2.86743 8.98801L2.33811 7.54799C2.25847 7.33113 2.23227 7.09827 2.26175 6.86914C2.29122 6.64001 2.37549 6.42136 2.50743 6.23172C2.66417 6.03146 2.8669 5.87195 3.09843 5.76674C3.32995 5.66153 3.58344 5.61371 3.83738 5.62735C4.09133 5.64098 4.33823 5.71567 4.55716 5.84507C4.77609 5.97447 4.96058 6.15476 5.09497 6.37066L5.71092 7.30049H7.92046L6.83144 4.24212C6.75348 4.01359 6.73113 3.76977 6.76625 3.53087C6.80137 3.29198 6.89295 3.0649 7.03338 2.86848C7.20066 2.65602 7.41842 2.48876 7.66683 2.38193C7.91525 2.2751 8.18644 2.23208 8.45572 2.25678C8.725 2.28149 8.98383 2.37315 9.20865 2.5234C9.43348 2.67366 9.61716 2.87775 9.74299 3.11711L12.1376 7.30049H14.0012C14.408 7.29537 14.8037 7.43341 15.119 7.69047C15.4344 7.94753 15.6494 8.30726 15.7264 8.70676C15.7673 8.94883 15.7549 9.19691 15.6901 9.4337C15.6252 9.67049 15.5095 9.89027 15.351 10.0777C15.1925 10.2652 14.9949 10.4158 14.7722 10.519C14.5495 10.6223 14.3069 10.6757 14.0614 10.6755H12.1376L9.73736 14.8685C9.59186 15.1324 9.37809 15.3524 9.11842 15.5054C8.85875 15.6584 8.56272 15.7388 8.26134 15.7381ZM5.40885 9.55052H8.71753C8.80733 9.5513 8.89565 9.57343 8.9752 9.61509C9.05476 9.65676 9.12325 9.71676 9.17502 9.79013C9.2268 9.8635 9.26036 9.94815 9.27295 10.0371C9.28554 10.126 9.27679 10.2166 9.24742 10.3015L7.89177 14.1113C7.87365 14.1685 7.86931 14.2291 7.87908 14.2882C7.88886 14.3474 7.91248 14.4034 7.94802 14.4517C8.00475 14.5079 8.07399 14.5499 8.15005 14.5742C8.22612 14.5985 8.30687 14.6045 8.3857 14.5917C8.46453 14.5789 8.53921 14.5476 8.60362 14.5003C8.66804 14.4531 8.72037 14.3913 8.75634 14.32L11.3231 9.83178C11.3725 9.7461 11.4437 9.67499 11.5294 9.62561C11.6152 9.57623 11.7124 9.55033 11.8113 9.55052H14.0614C14.1436 9.55056 14.2248 9.53257 14.2993 9.49781C14.3739 9.46306 14.4399 9.4124 14.4927 9.34938C14.5455 9.28637 14.5839 9.21254 14.6051 9.1331C14.6263 9.05366 14.6298 8.97053 14.6154 8.88957C14.5821 8.75333 14.5028 8.63276 14.3909 8.54821C14.279 8.46367 14.1413 8.42032 14.0012 8.4255H11.8113C11.7124 8.4257 11.6152 8.3998 11.5294 8.35042C11.4437 8.30104 11.3725 8.22992 11.3231 8.14425L8.76084 3.66611C8.72668 3.59247 8.67518 3.52819 8.61077 3.47877C8.54635 3.42935 8.47093 3.39626 8.39095 3.38233C8.31096 3.3684 8.2288 3.37405 8.15147 3.39878C8.07414 3.42351 8.00395 3.4666 7.94689 3.52436C7.91091 3.57418 7.88738 3.63189 7.87828 3.69266C7.86918 3.75344 7.87477 3.81551 7.89458 3.87368L9.2446 7.67455C9.2739 7.75919 9.28269 7.84958 9.27025 7.93828C9.25781 8.02698 9.22449 8.11145 9.17304 8.18477C9.12158 8.25808 9.05346 8.31813 8.97427 8.35998C8.89508 8.40183 8.80709 8.42429 8.71753 8.4255H5.40885C5.31592 8.42552 5.22444 8.40251 5.14257 8.35853C5.06071 8.31456 4.99101 8.25099 4.93972 8.1735L4.15614 6.99223C4.02789 6.75541 3.57451 6.63391 3.43051 6.8741C3.40109 6.91514 3.38235 6.96284 3.37597 7.01292C3.36959 7.063 3.37576 7.11388 3.39394 7.16098L3.99695 8.79563C4.043 8.92091 4.043 9.05849 3.99695 9.18377L3.39732 10.8207C3.3806 10.8678 3.37541 10.9182 3.38218 10.9677C3.38896 11.0172 3.4075 11.0644 3.43626 11.1053C3.46501 11.1461 3.50314 11.1795 3.54745 11.2026C3.59177 11.2257 3.64097 11.2379 3.69095 11.238C3.78437 11.2381 3.87633 11.2149 3.95853 11.1705C4.04072 11.1261 4.11057 11.0619 4.16177 10.9838L4.93578 9.80253C4.98744 9.72448 5.05776 9.66056 5.14037 9.61655C5.22298 9.57255 5.31526 9.54985 5.40885 9.55052Z" fill="#494949"/>
</svg>
