<svg width="20" height="20" viewBox="0 0 20 20" fill="none" xmlns="http://www.w3.org/2000/svg">
<path d="M9.58203 3.125V6.875C9.58113 7.59513 9.33198 8.29293 8.87659 8.85078C8.42119 9.40864 7.7874 9.79244 7.08203 9.9375V16.875C7.08203 17.0408 7.01619 17.1997 6.89897 17.3169C6.78176 17.4342 6.62279 17.5 6.45703 17.5C6.29127 17.5 6.1323 17.4342 6.01509 17.3169C5.89788 17.1997 5.83203 17.0408 5.83203 16.875V9.9375C5.12667 9.79244 4.49287 9.40864 4.03748 8.85078C3.58209 8.29293 3.33294 7.59513 3.33203 6.875V3.125C3.33203 2.95924 3.39788 2.80027 3.51509 2.68306C3.6323 2.56585 3.79127 2.5 3.95703 2.5C4.12279 2.5 4.28176 2.56585 4.39897 2.68306C4.51618 2.80027 4.58203 2.95924 4.58203 3.125V6.875C4.58363 7.26141 4.70458 7.63789 4.92834 7.95294C5.15209 8.26798 5.46771 8.5062 5.83203 8.635V3.125C5.83203 2.95924 5.89788 2.80027 6.01509 2.68306C6.1323 2.56585 6.29127 2.5 6.45703 2.5C6.62279 2.5 6.78176 2.56585 6.89897 2.68306C7.01619 2.80027 7.08203 2.95924 7.08203 3.125V8.635C7.44635 8.5062 7.76198 8.26798 7.98573 7.95294C8.20948 7.63789 8.33043 7.26141 8.33203 6.875V3.125C8.33203 2.95924 8.39788 2.80027 8.51509 2.68306C8.6323 2.56585 8.79127 2.5 8.95703 2.5C9.12279 2.5 9.28177 2.56585 9.39898 2.68306C9.51619 2.80027 9.58203 2.95924 9.58203 3.125V3.125ZM15.832 8.75C15.8041 9.93778 15.5086 11.104 14.9675 12.1617C14.4265 13.2195 13.6538 14.1416 12.707 14.8594V16.875C12.707 17.0408 12.6412 17.1997 12.524 17.3169C12.4068 17.4342 12.2478 17.5 12.082 17.5C11.9163 17.5 11.7573 17.4342 11.6401 17.3169C11.5229 17.1997 11.457 17.0408 11.457 16.875V3.75C11.4514 3.51516 11.5156 3.28394 11.6414 3.08558C11.7673 2.88722 11.9491 2.73063 12.1639 2.63562C12.4107 2.53523 12.6814 2.50889 12.9429 2.55984C13.2044 2.61079 13.4454 2.73681 13.6364 2.9225C15.086 4.5131 15.8717 6.59831 15.832 8.75V8.75ZM14.582 8.75C14.5998 6.9201 13.9307 5.15005 12.707 3.78937V13.1687C13.8783 11.9926 14.5501 10.4096 14.582 8.75Z" fill="white"/>
</svg>
