<svg width="20" height="20" viewBox="0 0 20 20" fill="none" xmlns="http://www.w3.org/2000/svg">
<path d="M14.375 5.83399H10.625C10.0543 5.83608 9.49505 5.99484 9.00835 6.29296C8.52166 6.59109 8.12616 7.01712 7.865 7.52461C7.49025 7.2401 7.03301 7.08542 6.5625 7.08399C5.98234 7.08399 5.42594 7.31445 5.0157 7.72469C4.60547 8.13493 4.375 8.69133 4.375 9.27149C4.37683 9.59649 4.45181 9.91692 4.59438 10.209H3.75V3.95898C3.75 3.79322 3.68415 3.63425 3.56694 3.51704C3.44973 3.39983 3.29076 3.33398 3.125 3.33398C2.95924 3.33398 2.80027 3.39983 2.68306 3.51704C2.56585 3.63425 2.5 3.79322 2.5 3.95898V15.209C2.5 15.3748 2.56585 15.5337 2.68306 15.6509C2.80027 15.7681 2.95924 15.834 3.125 15.834C3.29076 15.834 3.44973 15.7681 3.56694 15.6509C3.68415 15.5337 3.75 15.3748 3.75 15.209V13.959H16.25V15.209C16.25 15.3748 16.3158 15.5337 16.4331 15.6509C16.5503 15.7681 16.7092 15.834 16.875 15.834C17.0408 15.834 17.1997 15.7681 17.3169 15.6509C17.4342 15.5337 17.5 15.3748 17.5 15.209V8.95899C17.499 8.13049 17.1694 7.33621 16.5836 6.75037C15.9978 6.16454 15.2035 5.83498 14.375 5.83399ZM8.75 8.95899C8.75 8.46171 8.94754 7.98479 9.29917 7.63316C9.65081 7.28153 10.1277 7.08399 10.625 7.08399H14.375C14.8723 7.08399 15.3492 7.28153 15.7008 7.63316C16.0525 7.98479 16.25 8.46171 16.25 8.95899V10.209H8.75V8.95899ZM5.625 9.27149C5.625 9.08607 5.67998 8.90481 5.783 8.75064C5.88601 8.59647 6.03243 8.47631 6.20373 8.40535C6.37504 8.33439 6.56354 8.31583 6.7454 8.352C6.92725 8.38817 7.0943 8.47746 7.22541 8.60857C7.35652 8.73969 7.44581 8.90673 7.48199 9.08859C7.51816 9.27045 7.49959 9.45895 7.42864 9.63025C7.35768 9.80156 7.23752 9.94798 7.08335 10.051C6.92918 10.154 6.74792 10.209 6.5625 10.209C6.31386 10.209 6.0754 10.1102 5.89959 9.9344C5.72377 9.75859 5.625 9.52013 5.625 9.27149ZM3.75 12.709V11.459H16.25V12.709H3.75Z" fill="white"/>
</svg>
