<svg width="24" height="24" viewBox="0 0 24 24" fill="none" xmlns="http://www.w3.org/2000/svg">
<path d="M16.1233 4C15.2791 4.01313 14.4534 4.24879 13.7294 4.68318C13.0054 5.11757 12.4089 5.7353 12 6.474C11.5911 5.7353 10.9946 5.11757 10.2706 4.68318C9.54665 4.24879 8.72086 4.01313 7.87666 4C6.53091 4.05847 5.263 4.64718 4.34992 5.63752C3.43685 6.62785 2.95284 7.93931 3.00363 9.28537C3.00363 14.3646 11.2173 20.231 11.5667 20.4799L12 20.7865L12.4333 20.4799C12.7827 20.2325 20.9964 14.3646 20.9964 9.28537C21.0472 7.93931 20.5632 6.62785 19.6501 5.63752C18.737 4.64718 17.4691 4.05847 16.1233 4ZM12 18.9407C9.56123 17.119 4.50302 12.6433 4.50302 9.28537C4.45178 8.33679 4.77769 7.40643 5.40968 6.69719C6.04167 5.98795 6.92847 5.55739 7.87666 5.4994C8.82486 5.55739 9.71165 5.98795 10.3436 6.69719C10.9756 7.40643 11.3016 8.33679 11.2503 9.28537H12.7497C12.6984 8.33679 13.0244 7.40643 13.6564 6.69719C14.2883 5.98795 15.1751 5.55739 16.1233 5.4994C17.0715 5.55739 17.9583 5.98795 18.5903 6.69719C19.2223 7.40643 19.5482 8.33679 19.497 9.28537C19.497 12.6448 14.4388 17.119 12 18.9407Z" fill="#494949"/>
</svg>
