<svg width="24" height="24" viewBox="0 0 24 24" fill="none" xmlns="http://www.w3.org/2000/svg">
<path d="M18.5 21H17V17.2178C16.9994 16.6297 16.7656 16.066 16.3498 15.6502C15.934 15.2344 15.3702 15.0006 14.7822 15H8.71775C8.12975 15.0006 7.566 15.2344 7.15022 15.6502C6.73444 16.066 6.5006 16.6297 6.5 17.2178V21H5V17.2178C5.00119 16.2321 5.39326 15.2872 6.09022 14.5902C6.78717 13.8933 7.73211 13.5012 8.71775 13.5H14.7822C15.7679 13.5012 16.7128 13.8933 17.4098 14.5902C18.1067 15.2872 18.4988 16.2321 18.5 17.2178V21Z" fill="#494949"/>
<path d="M11.75 12C10.86 12 9.98996 11.7361 9.24993 11.2416C8.50991 10.7471 7.93314 10.0443 7.59254 9.22208C7.25195 8.39981 7.16283 7.49501 7.33647 6.62209C7.5101 5.74918 7.93868 4.94736 8.56802 4.31802C9.19736 3.68868 9.99918 3.2601 10.8721 3.08647C11.745 2.91283 12.6498 3.00195 13.4721 3.34254C14.2943 3.68314 14.9971 4.25991 15.4916 4.99994C15.9861 5.73996 16.25 6.60999 16.25 7.5C16.2488 8.69311 15.7743 9.83701 14.9307 10.6807C14.087 11.5243 12.9431 11.9988 11.75 12ZM11.75 4.5C11.1567 4.5 10.5766 4.67595 10.0833 5.00559C9.58994 5.33524 9.20543 5.80377 8.97836 6.35195C8.7513 6.90013 8.69189 7.50333 8.80765 8.08527C8.9234 8.66721 9.20912 9.20176 9.62868 9.62132C10.0482 10.0409 10.5828 10.3266 11.1647 10.4424C11.7467 10.5581 12.3499 10.4987 12.898 10.2716C13.4462 10.0446 13.9148 9.66006 14.2444 9.16671C14.5741 8.67336 14.75 8.09334 14.75 7.5C14.75 6.70435 14.4339 5.94129 13.8713 5.37868C13.3087 4.81607 12.5456 4.5 11.75 4.5Z" fill="#494949"/>
</svg>
