<svg width="20" height="20" viewBox="0 0 20 20" fill="none" xmlns="http://www.w3.org/2000/svg">
<path d="M16.9516 9.29464L14.5326 6.85089C14.4745 6.79231 14.4053 6.74581 14.3292 6.71408C14.253 6.68235 14.1713 6.66602 14.0888 6.66602C14.0063 6.66602 13.9246 6.68235 13.8484 6.71408C13.7722 6.74581 13.7031 6.79231 13.645 6.85089C13.5286 6.96799 13.4632 7.1264 13.4632 7.29151C13.4632 7.45663 13.5286 7.61504 13.645 7.73214L15.8702 9.97589H3.12507C2.95929 9.97589 2.8003 10.0417 2.68308 10.1589C2.56586 10.2762 2.5 10.4351 2.5 10.6009V10.6009C2.5 10.7666 2.56586 10.9256 2.68308 11.0428C2.8003 11.16 2.95929 11.2259 3.12507 11.2259H15.9077L13.645 13.4821C13.5864 13.5402 13.5399 13.6094 13.5082 13.6855C13.4764 13.7617 13.4601 13.8434 13.4601 13.9259C13.4601 14.0084 13.4764 14.0901 13.5082 14.1662C13.5399 14.2424 13.5864 14.3115 13.645 14.3696C13.7031 14.4282 13.7722 14.4747 13.8484 14.5064C13.9246 14.5382 14.0063 14.5545 14.0888 14.5545C14.1713 14.5545 14.253 14.5382 14.3292 14.5064C14.4053 14.4747 14.4745 14.4282 14.5326 14.3696L16.9516 11.9446C17.3028 11.5931 17.5 11.1165 17.5 10.6196C17.5 10.1228 17.3028 9.6462 16.9516 9.29464Z" fill="#363636"/>
</svg>
