<svg width="20" height="20" viewBox="0 0 20 20" fill="none" xmlns="http://www.w3.org/2000/svg">
<path d="M14.375 3.75H13.75V3.125C13.75 2.95924 13.6842 2.80027 13.5669 2.68306C13.4497 2.56585 13.2908 2.5 13.125 2.5C12.9592 2.5 12.8003 2.56585 12.6831 2.68306C12.5658 2.80027 12.5 2.95924 12.5 3.125V3.75H7.5V3.125C7.5 2.95924 7.43415 2.80027 7.31694 2.68306C7.19973 2.56585 7.04076 2.5 6.875 2.5C6.70924 2.5 6.55027 2.56585 6.43306 2.68306C6.31585 2.80027 6.25 2.95924 6.25 3.125V3.75H5.625C4.7965 3.75099 4.00222 4.08055 3.41639 4.66639C2.83055 5.25222 2.50099 6.0465 2.5 6.875L2.5 14.375C2.50099 15.2035 2.83055 15.9978 3.41639 16.5836C4.00222 17.1694 4.7965 17.499 5.625 17.5H14.375C15.2035 17.499 15.9978 17.1694 16.5836 16.5836C17.1694 15.9978 17.499 15.2035 17.5 14.375V6.875C17.499 6.0465 17.1694 5.25222 16.5836 4.66639C15.9978 4.08055 15.2035 3.75099 14.375 3.75V3.75ZM3.75 6.875C3.75 6.37772 3.94754 5.90081 4.29917 5.54917C4.65081 5.19754 5.12772 5 5.625 5H14.375C14.8723 5 15.3492 5.19754 15.7008 5.54917C16.0525 5.90081 16.25 6.37772 16.25 6.875V7.5H3.75V6.875ZM14.375 16.25H5.625C5.12772 16.25 4.65081 16.0525 4.29917 15.7008C3.94754 15.3492 3.75 14.8723 3.75 14.375V8.75H16.25V14.375C16.25 14.8723 16.0525 15.3492 15.7008 15.7008C15.3492 16.0525 14.8723 16.25 14.375 16.25Z" fill="#8E8E8E"/>
<path d="M10 12.8125C10.5178 12.8125 10.9375 12.3928 10.9375 11.875C10.9375 11.3572 10.5178 10.9375 10 10.9375C9.48223 10.9375 9.0625 11.3572 9.0625 11.875C9.0625 12.3928 9.48223 12.8125 10 12.8125Z" fill="#8E8E8E"/>
<path d="M6.875 12.8125C7.39277 12.8125 7.8125 12.3928 7.8125 11.875C7.8125 11.3572 7.39277 10.9375 6.875 10.9375C6.35723 10.9375 5.9375 11.3572 5.9375 11.875C5.9375 12.3928 6.35723 12.8125 6.875 12.8125Z" fill="#8E8E8E"/>
<path d="M13.125 12.8125C13.6428 12.8125 14.0625 12.3928 14.0625 11.875C14.0625 11.3572 13.6428 10.9375 13.125 10.9375C12.6072 10.9375 12.1875 11.3572 12.1875 11.875C12.1875 12.3928 12.6072 12.8125 13.125 12.8125Z" fill="#8E8E8E"/>
</svg>
