<svg width="20" height="20" viewBox="0 0 20 20" fill="none" xmlns="http://www.w3.org/2000/svg">
<path d="M14.375 5H14.0575L12.6925 3.23C12.5166 3.00363 12.2915 2.82026 12.0342 2.69378C11.7769 2.56731 11.4942 2.50104 11.2075 2.5L8.7925 2.5C8.50581 2.50104 8.22312 2.56731 7.96583 2.69378C7.70855 2.82026 7.48342 3.00363 7.3075 3.23L5.9425 5H5.625C4.7965 5.00099 4.00222 5.33055 3.41639 5.91639C2.83055 6.50222 2.50099 7.2965 2.5 8.125L2.5 14.375C2.50099 15.2035 2.83055 15.9978 3.41639 16.5836C4.00222 17.1694 4.7965 17.499 5.625 17.5H14.375C15.2035 17.499 15.9978 17.1694 16.5836 16.5836C17.1694 15.9978 17.499 15.2035 17.5 14.375V8.125C17.499 7.2965 17.1694 6.50222 16.5836 5.91639C15.9978 5.33055 15.2035 5.00099 14.375 5ZM8.2975 3.99375C8.35604 3.91816 8.43106 3.85691 8.51683 3.81468C8.60261 3.77244 8.69689 3.75032 8.7925 3.75H11.2075C11.3031 3.75041 11.3973 3.77257 11.4831 3.8148C11.5689 3.85703 11.6439 3.91823 11.7025 3.99375L12.4788 5H7.52125L8.2975 3.99375ZM16.25 14.375C16.25 14.8723 16.0525 15.3492 15.7008 15.7008C15.3492 16.0525 14.8723 16.25 14.375 16.25H5.625C5.12772 16.25 4.65081 16.0525 4.29917 15.7008C3.94754 15.3492 3.75 14.8723 3.75 14.375V8.125C3.75 7.62772 3.94754 7.15081 4.29917 6.79917C4.65081 6.44754 5.12772 6.25 5.625 6.25H14.375C14.8723 6.25 15.3492 6.44754 15.7008 6.79917C16.0525 7.15081 16.25 7.62772 16.25 8.125V14.375Z" fill="#363636"/>
<path d="M10 7.5C9.25832 7.5 8.5333 7.71993 7.91661 8.13199C7.29993 8.54404 6.81928 9.12971 6.53545 9.81494C6.25162 10.5002 6.17736 11.2542 6.32206 11.9816C6.46675 12.709 6.8239 13.3772 7.34835 13.9017C7.8728 14.4261 8.54098 14.7833 9.26841 14.9279C9.99584 15.0726 10.7498 14.9984 11.4351 14.7145C12.1203 14.4307 12.706 13.9501 13.118 13.3334C13.5301 12.7167 13.75 11.9917 13.75 11.25C13.749 10.2557 13.3536 9.30249 12.6506 8.59945C11.9475 7.8964 10.9943 7.50099 10 7.5ZM10 13.75C9.50555 13.75 9.0222 13.6034 8.61108 13.3287C8.19995 13.054 7.87952 12.6635 7.6903 12.2067C7.50108 11.7499 7.45157 11.2472 7.54804 10.7623C7.6445 10.2773 7.8826 9.83186 8.23223 9.48223C8.58186 9.1326 9.02732 8.8945 9.51227 8.79804C9.99723 8.70157 10.4999 8.75108 10.9567 8.9403C11.4135 9.12952 11.804 9.44995 12.0787 9.86107C12.3534 10.2722 12.5 10.7555 12.5 11.25C12.5 11.913 12.2366 12.5489 11.7678 13.0178C11.2989 13.4866 10.663 13.75 10 13.75Z" fill="#363636"/>
</svg>
