<svg width="20" height="20" viewBox="0 0 20 20" fill="none" xmlns="http://www.w3.org/2000/svg">
<path d="M15.4625 8.52899L12.775 4.67211C12.487 4.25885 12.1033 3.92134 11.6567 3.68835C11.2101 3.45535 10.7137 3.33378 10.21 3.33398H7.8125C7.17876 3.33613 6.56051 3.52999 6.03901 3.89008C5.51751 4.25016 5.11717 4.75962 4.89063 5.35149L3.59563 8.76649C3.25821 8.99559 2.98197 9.30377 2.791 9.66414C2.60003 10.0245 2.50013 10.4261 2.5 10.834V11.7715C2.50051 12.1315 2.62511 12.4804 2.85279 12.7593C3.08048 13.0382 3.39734 13.2302 3.75 13.3027V13.6465C3.75 14.2266 3.98047 14.783 4.3907 15.1933C4.80094 15.6035 5.35734 15.834 5.9375 15.834C6.51766 15.834 7.07406 15.6035 7.4843 15.1933C7.89453 14.783 8.125 14.2266 8.125 13.6465V13.334H11.875V13.6465C11.875 14.2266 12.1055 14.783 12.5157 15.1933C12.9259 15.6035 13.4823 15.834 14.0625 15.834C14.6427 15.834 15.1991 15.6035 15.6093 15.1933C16.0195 14.783 16.25 14.2266 16.25 13.6465V13.3027C16.6027 13.2302 16.9195 13.0382 17.1472 12.7593C17.3749 12.4804 17.4995 12.1315 17.5 11.7715V11.459C17.4991 10.8212 17.3035 10.199 16.9394 9.67538C16.5753 9.15179 16.06 8.75183 15.4625 8.52899V8.52899ZM11.75 5.38649L13.8025 8.33399H9.375V4.58398H10.21C10.5124 4.58366 10.8104 4.65647 11.0785 4.7962C11.3467 4.93594 11.577 5.13846 11.75 5.38649ZM6.0625 5.79461C6.19819 5.43994 6.43789 5.13457 6.75019 4.91853C7.06248 4.70249 7.43277 4.58588 7.8125 4.58398H8.125V8.33399H5.09625L6.0625 5.79461ZM6.875 13.6465C6.875 13.8951 6.77623 14.1336 6.60041 14.3094C6.4246 14.4852 6.18614 14.584 5.9375 14.584C5.68886 14.584 5.4504 14.4852 5.27459 14.3094C5.09877 14.1336 5 13.8951 5 13.6465V13.334H6.875V13.6465ZM14.0625 14.584C13.8139 14.584 13.5754 14.4852 13.3996 14.3094C13.2238 14.1336 13.125 13.8951 13.125 13.6465V13.334H15V13.6465C15 13.8951 14.9012 14.1336 14.7254 14.3094C14.5496 14.4852 14.3111 14.584 14.0625 14.584ZM16.25 11.7715C16.25 11.8544 16.2171 11.9339 16.1585 11.9925C16.0999 12.0511 16.0204 12.084 15.9375 12.084H4.0625C3.97962 12.084 3.90013 12.0511 3.84153 11.9925C3.78292 11.9339 3.75 11.8544 3.75 11.7715V10.834C3.75 10.5025 3.8817 10.1845 4.11612 9.9501C4.35054 9.71568 4.66848 9.58399 5 9.58399H14.375C14.8723 9.58399 15.3492 9.78153 15.7008 10.1332C16.0525 10.4848 16.25 10.9617 16.25 11.459V11.7715Z" fill="#494949"/>
</svg>
