<svg width="20" height="20" viewBox="0 0 20 20" fill="none" xmlns="http://www.w3.org/2000/svg">
<path d="M12.4997 7.4994C12.3825 7.38223 12.2235 7.31641 12.0578 7.31641C11.8921 7.31641 11.7331 7.38223 11.6159 7.4994L9.99966 9.11565L8.38341 7.4994C8.26554 7.38555 8.10766 7.32255 7.94379 7.32398C7.77991 7.3254 7.62316 7.39113 7.50728 7.50701C7.3914 7.62289 7.32567 7.77965 7.32424 7.94352C7.32282 8.1074 7.38581 8.26527 7.49966 8.38315L9.11591 9.9994L7.49966 11.6157C7.38581 11.7335 7.32282 11.8914 7.32424 12.0553C7.32567 12.2192 7.3914 12.3759 7.50728 12.4918C7.62316 12.6077 7.77991 12.6734 7.94379 12.6748C8.10766 12.6763 8.26554 12.6133 8.38341 12.4994L9.99966 10.8832L11.6159 12.4994C11.7338 12.6133 11.8917 12.6763 12.0555 12.6748C12.2194 12.6734 12.3762 12.6077 12.492 12.4918C12.6079 12.3759 12.6737 12.2192 12.6751 12.0553C12.6765 11.8914 12.6135 11.7335 12.4997 11.6157L10.8834 9.9994L12.4997 8.38315C12.6168 8.26594 12.6827 8.107 12.6827 7.94127C12.6827 7.77555 12.6168 7.6166 12.4997 7.4994Z" fill="#363636"/>
<path d="M10 2.5C8.51664 2.5 7.06659 2.93987 5.83323 3.76398C4.59986 4.58809 3.63856 5.75943 3.07091 7.12987C2.50325 8.50032 2.35472 10.0083 2.64411 11.4632C2.9335 12.918 3.64781 14.2544 4.6967 15.3033C5.7456 16.3522 7.08197 17.0665 8.53683 17.3559C9.99168 17.6453 11.4997 17.4967 12.8701 16.9291C14.2406 16.3614 15.4119 15.4001 16.236 14.1668C17.0601 12.9334 17.5 11.4834 17.5 10C17.4979 8.01153 16.707 6.10513 15.3009 4.69907C13.8949 3.29302 11.9885 2.50215 10 2.5V2.5ZM10 16.25C8.76387 16.25 7.5555 15.8834 6.52769 15.1967C5.49988 14.5099 4.6988 13.5338 4.22576 12.3918C3.75271 11.2497 3.62894 9.99306 3.8701 8.78068C4.11125 7.5683 4.70651 6.45466 5.58059 5.58058C6.45466 4.7065 7.56831 4.11125 8.78069 3.87009C9.99307 3.62893 11.2497 3.7527 12.3918 4.22575C13.5338 4.6988 14.5099 5.49988 15.1967 6.52768C15.8834 7.55549 16.25 8.76386 16.25 10C16.2482 11.657 15.5891 13.2457 14.4174 14.4174C13.2457 15.5891 11.657 16.2482 10 16.25Z" fill="#363636"/>
</svg>
