<svg width="16" height="16" viewBox="0 0 16 16" fill="none" xmlns="http://www.w3.org/2000/svg">
<path d="M13.8536 2.1464C13.7598 2.05266 13.6327 2 13.5001 2C13.3675 2 13.2404 2.05266 13.1466 2.1464L8 7.29299L2.85341 2.1464C2.75964 2.05266 2.63249 2 2.4999 2C2.36732 2 2.24016 2.05266 2.1464 2.1464C2.05266 2.24016 2 2.36732 2 2.4999C2 2.63249 2.05266 2.75964 2.1464 2.85341L7.29299 8L2.1464 13.1466C2.05266 13.2404 2 13.3675 2 13.5001C2 13.6327 2.05266 13.7598 2.1464 13.8536C2.24016 13.9473 2.36732 14 2.4999 14C2.63249 14 2.75964 13.9473 2.85341 13.8536L8 8.70701L13.1466 13.8536C13.2404 13.9473 13.3675 14 13.5001 14C13.6327 14 13.7598 13.9473 13.8536 13.8536C13.9473 13.7598 14 13.6327 14 13.5001C14 13.3675 13.9473 13.2404 13.8536 13.1466L8.70701 8L13.8536 2.85341C13.9473 2.75964 14 2.63249 14 2.4999C14 2.36732 13.9473 2.24016 13.8536 2.1464Z" fill="#8E8E8E"/>
</svg>
