<svg width="20" height="20" viewBox="0 0 20 20" fill="none" xmlns="http://www.w3.org/2000/svg">
<path d="M6.875 11.25C6.875 11.4158 6.80915 11.5747 6.69194 11.6919C6.57473 11.8092 6.41576 11.875 6.25 11.875H5.625C5.45924 11.875 5.30027 11.8092 5.18306 11.6919C5.06585 11.5747 5 11.4158 5 11.25C5 11.0842 5.06585 10.9253 5.18306 10.8081C5.30027 10.6908 5.45924 10.625 5.625 10.625H6.25C6.41576 10.625 6.57473 10.6908 6.69194 10.8081C6.80915 10.9253 6.875 11.0842 6.875 11.25ZM9.375 10.625H8.75C8.58424 10.625 8.42527 10.6908 8.30806 10.8081C8.19085 10.9253 8.125 11.0842 8.125 11.25C8.125 11.4158 8.19085 11.5747 8.30806 11.6919C8.42527 11.8092 8.58424 11.875 8.75 11.875H9.375C9.54076 11.875 9.69973 11.8092 9.81694 11.6919C9.93415 11.5747 10 11.4158 10 11.25C10 11.0842 9.93415 10.9253 9.81694 10.8081C9.69973 10.6908 9.54076 10.625 9.375 10.625ZM6.25 13.125H5.625C5.45924 13.125 5.30027 13.1908 5.18306 13.3081C5.06585 13.4253 5 13.5842 5 13.75C5 13.9158 5.06585 14.0747 5.18306 14.1919C5.30027 14.3092 5.45924 14.375 5.625 14.375H6.25C6.41576 14.375 6.57473 14.3092 6.69194 14.1919C6.80915 14.0747 6.875 13.9158 6.875 13.75C6.875 13.5842 6.80915 13.4253 6.69194 13.3081C6.57473 13.1908 6.41576 13.125 6.25 13.125ZM9.375 13.125H8.75C8.58424 13.125 8.42527 13.1908 8.30806 13.3081C8.19085 13.4253 8.125 13.5842 8.125 13.75C8.125 13.9158 8.19085 14.0747 8.30806 14.1919C8.42527 14.3092 8.58424 14.375 8.75 14.375H9.375C9.54076 14.375 9.69973 14.3092 9.81694 14.1919C9.93415 14.0747 10 13.9158 10 13.75C10 13.5842 9.93415 13.4253 9.81694 13.3081C9.69973 13.1908 9.54076 13.125 9.375 13.125ZM6.25 5.625H5.625C5.45924 5.625 5.30027 5.69085 5.18306 5.80806C5.06585 5.92527 5 6.08424 5 6.25C5 6.41576 5.06585 6.57473 5.18306 6.69194C5.30027 6.80915 5.45924 6.875 5.625 6.875H6.25C6.41576 6.875 6.57473 6.80915 6.69194 6.69194C6.80915 6.57473 6.875 6.41576 6.875 6.25C6.875 6.08424 6.80915 5.92527 6.69194 5.80806C6.57473 5.69085 6.41576 5.625 6.25 5.625ZM9.375 5.625H8.75C8.58424 5.625 8.42527 5.69085 8.30806 5.80806C8.19085 5.92527 8.125 6.08424 8.125 6.25C8.125 6.41576 8.19085 6.57473 8.30806 6.69194C8.42527 6.80915 8.58424 6.875 8.75 6.875H9.375C9.54076 6.875 9.69973 6.80915 9.81694 6.69194C9.93415 6.57473 10 6.41576 10 6.25C10 6.08424 9.93415 5.92527 9.81694 5.80806C9.69973 5.69085 9.54076 5.625 9.375 5.625ZM6.25 8.125H5.625C5.45924 8.125 5.30027 8.19085 5.18306 8.30806C5.06585 8.42527 5 8.58424 5 8.75C5 8.91576 5.06585 9.07473 5.18306 9.19194C5.30027 9.30915 5.45924 9.375 5.625 9.375H6.25C6.41576 9.375 6.57473 9.30915 6.69194 9.19194C6.80915 9.07473 6.875 8.91576 6.875 8.75C6.875 8.58424 6.80915 8.42527 6.69194 8.30806C6.57473 8.19085 6.41576 8.125 6.25 8.125ZM9.375 8.125H8.75C8.58424 8.125 8.42527 8.19085 8.30806 8.30806C8.19085 8.42527 8.125 8.58424 8.125 8.75C8.125 8.91576 8.19085 9.07473 8.30806 9.19194C8.42527 9.30915 8.58424 9.375 8.75 9.375H9.375C9.54076 9.375 9.69973 9.30915 9.81694 9.19194C9.93415 9.07473 10 8.91576 10 8.75C10 8.58424 9.93415 8.42527 9.81694 8.30806C9.69973 8.19085 9.54076 8.125 9.375 8.125ZM17.5 8.75V14.375C17.499 15.2035 17.1694 15.9978 16.5836 16.5836C15.9978 17.1694 15.2035 17.499 14.375 17.5H5.625C4.7965 17.499 4.00222 17.1694 3.41639 16.5836C2.83055 15.9978 2.50099 15.2035 2.5 14.375L2.5 5.625C2.50099 4.7965 2.83055 4.00222 3.41639 3.41639C4.00222 2.83055 4.7965 2.50099 5.625 2.5L9.375 2.5C10.2035 2.50099 10.9978 2.83055 11.5836 3.41639C12.1694 4.00222 12.499 4.7965 12.5 5.625H14.375C15.2035 5.62599 15.9978 5.95555 16.5836 6.54139C17.1694 7.12722 17.499 7.9215 17.5 8.75ZM5.625 16.25H11.25V5.625C11.25 5.12772 11.0525 4.65081 10.7008 4.29917C10.3492 3.94754 9.87228 3.75 9.375 3.75H5.625C5.12772 3.75 4.65081 3.94754 4.29917 4.29917C3.94754 4.65081 3.75 5.12772 3.75 5.625V14.375C3.75 14.8723 3.94754 15.3492 4.29917 15.7008C4.65081 16.0525 5.12772 16.25 5.625 16.25ZM16.25 8.75C16.25 8.25272 16.0525 7.77581 15.7008 7.42417C15.3492 7.07254 14.8723 6.875 14.375 6.875H12.5V16.25H14.375C14.8723 16.25 15.3492 16.0525 15.7008 15.7008C16.0525 15.3492 16.25 14.8723 16.25 14.375V8.75ZM14.375 10.625C14.2514 10.625 14.1305 10.6617 14.0278 10.7303C13.925 10.799 13.8449 10.8966 13.7976 11.0108C13.7503 11.125 13.7379 11.2507 13.762 11.3719C13.7861 11.4932 13.8456 11.6045 13.9331 11.6919C14.0205 11.7793 14.1318 11.8389 14.2531 11.863C14.3743 11.8871 14.5 11.8747 14.6142 11.8274C14.7284 11.7801 14.826 11.7 14.8947 11.5972C14.9633 11.4945 15 11.3736 15 11.25C15 11.0842 14.9342 10.9253 14.8169 10.8081C14.6997 10.6908 14.5408 10.625 14.375 10.625ZM14.375 13.125C14.2514 13.125 14.1305 13.1617 14.0278 13.2303C13.925 13.299 13.8449 13.3966 13.7976 13.5108C13.7503 13.625 13.7379 13.7507 13.762 13.8719C13.7861 13.9932 13.8456 14.1045 13.9331 14.1919C14.0205 14.2794 14.1318 14.3389 14.2531 14.363C14.3743 14.3871 14.5 14.3747 14.6142 14.3274C14.7284 14.2801 14.826 14.2 14.8947 14.0972C14.9633 13.9945 15 13.8736 15 13.75C15 13.5842 14.9342 13.4253 14.8169 13.3081C14.6997 13.1908 14.5408 13.125 14.375 13.125ZM14.375 8.125C14.2514 8.125 14.1305 8.16166 14.0278 8.23033C13.925 8.29901 13.8449 8.39662 13.7976 8.51082C13.7503 8.62503 13.7379 8.75069 13.762 8.87193C13.7861 8.99317 13.8456 9.10453 13.9331 9.19194C14.0205 9.27935 14.1318 9.33888 14.2531 9.36299C14.3743 9.38711 14.5 9.37473 14.6142 9.32743C14.7284 9.28012 14.826 9.20001 14.8947 9.09723C14.9633 8.99445 15 8.87361 15 8.75C15 8.58424 14.9342 8.42527 14.8169 8.30806C14.6997 8.19085 14.5408 8.125 14.375 8.125Z" fill="#494949"/>
</svg>
