<svg width="20" height="20" viewBox="0 0 20 20" fill="none" xmlns="http://www.w3.org/2000/svg">
<path d="M9.61698 6.25C9.12257 6.25 8.63926 6.39661 8.22817 6.67129C7.81708 6.94597 7.49668 7.33638 7.30747 7.79316C7.11827 8.24993 7.06877 8.75256 7.16522 9.23747C7.26168 9.72238 7.49976 10.1678 7.84936 10.5174C8.19896 10.867 8.64438 11.1051 9.12929 11.2015C9.61421 11.298 10.1168 11.2485 10.5736 11.0593C11.0304 10.8701 11.4208 10.5497 11.6955 10.1386C11.9702 9.7275 12.1168 9.2442 12.1168 8.74979C12.1168 8.0868 11.8534 7.45097 11.3846 6.98217C10.9158 6.51337 10.28 6.25 9.61698 6.25ZM9.61698 9.99968C9.36977 9.99968 9.12812 9.92637 8.92257 9.78903C8.71703 9.65169 8.55683 9.45649 8.46223 9.2281C8.36762 8.99971 8.34287 8.7484 8.3911 8.50594C8.43933 8.26349 8.55837 8.04078 8.73317 7.86598C8.90797 7.69118 9.13068 7.57214 9.37314 7.52391C9.61559 7.47568 9.8669 7.50043 10.0953 7.59503C10.3237 7.68964 10.5189 7.84984 10.6562 8.05538C10.7936 8.26093 10.8669 8.50258 10.8669 8.74979C10.8669 9.08128 10.7352 9.39919 10.5008 9.63359C10.2664 9.86799 9.94847 9.99968 9.61698 9.99968Z" fill="white"/>
<path d="M9.61587 17.5C9.08963 17.5027 8.5704 17.3792 8.10167 17.14C7.63293 16.9008 7.22832 16.5528 6.92172 16.1251C4.54005 12.8397 3.33203 10.3699 3.33203 8.78383C3.33203 7.11726 3.99408 5.51894 5.17252 4.34049C6.35097 3.16204 7.94929 2.5 9.61587 2.5C11.2824 2.5 12.8808 3.16204 14.0592 4.34049C15.2377 5.51894 15.8997 7.11726 15.8997 8.78383C15.8997 10.3699 14.6917 12.8397 12.31 16.1251C12.0034 16.5528 11.5988 16.9008 11.1301 17.14C10.6613 17.3792 10.1421 17.5027 9.61587 17.5ZM9.61587 3.86426C8.31124 3.86575 7.06047 4.38467 6.13796 5.30718C5.21545 6.22969 4.69653 7.48046 4.69504 8.78508C4.69504 10.0412 5.87806 12.3642 8.02538 15.3258C8.20767 15.5769 8.44683 15.7812 8.72327 15.9221C8.99971 16.063 9.30558 16.1365 9.61587 16.1365C9.92616 16.1365 10.232 16.063 10.5085 15.9221C10.7849 15.7812 11.0241 15.5769 11.2064 15.3258C13.3537 12.3642 14.5367 10.0412 14.5367 8.78508C14.5352 7.48046 14.0163 6.22969 13.0938 5.30718C12.1713 4.38467 10.9205 3.86575 9.61587 3.86426Z" fill="white"/>
</svg>
