<svg width="20" height="20" viewBox="0 0 20 20" fill="none" xmlns="http://www.w3.org/2000/svg">
<circle cx="10" cy="10" r="10" fill="#FF5B00"/>
<path d="M7.8125 10.875C7.8125 10.991 7.76641 11.1023 7.68436 11.1844C7.60231 11.2664 7.49103 11.3125 7.375 11.3125H6.9375C6.82147 11.3125 6.71019 11.2664 6.62814 11.1844C6.54609 11.1023 6.5 10.991 6.5 10.875C6.5 10.759 6.54609 10.6477 6.62814 10.5656C6.71019 10.4836 6.82147 10.4375 6.9375 10.4375H7.375C7.49103 10.4375 7.60231 10.4836 7.68436 10.5656C7.76641 10.6477 7.8125 10.759 7.8125 10.875ZM9.5625 10.4375H9.125C9.00897 10.4375 8.89769 10.4836 8.81564 10.5656C8.73359 10.6477 8.6875 10.759 8.6875 10.875C8.6875 10.991 8.73359 11.1023 8.81564 11.1844C8.89769 11.2664 9.00897 11.3125 9.125 11.3125H9.5625C9.67853 11.3125 9.78981 11.2664 9.87186 11.1844C9.95391 11.1023 10 10.991 10 10.875C10 10.759 9.95391 10.6477 9.87186 10.5656C9.78981 10.4836 9.67853 10.4375 9.5625 10.4375ZM7.375 12.1875H6.9375C6.82147 12.1875 6.71019 12.2336 6.62814 12.3156C6.54609 12.3977 6.5 12.509 6.5 12.625C6.5 12.741 6.54609 12.8523 6.62814 12.9344C6.71019 13.0164 6.82147 13.0625 6.9375 13.0625H7.375C7.49103 13.0625 7.60231 13.0164 7.68436 12.9344C7.76641 12.8523 7.8125 12.741 7.8125 12.625C7.8125 12.509 7.76641 12.3977 7.68436 12.3156C7.60231 12.2336 7.49103 12.1875 7.375 12.1875ZM9.5625 12.1875H9.125C9.00897 12.1875 8.89769 12.2336 8.81564 12.3156C8.73359 12.3977 8.6875 12.509 8.6875 12.625C8.6875 12.741 8.73359 12.8523 8.81564 12.9344C8.89769 13.0164 9.00897 13.0625 9.125 13.0625H9.5625C9.67853 13.0625 9.78981 13.0164 9.87186 12.9344C9.95391 12.8523 10 12.741 10 12.625C10 12.509 9.95391 12.3977 9.87186 12.3156C9.78981 12.2336 9.67853 12.1875 9.5625 12.1875ZM7.375 6.9375H6.9375C6.82147 6.9375 6.71019 6.98359 6.62814 7.06564C6.54609 7.14769 6.5 7.25897 6.5 7.375C6.5 7.49103 6.54609 7.60231 6.62814 7.68436C6.71019 7.76641 6.82147 7.8125 6.9375 7.8125H7.375C7.49103 7.8125 7.60231 7.76641 7.68436 7.68436C7.76641 7.60231 7.8125 7.49103 7.8125 7.375C7.8125 7.25897 7.76641 7.14769 7.68436 7.06564C7.60231 6.98359 7.49103 6.9375 7.375 6.9375ZM9.5625 6.9375H9.125C9.00897 6.9375 8.89769 6.98359 8.81564 7.06564C8.73359 7.14769 8.6875 7.25897 8.6875 7.375C8.6875 7.49103 8.73359 7.60231 8.81564 7.68436C8.89769 7.76641 9.00897 7.8125 9.125 7.8125H9.5625C9.67853 7.8125 9.78981 7.76641 9.87186 7.68436C9.95391 7.60231 10 7.49103 10 7.375C10 7.25897 9.95391 7.14769 9.87186 7.06564C9.78981 6.98359 9.67853 6.9375 9.5625 6.9375ZM7.375 8.6875H6.9375C6.82147 8.6875 6.71019 8.73359 6.62814 8.81564C6.54609 8.89769 6.5 9.00897 6.5 9.125C6.5 9.24103 6.54609 9.35231 6.62814 9.43436C6.71019 9.51641 6.82147 9.5625 6.9375 9.5625H7.375C7.49103 9.5625 7.60231 9.51641 7.68436 9.43436C7.76641 9.35231 7.8125 9.24103 7.8125 9.125C7.8125 9.00897 7.76641 8.89769 7.68436 8.81564C7.60231 8.73359 7.49103 8.6875 7.375 8.6875ZM9.5625 8.6875H9.125C9.00897 8.6875 8.89769 8.73359 8.81564 8.81564C8.73359 8.89769 8.6875 9.00897 8.6875 9.125C8.6875 9.24103 8.73359 9.35231 8.81564 9.43436C8.89769 9.51641 9.00897 9.5625 9.125 9.5625H9.5625C9.67853 9.5625 9.78981 9.51641 9.87186 9.43436C9.95391 9.35231 10 9.24103 10 9.125C10 9.00897 9.95391 8.89769 9.87186 8.81564C9.78981 8.73359 9.67853 8.6875 9.5625 8.6875ZM15.25 9.125V13.0625C15.2493 13.6424 15.0186 14.1984 14.6085 14.6085C14.1984 15.0186 13.6424 15.2493 13.0625 15.25H6.9375C6.35755 15.2493 5.80156 15.0186 5.39147 14.6085C4.98139 14.1984 4.75069 13.6424 4.75 13.0625V6.9375C4.75069 6.35755 4.98139 5.80156 5.39147 5.39147C5.80156 4.98139 6.35755 4.75069 6.9375 4.75H9.5625C10.1424 4.75069 10.6984 4.98139 11.1085 5.39147C11.5186 5.80156 11.7493 6.35755 11.75 6.9375H13.0625C13.6424 6.93819 14.1984 7.16889 14.6085 7.57897C15.0186 7.98906 15.2493 8.54505 15.25 9.125V9.125ZM6.9375 14.375H10.875V6.9375C10.875 6.5894 10.7367 6.25556 10.4906 6.00942C10.2444 5.76328 9.9106 5.625 9.5625 5.625H6.9375C6.5894 5.625 6.25556 5.76328 6.00942 6.00942C5.76328 6.25556 5.625 6.5894 5.625 6.9375V13.0625C5.625 13.4106 5.76328 13.7444 6.00942 13.9906C6.25556 14.2367 6.5894 14.375 6.9375 14.375ZM14.375 9.125C14.375 8.7769 14.2367 8.44306 13.9906 8.19692C13.7444 7.95078 13.4106 7.8125 13.0625 7.8125H11.75V14.375H13.0625C13.4106 14.375 13.7444 14.2367 13.9906 13.9906C14.2367 13.7444 14.375 13.4106 14.375 13.0625V9.125ZM13.0625 10.4375C12.976 10.4375 12.8914 10.4632 12.8194 10.5112C12.7475 10.5593 12.6914 10.6276 12.6583 10.7076C12.6252 10.7875 12.6165 10.8755 12.6334 10.9604C12.6503 11.0452 12.692 11.1232 12.7531 11.1844C12.8143 11.2455 12.8923 11.2872 12.9771 11.3041C13.062 11.321 13.15 11.3123 13.2299 11.2792C13.3099 11.2461 13.3782 11.19 13.4263 11.1181C13.4743 11.0461 13.5 10.9615 13.5 10.875C13.5 10.759 13.4539 10.6477 13.3719 10.5656C13.2898 10.4836 13.1785 10.4375 13.0625 10.4375ZM13.0625 12.1875C12.976 12.1875 12.8914 12.2132 12.8194 12.2612C12.7475 12.3093 12.6914 12.3776 12.6583 12.4576C12.6252 12.5375 12.6165 12.6255 12.6334 12.7104C12.6503 12.7952 12.692 12.8732 12.7531 12.9344C12.8143 12.9955 12.8923 13.0372 12.9771 13.0541C13.062 13.071 13.15 13.0623 13.2299 13.0292C13.3099 12.9961 13.3782 12.94 13.4263 12.8681C13.4743 12.7961 13.5 12.7115 13.5 12.625C13.5 12.509 13.4539 12.3977 13.3719 12.3156C13.2898 12.2336 13.1785 12.1875 13.0625 12.1875ZM13.0625 8.6875C12.976 8.6875 12.8914 8.71316 12.8194 8.76123C12.7475 8.80931 12.6914 8.87763 12.6583 8.95758C12.6252 9.03752 12.6165 9.12549 12.6334 9.21035C12.6503 9.29522 12.692 9.37317 12.7531 9.43436C12.8143 9.49554 12.8923 9.53721 12.9771 9.55409C13.062 9.57097 13.15 9.56231 13.2299 9.5292C13.3099 9.49608 13.3782 9.44001 13.4263 9.36806C13.4743 9.29612 13.5 9.21153 13.5 9.125C13.5 9.00897 13.4539 8.89769 13.3719 8.81564C13.2898 8.73359 13.1785 8.6875 13.0625 8.6875Z" fill="white"/>
</svg>
