<svg width="20" height="20" viewBox="0 0 20 20" fill="none" xmlns="http://www.w3.org/2000/svg">
<circle cx="10" cy="10" r="10" fill="#FF5B00"/>
<path d="M9.70703 5.1875V7.8125C9.7064 8.31659 9.53199 8.80505 9.21322 9.19555C8.89444 9.58605 8.45079 9.85471 7.95703 9.95625V14.8125C7.95703 14.9285 7.91094 15.0398 7.82889 15.1219C7.74684 15.2039 7.63556 15.25 7.51953 15.25C7.4035 15.25 7.29222 15.2039 7.21017 15.1219C7.12813 15.0398 7.08203 14.9285 7.08203 14.8125V9.95625C6.58827 9.85471 6.14462 9.58605 5.82585 9.19555C5.50707 8.80505 5.33267 8.31659 5.33203 7.8125V5.1875C5.33203 5.07147 5.37812 4.96019 5.46017 4.87814C5.54222 4.79609 5.6535 4.75 5.76953 4.75C5.88556 4.75 5.99684 4.79609 6.07889 4.87814C6.16094 4.96019 6.20703 5.07147 6.20703 5.1875V7.8125C6.20815 8.08299 6.29282 8.34653 6.44945 8.56706C6.60607 8.78759 6.82701 8.95434 7.08203 9.0445V5.1875C7.08203 5.07147 7.12813 4.96019 7.21017 4.87814C7.29222 4.79609 7.4035 4.75 7.51953 4.75C7.63556 4.75 7.74684 4.79609 7.82889 4.87814C7.91094 4.96019 7.95703 5.07147 7.95703 5.1875V9.0445C8.21206 8.95434 8.43299 8.78759 8.58962 8.56706C8.74625 8.34653 8.83091 8.08299 8.83203 7.8125V5.1875C8.83203 5.07147 8.87813 4.96019 8.96017 4.87814C9.04222 4.79609 9.1535 4.75 9.26953 4.75C9.38557 4.75 9.49685 4.79609 9.57889 4.87814C9.66094 4.96019 9.70703 5.07147 9.70703 5.1875ZM14.082 9.125C14.0625 9.95644 13.8556 10.7728 13.4769 11.5132C13.0981 12.2536 12.5573 12.8991 11.8945 13.4016V14.8125C11.8945 14.9285 11.8484 15.0398 11.7664 15.1219C11.6843 15.2039 11.5731 15.25 11.457 15.25C11.341 15.25 11.2297 15.2039 11.1477 15.1219C11.0656 15.0398 11.0195 14.9285 11.0195 14.8125V5.625C11.0156 5.46062 11.0605 5.29876 11.1486 5.15991C11.2367 5.02105 11.364 4.91144 11.5143 4.84494C11.6871 4.77466 11.8766 4.75623 12.0596 4.79189C12.2427 4.82755 12.4114 4.91576 12.5451 5.04575C13.5598 6.15917 14.1098 7.61882 14.082 9.125ZM13.207 9.125C13.2194 7.84407 12.7511 6.60504 11.8945 5.65256V12.2181C12.7144 11.3949 13.1847 10.2867 13.207 9.125Z" fill="white"/>
</svg>
