<svg width="15" height="18" viewBox="0 0 15 18" fill="none" xmlns="http://www.w3.org/2000/svg">
<path d="M7.48574 0C5.5012 0.00218331 3.59855 0.791455 2.1952 2.19467C0.791845 3.59788 0.00238216 5.50045 0 7.48499C0 9.41249 1.4925 12.429 4.43624 16.4505C4.78669 16.9306 5.24554 17.3211 5.77544 17.5904C6.30535 17.8597 6.89135 18 7.48574 18C8.08013 18 8.66613 17.8597 9.19604 17.5904C9.72595 17.3211 10.1848 16.9306 10.5352 16.4505C13.479 12.429 14.9715 9.41249 14.9715 7.48499C14.9691 5.50045 14.1796 3.59788 12.7763 2.19467C11.3729 0.791455 9.47028 0.00218331 7.48574 0V0ZM7.48574 10.4685C6.8924 10.4685 6.31238 10.2925 5.81903 9.96289C5.32569 9.63325 4.94117 9.16471 4.71411 8.61654C4.48704 8.06836 4.42763 7.46516 4.54339 6.88322C4.65914 6.30128 4.94487 5.76673 5.36442 5.34717C5.78398 4.92761 6.31853 4.64189 6.90047 4.52614C7.48241 4.41038 8.08561 4.46979 8.63379 4.69685C9.18197 4.92392 9.6505 5.30843 9.98015 5.80178C10.3098 6.29513 10.4857 6.87515 10.4857 7.46849C10.4857 8.26414 10.1697 9.0272 9.60706 9.58981C9.04445 10.1524 8.28139 10.4685 7.48574 10.4685Z" fill="#FF5B00"/>
</svg>
