<svg width="24" height="24" viewBox="0 0 24 24" fill="none" xmlns="http://www.w3.org/2000/svg">
<path d="M20.25 11.25H3.75C3.33579 11.25 3 11.5858 3 12C3 12.4142 3.33579 12.75 3.75 12.75H20.25C20.6642 12.75 21 12.4142 21 12C21 11.5858 20.6642 11.25 20.25 11.25Z" fill="#363636"/>
<path d="M20.25 6H3.75C3.33579 6 3 6.33579 3 6.75C3 7.16421 3.33579 7.5 3.75 7.5H20.25C20.6642 7.5 21 7.16421 21 6.75C21 6.33579 20.6642 6 20.25 6Z" fill="#363636"/>
<path d="M20.25 16.5H3.75C3.33579 16.5 3 16.8358 3 17.25C3 17.6642 3.33579 18 3.75 18H20.25C20.6642 18 21 17.6642 21 17.25C21 16.8358 20.6642 16.5 20.25 16.5Z" fill="#363636"/>
</svg>
