<svg width="20" height="20" viewBox="0 0 20 20" fill="none" xmlns="http://www.w3.org/2000/svg">
<path d="M9.17926 17.4868C8.91261 17.4867 8.64982 17.4231 8.41261 17.3013C8.17539 17.1796 7.97058 17.0031 7.81509 16.7864C7.6596 16.5698 7.55791 16.3193 7.51842 16.0556C7.47893 15.7919 7.50277 15.5226 7.58799 15.2699L8.80051 11.8617H6.34734L5.67233 12.8905C5.50194 13.1508 5.26931 13.3646 4.99549 13.5123C4.72167 13.6601 4.41532 13.7372 4.10418 13.7367C3.84717 13.7367 3.59397 13.6746 3.36606 13.5558C3.13815 13.4371 2.94227 13.265 2.79505 13.0544C2.64782 12.8437 2.55359 12.6006 2.52036 12.3458C2.48712 12.0909 2.51587 11.8318 2.60415 11.5905L3.18604 9.98668L2.5979 8.38665C2.50941 8.1457 2.4803 7.88697 2.51305 7.63238C2.5458 7.37779 2.63944 7.13484 2.78603 6.92413C2.96019 6.70162 3.18545 6.52439 3.4427 6.40749C3.69995 6.29059 3.9816 6.23746 4.26376 6.25261C4.54592 6.26776 4.82026 6.35074 5.06351 6.49452C5.30676 6.6383 5.51175 6.83862 5.66108 7.07851L6.34547 8.11165H8.80051L7.59049 4.71347C7.50387 4.45955 7.47904 4.18863 7.51806 3.92319C7.55708 3.65776 7.65883 3.40545 7.81486 3.1872C8.00074 2.95113 8.24269 2.76529 8.5187 2.64659C8.79472 2.52788 9.09604 2.48008 9.39524 2.50754C9.69444 2.53499 9.98203 2.63683 10.2318 2.80378C10.4816 2.97073 10.6857 3.1975 10.8255 3.46345L13.4862 8.11165H15.5569C16.0089 8.10597 16.4485 8.25935 16.7989 8.54497C17.1493 8.83059 17.3882 9.23029 17.4738 9.67418C17.5192 9.94314 17.5055 10.2188 17.4334 10.4819C17.3614 10.745 17.2328 10.9892 17.0567 11.1975C16.8805 11.4058 16.661 11.5731 16.4135 11.6878C16.1661 11.8025 15.8965 11.8619 15.6237 11.8617H13.4862L10.8193 16.5205C10.6576 16.8138 10.4201 17.0582 10.1316 17.2282C9.84305 17.3982 9.51414 17.4875 9.17926 17.4868ZM6.00983 10.6117H9.68615C9.78592 10.6126 9.88406 10.6371 9.97245 10.6834C10.0608 10.7297 10.1369 10.7964 10.1945 10.8779C10.252 10.9594 10.2893 11.0535 10.3033 11.1523C10.3173 11.2511 10.3075 11.3518 10.2749 11.4461L8.76863 15.6793C8.7485 15.7428 8.74368 15.8101 8.75454 15.8758C8.7654 15.9415 8.79165 16.0038 8.83113 16.0574C8.89417 16.1199 8.9711 16.1665 9.05562 16.1936C9.14014 16.2206 9.22986 16.2273 9.31745 16.213C9.40504 16.1987 9.48801 16.164 9.55958 16.1115C9.63116 16.059 9.6893 15.9904 9.72927 15.9112L12.5812 10.9242C12.6362 10.829 12.7152 10.75 12.8105 10.6951C12.9057 10.6403 13.0138 10.6115 13.1237 10.6117H15.6237C15.7151 10.6117 15.8054 10.5917 15.8882 10.5531C15.971 10.5145 16.0443 10.4582 16.103 10.3882C16.1617 10.3182 16.2043 10.2362 16.2279 10.1479C16.2514 10.0596 16.2554 9.96726 16.2394 9.8773C16.2024 9.72592 16.1142 9.59196 15.9899 9.49801C15.8656 9.40407 15.7126 9.35592 15.5569 9.36167H13.1237C13.0138 9.36189 12.9057 9.33311 12.8105 9.27824C12.7152 9.22338 12.6362 9.14436 12.5812 9.04917L9.73427 4.07346C9.69631 3.99163 9.63909 3.92021 9.56752 3.8653C9.49595 3.81039 9.41215 3.77363 9.32327 3.75815C9.2344 3.74267 9.14311 3.74894 9.05718 3.77642C8.97126 3.8039 8.89327 3.85178 8.82988 3.91596C8.7899 3.97131 8.76376 4.03543 8.75365 4.10296C8.74354 4.17049 8.74974 4.23945 8.77175 4.30409L10.2718 8.52728C10.3043 8.62133 10.3141 8.72175 10.3003 8.82031C10.2865 8.91886 10.2494 9.01273 10.1923 9.09419C10.1351 9.17564 10.0594 9.24237 9.97141 9.28887C9.88342 9.33537 9.78566 9.36032 9.68615 9.36167H6.00983C5.90658 9.36169 5.80493 9.33612 5.71397 9.28726C5.62301 9.2384 5.54557 9.16776 5.48858 9.08167L4.61794 7.76915C4.47543 7.50602 3.97168 7.37101 3.81167 7.63789C3.77899 7.68349 3.75817 7.73649 3.75108 7.79214C3.74398 7.84778 3.75085 7.90432 3.77105 7.95665L4.44106 9.77293C4.49222 9.91213 4.49222 10.065 4.44106 10.2042L3.7748 12.023C3.75622 12.0753 3.75046 12.1313 3.75798 12.1863C3.76551 12.2413 3.78611 12.2938 3.81806 12.3392C3.85001 12.3846 3.89238 12.4217 3.94162 12.4474C3.99085 12.473 4.04553 12.4865 4.10105 12.4867C4.20485 12.4868 4.30703 12.461 4.39836 12.4117C4.48969 12.3623 4.5673 12.291 4.62419 12.2042L5.4842 10.8917C5.5416 10.805 5.61974 10.734 5.71152 10.6851C5.80331 10.6362 5.90584 10.6109 6.00983 10.6117Z" fill="#494949"/>
</svg>
