<svg width="16" height="16" viewBox="0 0 16 16" fill="none" xmlns="http://www.w3.org/2000/svg">
<path d="M12.37 6.82202L10.22 3.73652C9.98957 3.40591 9.68263 3.1359 9.32534 2.94951C8.96805 2.76311 8.57099 2.66585 8.168 2.66602H6.25C5.74301 2.66773 5.24841 2.82282 4.83121 3.11089C4.41401 3.39896 4.09374 3.80653 3.9125 4.28002L2.8765 7.01202C2.60657 7.1953 2.38558 7.44185 2.2328 7.73014C2.08002 8.01844 2.0001 8.33974 2 8.66602V9.41602C2.00041 9.70406 2.10009 9.98315 2.28224 10.2063C2.46438 10.4294 2.71787 10.5829 3 10.641V10.916C3 11.3801 3.18437 11.8253 3.51256 12.1535C3.84075 12.4816 4.28587 12.666 4.75 12.666C5.21413 12.666 5.65925 12.4816 5.98744 12.1535C6.31563 11.8253 6.5 11.3801 6.5 10.916V10.666H9.5V10.916C9.5 11.3801 9.68437 11.8253 10.0126 12.1535C10.3408 12.4816 10.7859 12.666 11.25 12.666C11.7141 12.666 12.1592 12.4816 12.4874 12.1535C12.8156 11.8253 13 11.3801 13 10.916V10.641C13.2821 10.5829 13.5356 10.4294 13.7178 10.2063C13.8999 9.98315 13.9996 9.70406 14 9.41602V9.16602C13.9993 8.65582 13.8428 8.15801 13.5515 7.73913C13.2602 7.32026 12.848 7.00029 12.37 6.82202V6.82202ZM9.4 4.30802L11.042 6.66602H7.5V3.66602H8.168C8.4099 3.66575 8.64828 3.724 8.8628 3.83579C9.07733 3.94758 9.26163 4.10959 9.4 4.30802ZM4.85 4.63452C4.95855 4.35078 5.15032 4.10648 5.40015 3.93365C5.64998 3.76082 5.94622 3.66753 6.25 3.66602H6.5V6.66602H4.077L4.85 4.63452ZM5.5 10.916C5.5 11.1149 5.42098 11.3057 5.28033 11.4463C5.13968 11.587 4.94891 11.666 4.75 11.666C4.55109 11.666 4.36032 11.587 4.21967 11.4463C4.07902 11.3057 4 11.1149 4 10.916V10.666H5.5V10.916ZM11.25 11.666C11.0511 11.666 10.8603 11.587 10.7197 11.4463C10.579 11.3057 10.5 11.1149 10.5 10.916V10.666H12V10.916C12 11.1149 11.921 11.3057 11.7803 11.4463C11.6397 11.587 11.4489 11.666 11.25 11.666ZM13 9.41602C13 9.48232 12.9737 9.54591 12.9268 9.59279C12.8799 9.63968 12.8163 9.66602 12.75 9.66602H3.25C3.1837 9.66602 3.12011 9.63968 3.07322 9.59279C3.02634 9.54591 3 9.48232 3 9.41602V8.66602C3 8.4008 3.10536 8.14645 3.29289 7.95891C3.48043 7.77137 3.73478 7.66602 4 7.66602H11.5C11.8978 7.66602 12.2794 7.82405 12.5607 8.10536C12.842 8.38666 13 8.76819 13 9.16602V9.41602Z" fill="#8E8E8E"/>
</svg>
