<svg width="24" height="24" viewBox="0 0 24 24" fill="none" xmlns="http://www.w3.org/2000/svg">
<path d="M20.7896 19.73L16.3166 15.2569C17.5355 13.7661 18.1349 11.8638 17.9906 9.94347C17.8463 8.02315 16.9694 6.23175 15.5414 4.9398C14.1133 3.64786 12.2434 2.95421 10.3182 3.00235C8.39309 3.05048 6.56011 3.83671 5.19841 5.19841C3.83671 6.56011 3.05048 8.39309 3.00235 10.3182C2.95421 12.2434 3.64786 14.1133 4.9398 15.5414C6.23175 16.9694 8.02315 17.8463 9.94347 17.9906C11.8638 18.1349 13.7661 17.5355 15.2569 16.3166L19.73 20.7896C19.8713 20.9261 20.0606 21.0017 20.2571 21C20.4536 20.9983 20.6416 20.9195 20.7805 20.7805C20.9195 20.6416 20.9983 20.4536 21 20.2571C21.0017 20.0606 20.9261 19.8713 20.7896 19.73ZM10.5178 16.5129C9.33212 16.5129 8.17303 16.1613 7.18714 15.5026C6.20126 14.8438 5.43286 13.9075 4.9791 12.812C4.52535 11.7166 4.40663 10.5112 4.63795 9.34825C4.86927 8.18532 5.44025 7.1171 6.27867 6.27867C7.1171 5.44025 8.18532 4.86927 9.34825 4.63795C10.5112 4.40663 11.7166 4.52535 12.812 4.9791C13.9075 5.43286 14.8438 6.20126 15.5026 7.18714C16.1613 8.17303 16.5129 9.33212 16.5129 10.5178C16.5111 12.1073 15.8789 13.6311 14.755 14.755C13.6311 15.8789 12.1073 16.5111 10.5178 16.5129Z" fill="#363636"/>
</svg>
