<svg width="20" height="20" viewBox="0 0 20 20" fill="none" xmlns="http://www.w3.org/2000/svg">
<path d="M15.625 7.5H13.125V4.375C13.125 3.87772 12.9275 3.40081 12.5758 3.04917C12.2242 2.69754 11.7473 2.5 11.25 2.5H8.75C8.25272 2.5 7.77581 2.69754 7.42417 3.04917C7.07254 3.40081 6.875 3.87772 6.875 4.375V7.5H4.375C3.87772 7.5 3.40081 7.69754 3.04917 8.04917C2.69754 8.40081 2.5 8.87772 2.5 9.375L2.5 16.25H3.75V17.5H5V16.25H15V17.5H16.25V16.25H17.5V9.375C17.5 8.87772 17.3025 8.40081 16.9508 8.04917C16.5992 7.69754 16.1223 7.5 15.625 7.5ZM8.125 4.375C8.125 4.20924 8.19085 4.05027 8.30806 3.93306C8.42527 3.81585 8.58424 3.75 8.75 3.75H11.25C11.4158 3.75 11.5747 3.81585 11.6919 3.93306C11.8092 4.05027 11.875 4.20924 11.875 4.375V7.5H8.125V4.375ZM16.25 15H3.75V9.375C3.75 9.20924 3.81585 9.05027 3.93306 8.93306C4.05027 8.81585 4.20924 8.75 4.375 8.75H15.625C15.7908 8.75 15.9497 8.81585 16.0669 8.93306C16.1842 9.05027 16.25 9.20924 16.25 9.375V15ZM6.875 10H13.125V11.25H6.875V10Z" fill="#494949"/>
</svg>
