<svg width="20" height="20" viewBox="0 0 20 20" fill="none" xmlns="http://www.w3.org/2000/svg">
<path d="M10.4061 2.5C8.7523 2.50182 7.16676 3.15955 5.9973 4.32889C4.82784 5.49823 4.16995 7.08371 4.16797 8.73749C4.16797 10.3437 5.41172 12.8575 7.86484 16.2087C8.15688 16.6088 8.53925 16.9343 8.98084 17.1587C9.42243 17.383 9.91076 17.5 10.4061 17.5C10.9014 17.5 11.3897 17.383 11.8313 17.1587C12.2729 16.9343 12.6553 16.6088 12.9473 16.2087C15.4005 12.8575 16.6442 10.3437 16.6442 8.73749C16.6422 7.08371 15.9843 5.49823 14.8149 4.32889C13.6454 3.15955 12.0599 2.50182 10.4061 2.5ZM10.4061 11.2237C9.91163 11.2237 9.42829 11.0771 9.01716 10.8024C8.60604 10.5277 8.28561 10.1373 8.09639 9.68045C7.90717 9.22363 7.85766 8.72097 7.95413 8.23601C8.05059 7.75106 8.28869 7.30561 8.63832 6.95598C8.98795 6.60635 9.43341 6.36824 9.91836 6.27178C10.4033 6.17532 10.906 6.22483 11.3628 6.41405C11.8196 6.60326 12.2101 6.92369 12.4848 7.33482C12.7595 7.74594 12.9061 8.22929 12.9061 8.72374C12.9061 9.38678 12.6427 10.0227 12.1739 10.4915C11.705 10.9603 11.0691 11.2237 10.4061 11.2237Z" fill="#000000"/>
</svg>
