<svg width="20" height="20" viewBox="0 0 20 20" fill="none" xmlns="http://www.w3.org/2000/svg">
<path d="M16.25 8.74829V6.51079C16.25 6.3646 16.2416 6.21853 16.225 6.07329C16.1415 5.30875 15.8223 4.58909 15.3117 4.01396C14.8011 3.43884 14.1243 3.03672 13.375 2.86329C11.1511 2.3789 8.84893 2.3789 6.625 2.86329C5.87576 3.03681 5.199 3.43895 4.68839 4.01406C4.17779 4.58916 3.85859 5.30878 3.775 6.07329C3.75838 6.21853 3.75003 6.3646 3.75 6.51079V8.74829C3.41848 8.74829 3.10054 8.87999 2.86612 9.11441C2.6317 9.34883 2.5 9.66677 2.5 9.99829L2.5 10.6233C2.5 10.9548 2.6317 11.2728 2.86612 11.5072C3.10054 11.7416 3.41848 11.8733 3.75 11.8733V13.1233C3.74971 13.6085 3.86253 14.0871 4.07952 14.521C4.2965 14.955 4.61167 15.3324 5 15.6233V15.9358C4.99961 16.3233 5.14321 16.6971 5.40293 16.9846C5.66265 17.2722 6.01995 17.453 6.40547 17.492C6.79099 17.5309 7.17723 17.4252 7.48921 17.1954C7.80119 16.9656 8.01664 16.628 8.09375 16.2483H11.9062C11.9834 16.628 12.1988 16.9656 12.5108 17.1954C12.8228 17.4252 13.209 17.5309 13.5945 17.492C13.9801 17.453 14.3374 17.2722 14.5971 16.9846C14.8568 16.6971 15.0004 16.3233 15 15.9358V15.6233C15.3883 15.3324 15.7035 14.955 15.9205 14.521C16.1375 14.0871 16.2503 13.6085 16.25 13.1233V11.8733C16.5815 11.8733 16.8995 11.7416 17.1339 11.5072C17.3683 11.2728 17.5 10.9548 17.5 10.6233V9.99829C17.5 9.66677 17.3683 9.34883 17.1339 9.11441C16.8995 8.87999 16.5815 8.74829 16.25 8.74829ZM5 10.6233V6.87329H15V10.6233H5ZM6.9075 4.08079C8.94616 3.63731 11.0563 3.63731 13.095 4.08079C13.4911 4.17309 13.858 4.36237 14.1628 4.63162C14.4676 4.90086 14.7008 5.24163 14.8413 5.62329H12.5C12.5 5.45753 12.4342 5.29856 12.3169 5.18135C12.1997 5.06414 12.0408 4.99829 11.875 4.99829H8.125C7.95924 4.99829 7.80027 5.06414 7.68306 5.18135C7.56585 5.29856 7.5 5.45753 7.5 5.62329H5.15875C5.29947 5.24133 5.53297 4.90037 5.83824 4.6311C6.14351 4.36183 6.51096 4.17272 6.9075 4.08079ZM13.125 14.9983H6.875C6.37772 14.9983 5.90081 14.8007 5.54917 14.4491C5.19754 14.0975 5 13.6206 5 13.1233V11.8733H6.25V12.4983C6.25 12.6641 6.31585 12.823 6.43306 12.9402C6.55027 13.0574 6.70924 13.1233 6.875 13.1233C7.04076 13.1233 7.19973 13.0574 7.31694 12.9402C7.43415 12.823 7.5 12.6641 7.5 12.4983V11.8733H12.5V12.4983C12.5 12.6641 12.5658 12.823 12.6831 12.9402C12.8003 13.0574 12.9592 13.1233 13.125 13.1233C13.2908 13.1233 13.4497 13.0574 13.5669 12.9402C13.6842 12.823 13.75 12.6641 13.75 12.4983V11.8733H15V13.1233C15 13.6206 14.8025 14.0975 14.4508 14.4491C14.0992 14.8007 13.6223 14.9983 13.125 14.9983Z" fill="white"/>
</svg>
