<svg width="18" height="18" viewBox="0 0 18 18" fill="none" xmlns="http://www.w3.org/2000/svg">
<path d="M9 15.75C7.66498 15.75 6.35993 15.3541 5.2499 14.6124C4.13987 13.8707 3.27471 12.8165 2.76382 11.5831C2.25292 10.3497 2.11925 8.99251 2.3797 7.68314C2.64015 6.37377 3.28303 5.17104 4.22703 4.22703C5.17104 3.28303 6.37377 2.64015 7.68314 2.3797C8.99251 2.11925 10.3497 2.25292 11.5831 2.76382C12.8165 3.27471 13.8707 4.13987 14.6124 5.2499C15.3541 6.35993 15.75 7.66498 15.75 9C15.7481 10.7896 15.0363 12.5054 13.7708 13.7708C12.5054 15.0363 10.7896 15.7481 9 15.75ZM9 3.375C7.88748 3.375 6.79995 3.7049 5.87492 4.32299C4.94989 4.94107 4.22892 5.81957 3.80318 6.84741C3.37744 7.87524 3.26604 9.00624 3.48309 10.0974C3.70013 11.1885 4.23586 12.1908 5.02253 12.9775C5.8092 13.7641 6.81148 14.2999 7.90262 14.5169C8.99376 14.734 10.1248 14.6226 11.1526 14.1968C12.1804 13.7711 13.0589 13.0501 13.677 12.1251C14.2951 11.2001 14.625 10.1125 14.625 9C14.6234 7.50866 14.0302 6.07887 12.9757 5.02434C11.9211 3.9698 10.4913 3.37664 9 3.375ZM12.1871 11.1071C12.2986 11.0079 12.366 10.8685 12.3747 10.7196C12.3833 10.5706 12.3325 10.4243 12.2333 10.3129C12.134 10.2014 11.9946 10.134 11.8457 10.1253C11.6967 10.1167 11.5504 10.1675 11.439 10.2668C10.7514 10.8457 9.89693 11.1902 9 11.25C8.10361 11.1902 7.24963 10.8462 6.56213 10.2679C6.45084 10.1685 6.30463 10.1174 6.15568 10.1259C6.00673 10.1343 5.86723 10.2016 5.76788 10.3129C5.66852 10.4242 5.61744 10.5704 5.62588 10.7193C5.63432 10.8683 5.70159 11.0078 5.81288 11.1071C6.70605 11.8702 7.82675 12.316 9 12.375C10.1733 12.316 11.294 11.8702 12.1871 11.1071ZM5.625 7.875C5.625 8.4375 6.12844 8.4375 6.75 8.4375C7.37156 8.4375 7.875 8.4375 7.875 7.875C7.875 7.57663 7.75648 7.29049 7.5455 7.07951C7.33452 6.86853 7.04837 6.75 6.75 6.75C6.45163 6.75 6.16549 6.86853 5.95451 7.07951C5.74353 7.29049 5.625 7.57663 5.625 7.875ZM10.125 7.875C10.125 8.4375 10.6284 8.4375 11.25 8.4375C11.8716 8.4375 12.375 8.4375 12.375 7.875C12.375 7.57663 12.2565 7.29049 12.0455 7.07951C11.8345 6.86853 11.5484 6.75 11.25 6.75C10.9516 6.75 10.6655 6.86853 10.4545 7.07951C10.2435 7.29049 10.125 7.57663 10.125 7.875Z" fill="#494949"/>
</svg>
