<svg width="18" height="18" viewBox="0 0 18 18" fill="none" xmlns="http://www.w3.org/2000/svg">
<path d="M9 2.25C7.66498 2.25 6.35994 2.64588 5.2499 3.38758C4.13987 4.12928 3.27471 5.18349 2.76382 6.41689C2.25292 7.65029 2.11925 9.00749 2.3797 10.3169C2.64015 11.6262 3.28303 12.829 4.22703 13.773C5.17104 14.717 6.37377 15.3598 7.68314 15.6203C8.99252 15.8807 10.3497 15.7471 11.5831 15.2362C12.8165 14.7253 13.8707 13.8601 14.6124 12.7501C15.3541 11.6401 15.75 10.335 15.75 9C15.7481 7.21038 15.0363 5.49462 13.7708 4.22917C12.5054 2.96372 10.7896 2.25194 9 2.25V2.25ZM9 14.625C7.88748 14.625 6.79995 14.2951 5.87492 13.677C4.94989 13.0589 4.22892 12.1804 3.80318 11.1526C3.37744 10.1248 3.26604 8.99376 3.48309 7.90262C3.70013 6.81147 4.23586 5.80919 5.02253 5.02252C5.8092 4.23585 6.81148 3.70012 7.90262 3.48308C8.99376 3.26604 10.1248 3.37743 11.1526 3.80318C12.1804 4.22892 13.0589 4.94989 13.677 5.87492C14.2951 6.79994 14.625 7.88748 14.625 9C14.6234 10.4913 14.0302 11.9211 12.9757 12.9757C11.9211 14.0302 10.4913 14.6234 9 14.625Z" fill="#000000"/>
<path d="M9.00109 5.625C8.85191 5.625 8.70883 5.68426 8.60335 5.78975C8.49786 5.89524 8.43859 6.03832 8.43859 6.1875V8.62031L6.54241 9.80831C6.4156 9.88752 6.32546 10.0139 6.29181 10.1595C6.25816 10.3052 6.28376 10.4583 6.36297 10.5851C6.44219 10.7119 6.56854 10.8021 6.71422 10.8357C6.8599 10.8694 7.01298 10.8438 7.13978 10.7646L9.29978 9.41456C9.38139 9.36342 9.4485 9.29219 9.4947 9.20769C9.54089 9.12318 9.56461 9.02823 9.56359 8.93193V6.1875C9.56359 6.03832 9.50433 5.89524 9.39884 5.78975C9.29335 5.68426 9.15028 5.625 9.00109 5.625Z" fill="#000000"/>
</svg>
