<svg width="16" height="16" viewBox="0 0 16 16" fill="none" xmlns="http://www.w3.org/2000/svg">
<path d="M11.5 4.66797H8.5C8.04341 4.66964 7.59604 4.79665 7.20668 5.03515C6.81733 5.27365 6.50093 5.61448 6.292 6.02047C5.9922 5.79286 5.62641 5.66912 5.25 5.66797C4.78587 5.66797 4.34075 5.85234 4.01256 6.18053C3.68437 6.50872 3.5 6.95384 3.5 7.41797C3.50146 7.67798 3.56145 7.93431 3.6755 8.16797H3V3.16797C3 3.03536 2.94732 2.90818 2.85355 2.81442C2.75979 2.72065 2.63261 2.66797 2.5 2.66797C2.36739 2.66797 2.24021 2.72065 2.14645 2.81442C2.05268 2.90818 2 3.03536 2 3.16797V12.168C2 12.3006 2.05268 12.4278 2.14645 12.5215C2.24021 12.6153 2.36739 12.668 2.5 12.668C2.63261 12.668 2.75979 12.6153 2.85355 12.5215C2.94732 12.4278 3 12.3006 3 12.168V11.168H13V12.168C13 12.3006 13.0527 12.4278 13.1464 12.5215C13.2402 12.6153 13.3674 12.668 13.5 12.668C13.6326 12.668 13.7598 12.6153 13.8536 12.5215C13.9473 12.4278 14 12.3006 14 12.168V7.16797C13.9992 6.50517 13.7356 5.86975 13.2669 5.40108C12.7982 4.93241 12.1628 4.66876 11.5 4.66797ZM7 7.16797C7 6.77015 7.15804 6.38861 7.43934 6.10731C7.72064 5.82601 8.10218 5.66797 8.5 5.66797H11.5C11.8978 5.66797 12.2794 5.82601 12.5607 6.10731C12.842 6.38861 13 6.77015 13 7.16797V8.16797H7V7.16797ZM4.5 7.41797C4.5 7.26963 4.54399 7.12463 4.6264 7.00129C4.70881 6.87796 4.82594 6.78183 4.96299 6.72506C5.10003 6.6683 5.25083 6.65344 5.39632 6.68238C5.5418 6.71132 5.67544 6.78275 5.78033 6.88764C5.88522 6.99253 5.95665 7.12617 5.98559 7.27165C6.01453 7.41714 5.99968 7.56794 5.94291 7.70498C5.88614 7.84203 5.79001 7.95916 5.66668 8.04157C5.54334 8.12398 5.39834 8.16797 5.25 8.16797C5.05109 8.16797 4.86032 8.08895 4.71967 7.9483C4.57902 7.80765 4.5 7.61688 4.5 7.41797ZM3 10.168V9.16797H13V10.168H3Z" fill="#494949"/>
</svg>
