<svg width="18" height="18" viewBox="0 0 18 18" fill="none" xmlns="http://www.w3.org/2000/svg">
<path d="M12.9375 3.375H12.375V2.8125C12.375 2.66332 12.3157 2.52024 12.2102 2.41475C12.1048 2.30926 11.9617 2.25 11.8125 2.25C11.6633 2.25 11.5202 2.30926 11.4148 2.41475C11.3093 2.52024 11.25 2.66332 11.25 2.8125V3.375H6.75V2.8125C6.75 2.66332 6.69074 2.52024 6.58525 2.41475C6.47976 2.30926 6.33668 2.25 6.1875 2.25C6.03832 2.25 5.89524 2.30926 5.78975 2.41475C5.68426 2.52024 5.625 2.66332 5.625 2.8125V3.375H5.0625C4.31685 3.37589 3.602 3.6725 3.07475 4.19975C2.5475 4.727 2.25089 5.44185 2.25 6.1875L2.25 12.9375C2.25089 13.6831 2.5475 14.398 3.07475 14.9253C3.602 15.4525 4.31685 15.7491 5.0625 15.75H12.9375C13.6831 15.7491 14.398 15.4525 14.9253 14.9253C15.4525 14.398 15.7491 13.6831 15.75 12.9375V6.1875C15.7491 5.44185 15.4525 4.727 14.9253 4.19975C14.398 3.6725 13.6831 3.37589 12.9375 3.375ZM3.375 6.1875C3.375 5.73995 3.55279 5.31072 3.86926 4.99426C4.18572 4.67779 4.61495 4.5 5.0625 4.5H12.9375C13.3851 4.5 13.8143 4.67779 14.1307 4.99426C14.4472 5.31072 14.625 5.73995 14.625 6.1875V6.75H3.375V6.1875ZM12.9375 14.625H5.0625C4.61495 14.625 4.18572 14.4472 3.86926 14.1307C3.55279 13.8143 3.375 13.3851 3.375 12.9375V7.875H14.625V12.9375C14.625 13.3851 14.4472 13.8143 14.1307 14.1307C13.8143 14.4472 13.3851 14.625 12.9375 14.625Z" fill="#494949"/>
<path d="M9 11.5312C9.46599 11.5312 9.84375 11.1535 9.84375 10.6875C9.84375 10.2215 9.46599 9.84375 9 9.84375C8.53401 9.84375 8.15625 10.2215 8.15625 10.6875C8.15625 11.1535 8.53401 11.5312 9 11.5312Z" fill="#363636"/>
<path d="M6.1875 11.5312C6.65349 11.5312 7.03125 11.1535 7.03125 10.6875C7.03125 10.2215 6.65349 9.84375 6.1875 9.84375C5.72151 9.84375 5.34375 10.2215 5.34375 10.6875C5.34375 11.1535 5.72151 11.5312 6.1875 11.5312Z" fill="#363636"/>
<path d="M11.8125 11.5312C12.2785 11.5312 12.6562 11.1535 12.6562 10.6875C12.6562 10.2215 12.2785 9.84375 11.8125 9.84375C11.3465 9.84375 10.9688 10.2215 10.9688 10.6875C10.9688 11.1535 11.3465 11.5312 11.8125 11.5312Z" fill="#363636"/>
</svg>
