<svg width="18" height="18" viewBox="0 0 18 18" fill="none" xmlns="http://www.w3.org/2000/svg">
<path d="M10.4041 9.56251C10.2372 9.56251 10.0741 9.51302 9.93533 9.42031C9.79658 9.3276 9.68843 9.19582 9.62457 9.04165C9.56071 8.88747 9.544 8.71782 9.57656 8.55415C9.60912 8.39048 9.68947 8.24014 9.80747 8.12214C9.92547 8.00414 10.0758 7.92378 10.2395 7.89122C10.4032 7.85866 10.5728 7.87537 10.727 7.93923C10.8812 8.0031 11.0129 8.11124 11.1056 8.25C11.1984 8.38875 11.2478 8.55188 11.2478 8.71876C11.2478 8.94253 11.1589 9.15714 11.0007 9.31538C10.8425 9.47361 10.6279 9.56251 10.4041 9.56251ZM14.539 6.90413C14.3132 5.59919 13.6331 4.41619 12.619 3.56443C11.6049 2.71268 10.3222 2.24708 8.99785 2.25001C5.11661 2.25001 4.00511 4.87914 3.27105 6.61895C3.1222 7.11122 2.86916 7.56569 2.52911 7.95151C2.42753 8.01075 2.34707 8.10035 2.29904 8.20769C2.25102 8.31503 2.23785 8.43473 2.26137 8.54995C2.2849 8.66517 2.34395 8.77011 2.43021 8.85003C2.51648 8.92996 2.62562 8.98083 2.7423 8.99551C4.13268 9.11242 5.53107 8.90046 6.82435 8.37676C6.753 8.53489 6.73212 8.71117 6.76457 8.8816C6.79701 9.05202 6.8812 9.2083 7.00567 9.32915C7.13014 9.45 7.28884 9.52955 7.46014 9.55695C7.63145 9.58436 7.80704 9.55829 7.963 9.4823C8.11896 9.40631 8.2477 9.2841 8.33169 9.1323C8.41569 8.9805 8.45085 8.8065 8.43238 8.634C8.41392 8.4615 8.34273 8.29889 8.22852 8.1683C8.1143 8.03772 7.96261 7.94552 7.7941 7.90426C8.89919 7.28519 9.85172 6.42665 10.5818 5.39157C10.6282 5.33173 10.662 5.26315 10.6812 5.18994C10.7004 5.11674 10.7046 5.04041 10.6936 4.96552C10.6826 4.89064 10.6566 4.81875 10.6172 4.75415C10.5778 4.68955 10.5257 4.63357 10.4641 4.58957C10.4025 4.54556 10.3327 4.51444 10.2588 4.49805C10.1849 4.48167 10.1085 4.48037 10.0341 4.49422C9.9597 4.50807 9.88886 4.5368 9.82581 4.57868C9.76277 4.62056 9.70883 4.67473 9.66722 4.73795C9.01125 5.66149 8.15495 6.42474 7.16236 6.97062C6.16977 7.51649 5.06659 7.83086 3.93536 7.8902C4.06304 7.63538 4.18173 7.35245 4.30773 7.05601C4.99961 5.41576 5.86079 3.37501 8.99785 3.37501C10.1092 3.37235 11.1821 3.78221 12.0086 4.5252C12.8352 5.2682 13.3566 6.29148 13.472 7.39688C13.4848 7.51774 13.5365 7.63118 13.6193 7.72021C13.702 7.80924 13.8114 7.86908 13.931 7.89076C14.1359 7.93084 14.3187 8.0455 14.444 8.21255C14.5693 8.37961 14.6282 8.58719 14.6093 8.79516C14.5904 9.00312 14.4951 9.19669 14.3417 9.33843C14.1884 9.48017 13.9879 9.56001 13.7791 9.56251C13.7315 9.56119 13.6841 9.55611 13.6373 9.54732C13.5061 9.5234 13.3707 9.54716 13.2555 9.61431C13.1403 9.68145 13.0529 9.78757 13.009 9.91351C12.4938 11.3743 10.7596 12.9375 8.99785 12.9375C7.3666 12.9375 5.84785 11.6533 5.19198 10.3843C5.12336 10.2518 5.00492 10.1521 4.86272 10.1069C4.72052 10.0618 4.56621 10.0749 4.43373 10.1436C4.30126 10.2122 4.20147 10.3306 4.15632 10.4728C4.11117 10.615 4.12436 10.7693 4.19298 10.9018C4.77596 11.9896 5.66394 12.8834 6.74785 13.4736V15.1875C6.74785 15.3367 6.80712 15.4798 6.9126 15.5852C7.01809 15.6907 7.16117 15.75 7.31035 15.75C7.45954 15.75 7.60261 15.6907 7.7081 15.5852C7.81359 15.4798 7.87285 15.3367 7.87285 15.1875V13.9151C8.60978 14.1131 9.38591 14.1131 10.1228 13.9151V15.1875C10.1228 15.3367 10.1821 15.4798 10.2876 15.5852C10.3931 15.6907 10.5362 15.75 10.6853 15.75C10.8345 15.75 10.9776 15.6907 11.0831 15.5852C11.1886 15.4798 11.2478 15.3367 11.2478 15.1875V13.4741C12.4089 12.8499 13.3412 11.8724 13.9096 10.683C14.3516 10.6528 14.7705 10.4745 15.0986 10.1767C15.4267 9.87901 15.6448 9.47932 15.7176 9.0423C15.7903 8.60528 15.7136 8.15648 15.4997 7.76847C15.2859 7.38047 14.9474 7.07594 14.539 6.90413Z" fill="#494949"/>
</svg>
