<svg width="18" height="18" viewBox="0 0 18 18" fill="none" xmlns="http://www.w3.org/2000/svg">
<path d="M13.9163 7.6755L11.4975 4.20431C11.2383 3.83238 10.893 3.52862 10.491 3.31893C10.0891 3.10923 9.64236 2.99982 9.189 3H7.03125C6.46089 3.00193 5.90446 3.17641 5.43511 3.50048C4.96576 3.82456 4.60546 4.28307 4.40156 4.81575L3.23606 7.88925C2.93239 8.09545 2.68378 8.37281 2.5119 8.69714C2.34003 9.02148 2.25011 9.38294 2.25 9.75V10.5938C2.25046 10.9178 2.3626 11.2318 2.56752 11.4828C2.77243 11.7338 3.05761 11.9066 3.375 11.9719V12.2813C3.375 12.8034 3.58242 13.3042 3.95163 13.6734C4.32085 14.0426 4.8216 14.25 5.34375 14.25C5.8659 14.25 6.36665 14.0426 6.73587 13.6734C7.10508 13.3042 7.3125 12.8034 7.3125 12.2813V12H10.6875V12.2813C10.6875 12.8034 10.8949 13.3042 11.2641 13.6734C11.6333 14.0426 12.1341 14.25 12.6562 14.25C13.1784 14.25 13.6792 14.0426 14.0484 13.6734C14.4176 13.3042 14.625 12.8034 14.625 12.2813V11.9719C14.9424 11.9066 15.2276 11.7338 15.4325 11.4828C15.6374 11.2318 15.7495 10.9178 15.75 10.5938V10.3125C15.7492 9.73853 15.5732 9.17849 15.2455 8.70726C14.9178 8.23603 14.454 7.87606 13.9163 7.6755ZM10.575 4.84725L12.4222 7.5H8.4375V4.125H9.189C9.46114 4.12471 9.72932 4.19024 9.97065 4.316C10.212 4.44176 10.4193 4.62403 10.575 4.84725ZM5.45625 5.21456C5.57837 4.89536 5.79411 4.62052 6.07517 4.42609C6.35623 4.23166 6.68949 4.1267 7.03125 4.125H7.3125V7.5H4.58662L5.45625 5.21456ZM6.1875 12.2813C6.1875 12.505 6.09861 12.7196 5.94037 12.8779C5.78214 13.0361 5.56753 13.125 5.34375 13.125C5.11997 13.125 4.90536 13.0361 4.74713 12.8779C4.58889 12.7196 4.5 12.505 4.5 12.2813V12H6.1875V12.2813ZM12.6562 13.125C12.4325 13.125 12.2179 13.0361 12.0596 12.8779C11.9014 12.7196 11.8125 12.505 11.8125 12.2813V12H13.5V12.2813C13.5 12.505 13.4111 12.7196 13.2529 12.8779C13.0946 13.0361 12.88 13.125 12.6562 13.125ZM14.625 10.5938C14.625 10.6683 14.5954 10.7399 14.5426 10.7926C14.4899 10.8454 14.4183 10.875 14.3438 10.875H3.65625C3.58166 10.875 3.51012 10.8454 3.45738 10.7926C3.40463 10.7399 3.375 10.6683 3.375 10.5938V9.75C3.375 9.45163 3.49353 9.16548 3.7045 8.95451C3.91548 8.74353 4.20163 8.625 4.5 8.625H12.9375C13.3851 8.625 13.8143 8.80279 14.1307 9.11926C14.4472 9.43573 14.625 9.86495 14.625 10.3125V10.5938Z" fill="#494949"/>
</svg>
