<svg width="20" height="20" viewBox="0 0 20 20" fill="none" xmlns="http://www.w3.org/2000/svg">
<path d="M11.6673 10.001C11.6673 10.1246 11.6307 10.2454 11.562 10.3481C11.4933 10.4509 11.3957 10.531 11.2816 10.5783C11.1674 10.6256 11.0417 10.638 10.9205 10.6139C10.7993 10.5898 10.6879 10.5302 10.6005 10.4428C10.5131 10.3554 10.4536 10.2441 10.4295 10.1229C10.4054 10.0017 10.4178 9.876 10.4651 9.76181C10.5124 9.64762 10.5925 9.55002 10.6952 9.48136C10.798 9.41269 10.9188 9.37604 11.0424 9.37604C11.2081 9.37604 11.3671 9.44188 11.4843 9.55907C11.6015 9.67627 11.6673 9.83522 11.6673 10.001ZM8.54273 9.37604C8.41913 9.37604 8.29831 9.41269 8.19554 9.48136C8.09277 9.55002 8.01267 9.64762 7.96537 9.76181C7.91808 9.876 7.9057 10.0017 7.92981 10.1229C7.95393 10.2441 8.01344 10.3554 8.10084 10.4428C8.18824 10.5302 8.29959 10.5898 8.42081 10.6139C8.54203 10.638 8.66768 10.6256 8.78187 10.5783C8.89606 10.531 8.99366 10.4509 9.06233 10.3481C9.13099 10.2454 9.16764 10.1246 9.16764 10.001C9.16764 9.83522 9.10181 9.67627 8.98461 9.55907C8.86742 9.44188 8.70846 9.37604 8.54273 9.37604ZM9.79256 7.50128C9.66897 7.50128 9.54815 7.53793 9.44538 7.6066C9.34261 7.67526 9.26251 7.77286 9.21521 7.88705C9.16792 8.00124 9.15554 8.12689 9.17965 8.24811C9.20377 8.36934 9.26328 8.48069 9.35068 8.56808C9.43808 8.65548 9.54943 8.715 9.67065 8.73911C9.79187 8.76322 9.91752 8.75085 10.0317 8.70355C10.1459 8.65625 10.2435 8.57615 10.3122 8.47339C10.3808 8.37062 10.4175 8.2498 10.4175 8.1262C10.4175 7.96046 10.3516 7.80151 10.2344 7.68431C10.1173 7.56712 9.9583 7.50128 9.79256 7.50128ZM11.0424 6.87636C11.166 6.87636 11.2868 6.83971 11.3896 6.77104C11.4924 6.70237 11.5725 6.60477 11.6198 6.49058C11.6671 6.3764 11.6794 6.25074 11.6553 6.12952C11.6312 6.0083 11.5717 5.89695 11.4843 5.80955C11.3969 5.72216 11.2855 5.66264 11.1643 5.63853C11.0431 5.61441 10.9174 5.62679 10.8033 5.67409C10.6891 5.72139 10.5915 5.80148 10.5228 5.90425C10.4541 6.00702 10.4175 6.12784 10.4175 6.25144C10.4175 6.41718 10.4833 6.57613 10.6005 6.69332C10.7177 6.81052 10.8767 6.87636 11.0424 6.87636ZM12.2922 7.50128C12.1686 7.50128 12.0478 7.53793 11.9451 7.6066C11.8423 7.67526 11.7622 7.77286 11.7149 7.88705C11.6676 8.00124 11.6552 8.12689 11.6793 8.24811C11.7034 8.36934 11.763 8.48069 11.8504 8.56808C11.9378 8.65548 12.0491 8.715 12.1703 8.73911C12.2916 8.76322 12.4172 8.75085 12.5314 8.70355C12.6456 8.65625 12.7432 8.57615 12.8118 8.47339C12.8805 8.37062 12.9172 8.2498 12.9172 8.1262C12.9172 7.96046 12.8513 7.80151 12.7341 7.68431C12.6169 7.56712 12.458 7.50128 12.2922 7.50128ZM12.2579 13.1793C12.1601 13.8407 11.851 14.4528 11.3767 14.9241L10.4175 15.884V16.8751C10.4175 17.0408 10.3516 17.1998 10.2344 17.317C10.1173 17.4342 9.9583 17.5 9.79256 17.5C9.62683 17.5 9.46788 17.4342 9.35068 17.317C9.23348 17.1998 9.16764 17.0408 9.16764 16.8751V15.884L8.20777 14.9241C7.73364 14.4527 7.42456 13.8407 7.32663 13.1793C6.18362 12.6218 5.2633 11.6934 4.71583 10.5455C4.16835 9.39767 4.02605 8.09817 4.31214 6.85904C4.59822 5.61991 5.29581 4.51432 6.29108 3.72266C7.28634 2.93099 8.52053 2.5 9.79225 2.5C11.064 2.5 12.2982 2.93099 13.2934 3.72266C14.2887 4.51432 14.9863 5.61991 15.2724 6.85904C15.5585 8.09817 15.4162 9.39767 14.8687 10.5455C14.3212 11.6934 13.4009 12.6218 12.2579 13.1793ZM10.4931 14.0404C10.7425 13.7886 10.9157 13.4715 10.993 13.1256H8.58709C8.66459 13.4714 8.83784 13.7884 9.08703 14.0404L9.79256 14.7416L10.4931 14.0404ZM14.167 8.1262C14.1672 7.36116 13.9668 6.60945 13.5857 5.94607C13.2046 5.28269 12.6563 4.73085 11.9953 4.34562C11.3343 3.96039 10.5839 3.75523 9.81887 3.75063C9.05385 3.74603 8.30099 3.94215 7.63544 4.3194C6.96989 4.69666 6.41491 5.24186 6.02589 5.90061C5.63687 6.55935 5.42742 7.30861 5.41843 8.07359C5.40944 8.83857 5.60123 9.59254 5.97466 10.2602C6.34809 10.928 6.8901 11.4861 7.5466 11.8788C7.56598 11.8757 7.58535 11.8757 7.60535 11.8757H11.9798C11.9998 11.8757 12.0192 11.8757 12.0385 11.8788C12.6888 11.4922 13.2271 10.9428 13.6003 10.2847C13.9736 9.62669 14.1689 8.88273 14.167 8.1262Z" fill="white"/>
</svg>
