<svg width="38" height="38" viewBox="0 0 38 38" fill="none" xmlns="http://www.w3.org/2000/svg">
<g opacity="0.3" filter="url(#filter0_d_4988_19548)">
<path fill-rule="evenodd" clip-rule="evenodd" d="M19 36C28.3888 36 36 28.3888 36 19C36 9.61116 28.3888 2 19 2C9.61116 2 2 9.61116 2 19C2 28.3888 9.61116 36 19 36ZM19 33C26.732 33 33 26.732 33 19C33 11.268 26.732 5 19 5C11.268 5 5 11.268 5 19C5 26.732 11.268 33 19 33Z" fill="#FF5B00"/>
</g>
<path fill-rule="evenodd" clip-rule="evenodd" d="M9.93565 8.33003C12.378 6.25316 15.5426 5 18.9998 5V2C14.7141 2 10.7987 3.58594 7.80859 6.20297L9.93565 8.33003Z" fill="#FF5B00"/>
<defs>
<filter id="filter0_d_4988_19548" x="0" y="0" width="38" height="38" filterUnits="userSpaceOnUse" color-interpolation-filters="sRGB">
<feFlood flood-opacity="0" result="BackgroundImageFix"/>
<feColorMatrix in="SourceAlpha" type="matrix" values="0 0 0 0 0 0 0 0 0 0 0 0 0 0 0 0 0 0 127 0" result="hardAlpha"/>
<feOffset/>
<feGaussianBlur stdDeviation="1"/>
<feComposite in2="hardAlpha" operator="out"/>
<feColorMatrix type="matrix" values="0 0 0 0 0.133333 0 0 0 0 0.133333 0 0 0 0 0.133333 0 0 0 0.15 0"/>
<feBlend mode="normal" in2="BackgroundImageFix" result="effect1_dropShadow_4988_19548"/>
<feBlend mode="normal" in="SourceGraphic" in2="effect1_dropShadow_4988_19548" result="shape"/>
</filter>
</defs>
</svg>
