<svg width="24" height="24" viewBox="0 0 24 24" fill="none" xmlns="http://www.w3.org/2000/svg">
<mask id="path-1-inside-1_4088_15232" fill="white">
<path d="M18.7584 11.8277V10.7584C18.7584 8.96597 18.0464 7.24694 16.7789 5.97949C15.5115 4.71205 13.7924 4 12 4C10.2076 4 8.48853 4.71205 7.22108 5.97949C5.95363 7.24694 5.24158 8.96597 5.24158 10.7584V11.8277C4.45397 12.1746 3.8094 12.7814 3.41578 13.5467C3.02215 14.312 2.90337 15.1893 3.07931 16.0317C3.25525 16.8741 3.71524 17.6305 4.38227 18.1742C5.04929 18.718 5.88287 19.0161 6.74345 19.0187C7.14178 19.0187 7.52378 18.8605 7.80544 18.5788C8.08709 18.2972 8.24533 17.9152 8.24533 17.5168V13.0112C8.24533 12.6129 8.08709 12.2309 7.80544 11.9492C7.52378 11.6676 7.14178 11.5094 6.74345 11.5094V10.7584C6.74345 9.36429 7.29727 8.02727 8.28306 7.04148C9.26885 6.05568 10.6059 5.50187 12 5.50187C13.3941 5.50187 14.7311 6.05568 15.7169 7.04148C16.7027 8.02727 17.2565 9.36429 17.2565 10.7584V11.5094C16.8582 11.5094 16.4762 11.6676 16.1946 11.9492C15.9129 12.2309 15.7547 12.6129 15.7547 13.0112V17.5168H13.5019C13.3027 17.5168 13.1117 17.5959 12.9709 17.7368C12.8301 17.8776 12.7509 18.0686 12.7509 18.2678C12.7509 18.4669 12.8301 18.6579 12.9709 18.7988C13.1117 18.9396 13.3027 19.0187 13.5019 19.0187H17.2565C18.1171 19.0161 18.9507 18.718 19.6177 18.1742C20.2848 17.6305 20.7447 16.8741 20.9207 16.0317C21.0966 15.1893 20.9778 14.312 20.5842 13.5467C20.1906 12.7814 19.546 12.1746 18.7584 11.8277ZM6.74345 17.5168C6.14597 17.5168 5.57296 17.2795 5.15048 16.857C4.728 16.4345 4.49065 15.8615 4.49065 15.264C4.49065 14.6665 4.728 14.0935 5.15048 13.6711C5.57296 13.2486 6.14597 13.0112 6.74345 13.0112V17.5168ZM17.2565 17.5168V13.0112C17.854 13.0112 18.427 13.2486 18.8495 13.6711C19.272 14.0935 19.5094 14.6665 19.5094 15.264C19.5094 15.8615 19.272 16.4345 18.8495 16.857C18.427 17.2795 17.854 17.5168 17.2565 17.5168Z"/>
</mask>
<path d="M18.7584 11.8277V10.7584C18.7584 8.96597 18.0464 7.24694 16.7789 5.97949C15.5115 4.71205 13.7924 4 12 4C10.2076 4 8.48853 4.71205 7.22108 5.97949C5.95363 7.24694 5.24158 8.96597 5.24158 10.7584V11.8277C4.45397 12.1746 3.8094 12.7814 3.41578 13.5467C3.02215 14.312 2.90337 15.1893 3.07931 16.0317C3.25525 16.8741 3.71524 17.6305 4.38227 18.1742C5.04929 18.718 5.88287 19.0161 6.74345 19.0187C7.14178 19.0187 7.52378 18.8605 7.80544 18.5788C8.08709 18.2972 8.24533 17.9152 8.24533 17.5168V13.0112C8.24533 12.6129 8.08709 12.2309 7.80544 11.9492C7.52378 11.6676 7.14178 11.5094 6.74345 11.5094V10.7584C6.74345 9.36429 7.29727 8.02727 8.28306 7.04148C9.26885 6.05568 10.6059 5.50187 12 5.50187C13.3941 5.50187 14.7311 6.05568 15.7169 7.04148C16.7027 8.02727 17.2565 9.36429 17.2565 10.7584V11.5094C16.8582 11.5094 16.4762 11.6676 16.1946 11.9492C15.9129 12.2309 15.7547 12.6129 15.7547 13.0112V17.5168H13.5019C13.3027 17.5168 13.1117 17.5959 12.9709 17.7368C12.8301 17.8776 12.7509 18.0686 12.7509 18.2678C12.7509 18.4669 12.8301 18.6579 12.9709 18.7988C13.1117 18.9396 13.3027 19.0187 13.5019 19.0187H17.2565C18.1171 19.0161 18.9507 18.718 19.6177 18.1742C20.2848 17.6305 20.7447 16.8741 20.9207 16.0317C21.0966 15.1893 20.9778 14.312 20.5842 13.5467C20.1906 12.7814 19.546 12.1746 18.7584 11.8277ZM6.74345 17.5168C6.14597 17.5168 5.57296 17.2795 5.15048 16.857C4.728 16.4345 4.49065 15.8615 4.49065 15.264C4.49065 14.6665 4.728 14.0935 5.15048 13.6711C5.57296 13.2486 6.14597 13.0112 6.74345 13.0112V17.5168ZM17.2565 17.5168V13.0112C17.854 13.0112 18.427 13.2486 18.8495 13.6711C19.272 14.0935 19.5094 14.6665 19.5094 15.264C19.5094 15.8615 19.272 16.4345 18.8495 16.857C18.427 17.2795 17.854 17.5168 17.2565 17.5168Z" fill="#494949"/>
<path d="M18.7584 10.7584H40.0918H18.7584ZM12 4V25.3333V4ZM5.24158 10.7584H-16.0917H5.24158ZM5.24158 11.8277L13.8387 31.3521L26.5749 25.744V11.8277H5.24158ZM6.74345 19.0187L6.67967 40.3519L6.71156 40.352H6.74345V19.0187ZM8.24533 17.5168H29.5787H8.24533ZM8.24533 13.0112L29.5787 13.0112L8.24533 13.0112ZM6.74345 11.5094H-14.5899V32.8427H6.74345V11.5094ZM6.74345 10.7584H-14.5899H6.74345ZM12 5.50187V26.8352V5.50187ZM17.2565 10.7584H38.5899H17.2565ZM17.2565 11.5094V32.8427H38.5899V11.5094H17.2565ZM15.7547 17.5168V38.8502H37.088V17.5168H15.7547ZM17.2565 19.0187V40.352H17.2884L17.3203 40.3519L17.2565 19.0187ZM6.74345 17.5168V38.8502H28.0768V17.5168H6.74345ZM4.49065 15.264H-16.8427H4.49065ZM6.74345 13.0112H28.0768V-8.32211L6.74345 -8.32211V13.0112ZM17.2565 17.5168H-4.07679V38.8502H17.2565V17.5168ZM17.2565 13.0112V-8.32211H-4.07679V13.0112H17.2565ZM19.5094 15.264H40.8427H19.5094ZM40.0918 11.8277V10.7584H-2.57492V11.8277H40.0918ZM40.0918 10.7584C40.0918 3.30802 37.1321 -3.83723 31.8639 -9.10545L1.69397 21.0644C-1.03935 18.3311 -2.57492 14.6239 -2.57492 10.7584L40.0918 10.7584ZM31.8639 -9.10545C26.5956 -14.3737 19.4504 -17.3333 12 -17.3333V25.3333C8.13449 25.3333 4.4273 23.7978 1.69397 21.0644L31.8639 -9.10545ZM12 -17.3333C4.5496 -17.3333 -2.59564 -14.3737 -7.86387 -9.10545L22.306 21.0644C19.5727 23.7978 15.8655 25.3333 12 25.3333V-17.3333ZM-7.86387 -9.10545C-13.1321 -3.83722 -16.0917 3.30802 -16.0917 10.7584L26.5749 10.7584C26.5749 14.6239 25.0394 18.3311 22.306 21.0644L-7.86387 -9.10545ZM-16.0917 10.7584V11.8277H26.5749V10.7584H-16.0917ZM-3.35553 -7.69661C-8.6182 -5.37931 -12.9251 -1.3245 -15.5552 3.789L22.3868 23.3044C20.5439 26.8873 17.5261 29.7284 13.8387 31.3521L-3.35553 -7.69661ZM-15.5552 3.789C-18.1853 8.90251 -18.979 14.7643 -17.8034 20.3931L23.962 11.6702C24.7858 15.6142 24.2296 19.7214 22.3868 23.3044L-15.5552 3.789ZM-17.8034 20.3931C-16.6278 26.022 -13.5543 31.0761 -9.09732 34.7094L17.8619 1.63907C20.9847 4.18488 23.1383 7.7262 23.962 11.6702L-17.8034 20.3931ZM-9.09732 34.7094C-4.64038 38.3427 0.929432 40.3348 6.67967 40.3519L6.80724 -2.31453C10.8363 -2.30249 14.739 -0.90673 17.8619 1.63907L-9.09732 34.7094ZM6.74345 40.352C12.7997 40.352 18.608 37.9462 22.8904 33.6638L-7.27951 3.49387C-3.56039 -0.225243 1.48381 -2.31463 6.74345 -2.31463V40.352ZM22.8904 33.6638C27.1728 29.3813 29.5787 23.5731 29.5787 17.5168H-13.088C-13.088 12.2572 -10.9986 7.21299 -7.27951 3.49387L22.8904 33.6638ZM29.5787 17.5168V13.0112H-13.088V17.5168H29.5787ZM29.5787 13.0112C29.5787 6.95495 27.1728 1.14673 22.8904 -3.1357L-7.27951 27.0342C-10.9986 23.3151 -13.088 18.2709 -13.088 13.0112L29.5787 13.0112ZM22.8904 -3.1357C18.608 -7.41813 12.7997 -9.82398 6.74345 -9.82398V32.8427C1.48381 32.8427 -3.56039 30.7533 -7.27951 27.0342L22.8904 -3.1357ZM28.0768 11.5094V10.7584H-14.5899V11.5094H28.0768ZM28.0768 10.7584C28.0768 15.0222 26.383 19.1114 23.368 22.1264L-6.80188 -8.04347C-11.7885 -3.0569 -14.5899 3.70635 -14.5899 10.7584L28.0768 10.7584ZM23.368 22.1264C20.353 25.1414 16.2638 26.8352 12 26.8352V-15.8315C4.94793 -15.8315 -1.81531 -13.03 -6.80188 -8.04347L23.368 22.1264ZM12 26.8352C7.73617 26.8352 3.64698 25.1414 0.631993 22.1264L30.8019 -8.04347C25.8153 -13.03 19.0521 -15.8315 12 -15.8315V26.8352ZM0.631993 22.1264C-2.38299 19.1114 -4.07679 15.0222 -4.07679 10.7584L38.5899 10.7584C38.5899 3.70634 35.7885 -3.0569 30.8019 -8.04347L0.631993 22.1264ZM-4.07679 10.7584V11.5094H38.5899V10.7584H-4.07679ZM17.2565 -9.82398C11.2003 -9.82398 5.39204 -7.41813 1.10962 -3.1357L31.2795 27.0342C27.5604 30.7533 22.5162 32.8427 17.2565 32.8427V-9.82398ZM1.10962 -3.1357C-3.1728 1.14672 -5.57866 6.95494 -5.57866 13.0112H37.088C37.088 18.2709 34.9986 23.3151 31.2795 27.0342L1.10962 -3.1357ZM-5.57866 13.0112V17.5168H37.088V13.0112H-5.57866ZM15.7547 -3.8165H13.5019V38.8502H15.7547V-3.8165ZM13.5019 -3.8165C7.64479 -3.8165 2.02756 -1.4898 -2.11407 2.65183L28.0558 32.8217C24.1959 36.6817 18.9606 38.8502 13.5019 38.8502V-3.8165ZM-2.11407 2.65183C-6.25568 6.79344 -8.5824 12.4107 -8.5824 18.2678H34.0843C34.0843 23.7266 31.9158 28.9618 28.0558 32.8217L-2.11407 2.65183ZM-8.5824 18.2678C-8.5824 24.1249 -6.25568 29.7421 -2.11407 33.8837L28.0558 3.71382C31.9158 7.57377 34.0843 12.809 34.0843 18.2678H-8.5824ZM-2.11407 33.8837C2.02756 38.0253 7.64479 40.352 13.5019 40.352V-2.31463C18.9606 -2.31463 24.1959 -0.146158 28.0558 3.71382L-2.11407 33.8837ZM13.5019 40.352H17.2565V-2.31463H13.5019V40.352ZM17.3203 40.3519C23.0706 40.3348 28.6404 38.3427 33.0973 34.7094L6.13814 1.63907C9.26103 -0.906727 13.1637 -2.30249 17.1928 -2.31453L17.3203 40.3519ZM33.0973 34.7094C37.5543 31.0761 40.6278 26.022 41.8034 20.3931L0.0379536 11.6702C0.861681 7.72619 3.01526 4.18487 6.13814 1.63907L33.0973 34.7094ZM41.8034 20.3931C42.979 14.7643 42.1853 8.9025 39.5552 3.789L1.61323 23.3044C-0.229642 19.7214 -0.785772 15.6142 0.0379536 11.6702L41.8034 20.3931ZM39.5552 3.789C36.9251 -1.32449 32.6182 -5.37931 27.3555 -7.69661L10.1613 31.3521C6.47384 29.7284 3.45609 26.8873 1.61323 23.3044L39.5552 3.789ZM6.74345 -3.8165C11.8039 -3.8165 16.6571 -1.80624 20.2354 1.77206L-9.93447 31.9419C-5.5112 36.3652 0.488027 38.8502 6.74345 38.8502V-3.8165ZM20.2354 1.77206C23.8137 5.35035 25.824 10.2036 25.824 15.264H-16.8427C-16.8427 21.5195 -14.3577 27.5187 -9.93447 31.9419L20.2354 1.77206ZM25.824 15.264C25.824 20.3245 23.8137 25.1777 20.2354 28.756L-9.93447 -1.41389C-14.3577 3.00937 -16.8427 9.0086 -16.8427 15.264H25.824ZM20.2354 28.756C16.6571 32.3343 11.8039 34.3446 6.74345 34.3446V-8.32211C0.488027 -8.32211 -5.5112 -5.83715 -9.93447 -1.41389L20.2354 28.756ZM-14.5899 13.0112V17.5168H28.0768V13.0112H-14.5899ZM38.5899 17.5168V13.0112H-4.07679V17.5168H38.5899ZM17.2565 34.3446C12.1961 34.3446 7.34287 32.3343 3.76457 28.756L33.9345 -1.41389C29.5112 -5.83716 23.512 -8.32211 17.2565 -8.32211V34.3446ZM3.76457 28.756C0.186274 25.1777 -1.82398 20.3245 -1.82398 15.264H40.8427C40.8427 9.00861 38.3577 3.00938 33.9345 -1.41389L3.76457 28.756ZM-1.82398 15.264C-1.82398 10.2036 0.186274 5.35036 3.76457 1.77206L33.9345 31.9419C38.3577 27.5187 40.8427 21.5194 40.8427 15.264H-1.82398ZM3.76457 1.77206C7.34287 -1.80624 12.1961 -3.8165 17.2565 -3.8165V38.8502C23.512 38.8502 29.5112 36.3652 33.9345 31.9419L3.76457 1.77206Z" fill="#494949" mask="url(#path-1-inside-1_4088_15232)"/>
</svg>
